<svg width="227" height="99" viewBox="0 0 227 99" fill="none" xmlns="http://www.w3.org/2000/svg">
<path d="M5.91607 75.8644C14.8216 86.1704 28.3503 92.2867 42 91.5C55.6497 90.7133 72.5737 73.123 69.732 58.04C66.8902 42.9569 59.77 45.6372 59.77 45.6372C59.77 45.6372 53.8642 48.9811 59.2123 60.022C64.5604 71.0628 87.2875 76.3503 100.63 73.6382C107.708 72.1993 125.552 67.1576 135.009 47.9726M5.91607 75.8644C9.2405 83.7021 10.5153 87.4862 12.0243 94.7943M5.91607 75.8644C14.1878 79.4708 18.6686 79.6062 24.2349 78.6604" stroke="black" stroke-width="2"/>
<path d="M141.579 14.2031C141.36 14.2031 141.152 14.1615 140.954 14.0781C140.761 13.9896 140.592 13.875 140.446 13.7344C140.3 13.5885 140.186 13.4193 140.103 13.2266C140.019 13.0286 139.978 12.8203 139.978 12.6016V9.39844C139.978 9.17969 140.019 8.97396 140.103 8.78125C140.186 8.58333 140.3 8.41406 140.446 8.27344C140.592 8.1276 140.761 8.01302 140.954 7.92969C141.152 7.84115 141.36 7.79688 141.579 7.79688H147.017C147.235 7.79688 147.441 7.84115 147.634 7.92969C147.832 8.01302 148.004 8.1276 148.149 8.27344C148.295 8.41406 148.41 8.58333 148.493 8.78125C148.576 8.97396 148.618 9.17969 148.618 9.39844V10.8438H147.017V9.39844H141.579V12.6016H147.017C147.235 12.6016 147.441 12.6432 147.634 12.7266C147.832 12.8099 148.004 12.9245 148.149 13.0703C148.295 13.2161 148.41 13.388 148.493 13.5859C148.576 13.7786 148.618 13.9844 148.618 14.2031V17.3984C148.618 17.6172 148.576 17.8255 148.493 18.0234C148.41 18.2161 148.295 18.3854 148.149 18.5312C148.004 18.6771 147.832 18.7917 147.634 18.875C147.441 18.9583 147.235 19 147.017 19H141.423C141.204 19 140.996 18.9583 140.798 18.875C140.605 18.7917 140.436 18.6771 140.29 18.5312C140.144 18.3854 140.03 18.2161 139.946 18.0234C139.863 17.8255 139.821 17.6172 139.821 17.3984V15.9609H141.423V17.3984H147.017V14.2031H141.579ZM158.952 19H157.413V12.2188H153.124V19H151.593V7.47656H153.124V12.1484C153.134 11.9453 153.181 11.7552 153.264 11.5781C153.348 11.3958 153.457 11.2396 153.593 11.1094C153.733 10.974 153.895 10.8698 154.077 10.7969C154.259 10.7188 154.454 10.6797 154.663 10.6797H157.413C157.626 10.6797 157.827 10.7214 158.014 10.8047C158.202 10.8828 158.363 10.9922 158.499 11.1328C158.639 11.2682 158.749 11.4297 158.827 11.6172C158.91 11.8047 158.952 12.0052 158.952 12.2188V19ZM168.95 17.4609C168.95 17.6745 168.908 17.875 168.825 18.0625C168.747 18.25 168.637 18.4141 168.497 18.5547C168.361 18.6901 168.2 18.7995 168.012 18.8828C167.83 18.9609 167.632 19 167.418 19H163.286C163.077 19 162.879 18.9609 162.692 18.8828C162.504 18.7995 162.34 18.6901 162.2 18.5547C162.064 18.4141 161.955 18.25 161.872 18.0625C161.793 17.875 161.754 17.6745 161.754 17.4609V12.2188C161.754 12.0052 161.793 11.8047 161.872 11.6172C161.955 11.4297 162.064 11.2682 162.2 11.1328C162.34 10.9922 162.504 10.8828 162.692 10.8047C162.879 10.7214 163.077 10.6797 163.286 10.6797H167.418C167.632 10.6797 167.83 10.7214 168.012 10.8047C168.2 10.8828 168.361 10.9922 168.497 11.1328C168.637 11.2682 168.747 11.4297 168.825 11.6172C168.908 11.8047 168.95 12.0052 168.95 12.2188V17.4609ZM163.286 12.2188V17.4609H167.418V12.2188H163.286ZM178.955 17.4609C178.955 17.6745 178.914 17.875 178.83 18.0625C178.752 18.25 178.643 18.4141 178.502 18.5547C178.367 18.6901 178.205 18.7995 178.018 18.8828C177.836 18.9609 177.638 19 177.424 19H173.291C173.083 19 172.885 18.9609 172.698 18.8828C172.51 18.7995 172.346 18.6901 172.205 18.5547C172.07 18.4141 171.961 18.25 171.877 18.0625C171.799 17.875 171.76 17.6745 171.76 17.4609V12.2188C171.76 12.0052 171.799 11.8047 171.877 11.6172C171.961 11.4297 172.07 11.2682 172.205 11.1328C172.346 10.9922 172.51 10.8828 172.698 10.8047C172.885 10.7214 173.083 10.6797 173.291 10.6797H177.424C177.638 10.6797 177.836 10.7214 178.018 10.8047C178.205 10.8828 178.367 10.9922 178.502 11.1328C178.643 11.2682 178.752 11.4297 178.83 11.6172C178.914 11.8047 178.955 12.0052 178.955 12.2188V17.4609ZM173.291 12.2188V17.4609H177.424V12.2188H173.291ZM181.281 10.6797H183.312V8.11719H184.852V10.6797H187.586V12.2188H184.852V17.4609H187.586V19H184.852C184.643 19 184.445 18.9609 184.258 18.8828C184.07 18.7995 183.906 18.6901 183.766 18.5547C183.625 18.4141 183.513 18.25 183.43 18.0625C183.352 17.875 183.312 17.6745 183.312 17.4609V12.2188H181.281V10.6797ZM202.027 12.2188V19H200.488V12.2188H196.964V19H195.433V10.6797H196.964V12.1484C196.975 11.9453 197.022 11.7552 197.105 11.5781C197.188 11.3958 197.298 11.2396 197.433 11.1094C197.574 10.974 197.735 10.8698 197.917 10.7969C198.1 10.7188 198.295 10.6797 198.503 10.6797H200.488C200.691 10.6797 200.884 10.7188 201.066 10.7969C201.248 10.8698 201.41 10.974 201.55 11.1094C201.691 11.2396 201.803 11.3958 201.886 11.5781C201.975 11.7552 202.022 11.9453 202.027 12.1484C202.037 11.9453 202.082 11.7552 202.16 11.5781C202.243 11.3958 202.352 11.2396 202.488 11.1094C202.628 10.974 202.79 10.8698 202.972 10.7969C203.154 10.7188 203.35 10.6797 203.558 10.6797H205.542C205.756 10.6797 205.957 10.7214 206.144 10.8047C206.332 10.8828 206.493 10.9922 206.628 11.1328C206.769 11.2682 206.878 11.4297 206.957 11.6172C207.04 11.8047 207.082 12.0052 207.082 12.2188V19H205.542V12.2188H202.027ZM216.931 15.625H211.423V17.4609H216.931V19H211.423C211.215 19 211.017 18.9609 210.829 18.8828C210.642 18.7995 210.478 18.6901 210.337 18.5547C210.202 18.4141 210.092 18.25 210.009 18.0625C209.931 17.875 209.892 17.6745 209.892 17.4609V12.2188C209.892 12.0052 209.931 11.8047 210.009 11.6172C210.092 11.4297 210.202 11.2682 210.337 11.1328C210.478 10.9922 210.642 10.8828 210.829 10.8047C211.017 10.7214 211.215 10.6797 211.423 10.6797H215.392C215.605 10.6797 215.806 10.7214 215.993 10.8047C216.181 10.8828 216.342 10.9922 216.478 11.1328C216.618 11.2682 216.728 11.4297 216.806 11.6172C216.889 11.8047 216.931 12.0052 216.931 12.2188V15.625ZM211.423 12.2188V14.0859H215.392V12.2188H211.423ZM137.675 31.3672C137.675 31.1536 137.714 30.9557 137.792 30.7734C137.876 30.5859 137.985 30.4219 138.12 30.2812C138.261 30.1406 138.425 30.0312 138.612 29.9531C138.8 29.8698 138.998 29.8281 139.206 29.8281H143.175V28.2188H138.152V26.6797H143.175C143.389 26.6797 143.589 26.7214 143.777 26.8047C143.964 26.8828 144.126 26.9922 144.261 27.1328C144.402 27.2682 144.511 27.4297 144.589 27.6172C144.672 27.8047 144.714 28.0052 144.714 28.2188V35H143.175V33.5938C143.159 33.7865 143.107 33.9688 143.019 34.1406C142.93 34.3125 142.816 34.4635 142.675 34.5938C142.54 34.7188 142.383 34.8177 142.206 34.8906C142.029 34.9635 141.842 35 141.644 35H139.206C138.998 35 138.8 34.9609 138.612 34.8828C138.425 34.7995 138.261 34.6901 138.12 34.5547C137.985 34.4141 137.876 34.25 137.792 34.0625C137.714 33.875 137.675 33.6745 137.675 33.4609V31.3672ZM139.206 33.4609H143.175V31.3672H139.206V33.4609ZM154.884 35H153.345V28.2188H149.056V35H147.524V26.6797H149.056V28.1484C149.066 27.9453 149.113 27.7552 149.196 27.5781C149.28 27.3958 149.389 27.2396 149.524 27.1094C149.665 26.974 149.826 26.8698 150.009 26.7969C150.191 26.7188 150.386 26.6797 150.595 26.6797H153.345C153.558 26.6797 153.759 26.7214 153.946 26.8047C154.134 26.8828 154.295 26.9922 154.431 27.1328C154.571 27.2682 154.681 27.4297 154.759 27.6172C154.842 27.8047 154.884 28.0052 154.884 28.2188V35ZM169.762 31.625H164.254V33.4609H169.762V35H164.254C164.046 35 163.848 34.9609 163.661 34.8828C163.473 34.7995 163.309 34.6901 163.168 34.5547C163.033 34.4141 162.924 34.25 162.84 34.0625C162.762 33.875 162.723 33.6745 162.723 33.4609V28.2188C162.723 28.0052 162.762 27.8047 162.84 27.6172C162.924 27.4297 163.033 27.2682 163.168 27.1328C163.309 26.9922 163.473 26.8828 163.661 26.8047C163.848 26.7214 164.046 26.6797 164.254 26.6797H168.223C168.437 26.6797 168.637 26.7214 168.825 26.8047C169.012 26.8828 169.174 26.9922 169.309 27.1328C169.45 27.2682 169.559 27.4297 169.637 27.6172C169.721 27.8047 169.762 28.0052 169.762 28.2188V31.625ZM164.254 28.2188V30.0859H168.223V28.2188H164.254ZM172.572 29.7188H176.315V31.2578H172.572V29.7188ZM185.719 28.2188V35H184.18V28.2188H180.656V35H179.125V26.6797H180.656V28.1484C180.667 27.9453 180.714 27.7552 180.797 27.5781C180.88 27.3958 180.99 27.2396 181.125 27.1094C181.266 26.974 181.427 26.8698 181.609 26.7969C181.792 26.7188 181.987 26.6797 182.195 26.6797H184.18C184.383 26.6797 184.576 26.7188 184.758 26.7969C184.94 26.8698 185.102 26.974 185.242 27.1094C185.383 27.2396 185.495 27.3958 185.578 27.5781C185.667 27.7552 185.714 27.9453 185.719 28.1484C185.729 27.9453 185.773 27.7552 185.852 27.5781C185.935 27.3958 186.044 27.2396 186.18 27.1094C186.32 26.974 186.482 26.8698 186.664 26.7969C186.846 26.7188 187.042 26.6797 187.25 26.6797H189.234C189.448 26.6797 189.648 26.7214 189.836 26.8047C190.023 26.8828 190.185 26.9922 190.32 27.1328C190.461 27.2682 190.57 27.4297 190.648 27.6172C190.732 27.8047 190.773 28.0052 190.773 28.2188V35H189.234V28.2188H185.719ZM193.584 31.3672C193.584 31.1536 193.623 30.9557 193.701 30.7734C193.784 30.5859 193.894 30.4219 194.029 30.2812C194.17 30.1406 194.334 30.0312 194.521 29.9531C194.709 29.8698 194.907 29.8281 195.115 29.8281H199.084V28.2188H194.06V26.6797H199.084C199.297 26.6797 199.498 26.7214 199.685 26.8047C199.873 26.8828 200.034 26.9922 200.17 27.1328C200.31 27.2682 200.42 27.4297 200.498 27.6172C200.581 27.8047 200.623 28.0052 200.623 28.2188V35H199.084V33.5938C199.068 33.7865 199.016 33.9688 198.927 34.1406C198.839 34.3125 198.724 34.4635 198.584 34.5938C198.448 34.7188 198.292 34.8177 198.115 34.8906C197.938 34.9635 197.75 35 197.552 35H195.115C194.907 35 194.709 34.9609 194.521 34.8828C194.334 34.7995 194.17 34.6901 194.029 34.5547C193.894 34.4141 193.784 34.25 193.701 34.0625C193.623 33.875 193.584 33.6745 193.584 33.4609V31.3672ZM195.115 33.4609H199.084V31.3672H195.115V33.4609ZM205.05 26.6797V35H203.511V26.6797H205.05ZM203.433 23.4766H205.128V25.0781H203.433V23.4766ZM209.47 23.4766V35H207.939V23.4766H209.47ZM217.872 30.8438L217.231 23.7969H219.403L218.762 30.8438H217.872ZM217.145 32.6641H219.481V35H217.145V32.6641Z" fill="black"/>
<path d="M140.954 14.0781L140.745 14.5325L140.753 14.5358L140.76 14.5389L140.954 14.0781ZM140.446 13.7344L140.093 14.088L140.099 14.0943L140.446 13.7344ZM140.103 13.2266L139.642 13.4206L139.644 13.425L140.103 13.2266ZM140.103 8.78125L140.561 8.97971L140.563 8.97528L140.103 8.78125ZM140.446 8.27344L140.793 8.63342L140.8 8.62699L140.446 8.27344ZM140.954 7.92969L141.153 8.38865L141.158 8.3861L140.954 7.92969ZM147.634 7.92969L147.425 8.38403L147.432 8.38738L147.44 8.39051L147.634 7.92969ZM148.149 8.27344L147.796 8.62705L147.802 8.63336L148.149 8.27344ZM148.493 8.78125L148.032 8.97529L148.034 8.97971L148.493 8.78125ZM148.618 10.8438V11.3438H149.118V10.8438H148.618ZM147.017 10.8438H146.517V11.3438H147.017V10.8438ZM147.017 9.39844H147.517V8.89844H147.017V9.39844ZM141.579 9.39844V8.89844H141.079V9.39844H141.579ZM141.579 12.6016H141.079V13.1016H141.579V12.6016ZM147.634 12.7266L147.435 13.1855L147.44 13.1874L147.634 12.7266ZM148.493 13.5859L148.032 13.78L148.034 13.7844L148.493 13.5859ZM148.493 18.0234L148.952 18.2219L148.954 18.2175L148.493 18.0234ZM147.634 18.875L147.44 18.4142L147.435 18.4161L147.634 18.875ZM140.798 18.875L140.599 19.3339L140.604 19.3358L140.798 18.875ZM140.29 18.5312L139.936 18.8848L140.29 18.5312ZM139.946 18.0234L139.485 18.2175L139.487 18.2219L139.946 18.0234ZM139.821 15.9609V15.4609H139.321V15.9609H139.821ZM141.423 15.9609H141.923V15.4609H141.423V15.9609ZM141.423 17.3984H140.923V17.8984H141.423V17.3984ZM147.017 17.3984V17.8984H147.517V17.3984H147.017ZM147.017 14.2031H147.517V13.7031H147.017V14.2031ZM141.579 13.7031C141.426 13.7031 141.283 13.6743 141.148 13.6173L140.76 14.5389C141.021 14.6486 141.295 14.7031 141.579 14.7031V13.7031ZM141.163 13.6238C141.019 13.5576 140.897 13.4743 140.793 13.3745L140.099 14.0943C140.287 14.2757 140.504 14.4216 140.745 14.5325L141.163 13.6238ZM140.8 13.3808C140.699 13.2804 140.62 13.164 140.561 13.0281L139.644 13.425C139.751 13.6745 139.901 13.8967 140.093 14.0879L140.8 13.3808ZM140.563 13.0325C140.506 12.8972 140.478 12.7549 140.478 12.6016H139.478C139.478 12.8857 139.532 13.1601 139.642 13.4206L140.563 13.0325ZM140.478 12.6016V9.39844H139.478V12.6016H140.478ZM140.478 9.39844C140.478 9.24503 140.506 9.10713 140.561 8.97971L139.644 8.58279C139.532 8.84078 139.478 9.11435 139.478 9.39844H140.478ZM140.563 8.97528C140.622 8.83599 140.699 8.72418 140.793 8.63336L140.099 7.91352C139.902 8.10395 139.75 8.33068 139.642 8.58722L140.563 8.97528ZM140.8 8.62699C140.9 8.52656 141.017 8.44738 141.153 8.38862L140.756 7.47076C140.506 7.57866 140.284 7.72865 140.093 7.91988L140.8 8.62699ZM141.158 8.3861C141.291 8.32655 141.43 8.29688 141.579 8.29688V7.29688C141.291 7.29688 141.013 7.35574 140.75 7.47328L141.158 8.3861ZM141.579 8.29688H147.017V7.29688H141.579V8.29688ZM147.017 8.29688C147.166 8.29688 147.3 8.32653 147.425 8.38403L147.843 7.47535C147.582 7.35576 147.305 7.29688 147.017 7.29688V8.29688ZM147.44 8.39051C147.581 8.44979 147.698 8.52878 147.796 8.62699L148.503 7.91988C148.309 7.72643 148.083 7.57625 147.828 7.46887L147.44 8.39051ZM147.802 8.63336C147.896 8.72418 147.974 8.83599 148.032 8.97528L148.954 8.58722C148.846 8.33068 148.694 8.10395 148.496 7.91352L147.802 8.63336ZM148.034 8.97971C148.089 9.10713 148.118 9.24503 148.118 9.39844H149.118C149.118 9.11435 149.064 8.84078 148.952 8.58279L148.034 8.97971ZM148.118 9.39844V10.8438H149.118V9.39844H148.118ZM148.618 10.3438H147.017V11.3438H148.618V10.3438ZM147.517 10.8438V9.39844H146.517V10.8438H147.517ZM147.017 8.89844H141.579V9.89844H147.017V8.89844ZM141.079 9.39844V12.6016H142.079V9.39844H141.079ZM141.579 13.1016H147.017V12.1016H141.579V13.1016ZM147.017 13.1016C147.17 13.1016 147.308 13.1304 147.435 13.1855L147.832 12.2676C147.574 12.1561 147.301 12.1016 147.017 12.1016V13.1016ZM147.44 13.1874C147.581 13.2467 147.698 13.3257 147.796 13.4239L148.503 12.7168C148.309 12.5233 148.083 12.3731 147.828 12.2657L147.44 13.1874ZM147.796 13.4239C147.894 13.5221 147.973 13.6392 148.032 13.78L148.954 13.3919C148.847 13.1369 148.696 12.9102 148.503 12.7168L147.796 13.4239ZM148.034 13.7844C148.089 13.9118 148.118 14.0497 148.118 14.2031H149.118C149.118 13.919 149.064 13.6455 148.952 13.3875L148.034 13.7844ZM148.118 14.2031V17.3984H149.118V14.2031H148.118ZM148.118 17.3984C148.118 17.5518 148.089 17.6941 148.032 17.8294L148.954 18.2175C149.064 17.957 149.118 17.6826 149.118 17.3984H148.118ZM148.034 17.825C147.975 17.9609 147.896 18.0773 147.796 18.1777L148.503 18.8848C148.694 18.6936 148.844 18.4714 148.952 18.2219L148.034 17.825ZM147.796 18.1777C147.698 18.2759 147.581 18.3549 147.44 18.4142L147.828 19.3358C148.083 19.2284 148.309 19.0783 148.503 18.8848L147.796 18.1777ZM147.435 18.4161C147.308 18.4712 147.17 18.5 147.017 18.5V19.5C147.301 19.5 147.574 19.4455 147.832 19.3339L147.435 18.4161ZM147.017 18.5H141.423V19.5H147.017V18.5ZM141.423 18.5C141.269 18.5 141.127 18.4712 140.992 18.4142L140.604 19.3358C140.864 19.4455 141.139 19.5 141.423 19.5V18.5ZM140.996 18.4161C140.86 18.3573 140.744 18.2781 140.644 18.1777L139.936 18.8848C140.128 19.076 140.35 19.226 140.599 19.3339L140.996 18.4161ZM140.644 18.1777C140.543 18.0773 140.464 17.9609 140.405 17.825L139.487 18.2219C139.595 18.4714 139.745 18.6936 139.936 18.8848L140.644 18.1777ZM140.407 17.8294C140.35 17.6941 140.321 17.5518 140.321 17.3984H139.321C139.321 17.6826 139.376 17.957 139.485 18.2175L140.407 17.8294ZM140.321 17.3984V15.9609H139.321V17.3984H140.321ZM139.821 16.4609H141.423V15.4609H139.821V16.4609ZM140.923 15.9609V17.3984H141.923V15.9609H140.923ZM141.423 17.8984H147.017V16.8984H141.423V17.8984ZM147.517 17.3984V14.2031H146.517V17.3984H147.517ZM147.017 13.7031H141.579V14.7031H147.017V13.7031ZM158.952 19V19.5H159.452V19H158.952ZM157.413 19H156.913V19.5H157.413V19ZM157.413 12.2188H157.913V11.7188H157.413V12.2188ZM153.124 12.2188V11.7188H152.624V12.2188H153.124ZM153.124 19V19.5H153.624V19H153.124ZM151.593 19H151.093V19.5H151.593V19ZM151.593 7.47656V6.97656H151.093V7.47656H151.593ZM153.124 7.47656H153.624V6.97656H153.124V7.47656ZM153.124 12.1484H152.624L153.623 12.174L153.124 12.1484ZM153.264 11.5781L153.717 11.791L153.719 11.786L153.264 11.5781ZM153.593 11.1094L153.939 11.4698L153.939 11.4695L153.593 11.1094ZM154.077 10.7969L154.263 11.2613L154.274 11.2564L154.077 10.7969ZM158.014 10.8047L157.811 11.2617L157.822 11.2662L158.014 10.8047ZM158.499 11.1328L158.139 11.4796L158.145 11.4864L158.152 11.493L158.499 11.1328ZM158.827 11.6172L158.365 11.8095L158.37 11.8203L158.827 11.6172ZM158.952 18.5H157.413V19.5H158.952V18.5ZM157.913 19V12.2188H156.913V19H157.913ZM157.413 11.7188H153.124V12.7188H157.413V11.7188ZM152.624 12.2188V19H153.624V12.2188H152.624ZM153.124 18.5H151.593V19.5H153.124V18.5ZM152.093 19V7.47656H151.093V19H152.093ZM151.593 7.97656H153.124V6.97656H151.593V7.97656ZM152.624 7.47656V12.1484H153.624V7.47656H152.624ZM153.623 12.174C153.63 12.0332 153.662 11.907 153.717 11.791L152.812 11.3652C152.7 11.6034 152.638 11.8574 152.624 12.1228L153.623 12.174ZM153.719 11.786C153.778 11.657 153.852 11.5536 153.939 11.4698L153.246 10.749C153.062 10.9256 152.917 11.1346 152.81 11.3702L153.719 11.786ZM153.939 11.4695C154.033 11.3791 154.14 11.3102 154.263 11.2611L153.891 10.3326C153.649 10.4294 153.433 10.5688 153.246 10.7492L153.939 11.4695ZM154.274 11.2564C154.391 11.2063 154.519 11.1797 154.663 11.1797V10.1797C154.39 10.1797 154.128 10.2312 153.88 10.3373L154.274 11.2564ZM154.663 11.1797H157.413V10.1797H154.663V11.1797ZM157.413 11.1797C157.559 11.1797 157.69 11.2078 157.811 11.2616L158.217 10.3478C157.963 10.2349 157.693 10.1797 157.413 10.1797V11.1797ZM157.822 11.2662C157.949 11.3191 158.053 11.3903 158.139 11.4796L158.859 10.786C158.674 10.594 158.455 10.4465 158.207 10.3431L157.822 11.2662ZM158.152 11.493C158.241 11.579 158.312 11.6826 158.365 11.8095L159.288 11.4249C159.185 11.1768 159.038 10.9575 158.846 10.7727L158.152 11.493ZM158.37 11.8203C158.424 11.9412 158.452 12.0723 158.452 12.2188H159.452C159.452 11.9382 159.397 11.6682 159.284 11.4141L158.37 11.8203ZM158.452 12.2188V19H159.452V12.2188H158.452ZM168.825 18.0625L168.368 17.8594L168.363 17.8702L168.825 18.0625ZM168.497 18.5547L168.85 18.9082L168.497 18.5547ZM168.012 18.8828L168.209 19.3424L168.215 19.3397L168.012 18.8828ZM162.692 18.8828L162.489 19.3398L162.5 19.3444L162.692 18.8828ZM162.2 18.5547L161.84 18.9015L161.846 18.9083L161.853 18.9148L162.2 18.5547ZM161.872 18.0625L161.41 18.2549L161.415 18.2656L161.872 18.0625ZM161.872 11.6172L161.415 11.4141L161.41 11.4249L161.872 11.6172ZM162.2 11.1328L161.846 10.7793L162.2 11.1328ZM162.692 10.8047L162.884 11.2664L162.895 11.2616L162.692 10.8047ZM168.012 10.8047L167.804 11.2594L167.812 11.263L167.82 11.2662L168.012 10.8047ZM168.497 11.1328L168.136 11.4796L168.143 11.4864L168.15 11.493L168.497 11.1328ZM168.825 11.6172L168.363 11.8095L168.368 11.8203L168.825 11.6172ZM163.286 12.2188V11.7188H162.786V12.2188H163.286ZM163.286 17.4609H162.786V17.9609H163.286V17.4609ZM167.418 17.4609V17.9609H167.918V17.4609H167.418ZM167.418 12.2188H167.918V11.7188H167.418V12.2188ZM168.45 17.4609C168.45 17.6074 168.422 17.7385 168.368 17.8594L169.282 18.2656C169.395 18.0115 169.45 17.7415 169.45 17.4609H168.45ZM168.363 17.8702C168.31 17.9987 168.236 18.1077 168.143 18.2011L168.85 18.9082C169.038 18.7204 169.184 18.5013 169.286 18.2548L168.363 17.8702ZM168.143 18.2011C168.054 18.2901 167.945 18.3657 167.809 18.4259L168.215 19.3397C168.455 19.2333 168.668 19.0901 168.85 18.9082L168.143 18.2011ZM167.815 18.4232C167.7 18.4727 167.57 18.5 167.418 18.5V19.5C167.694 19.5 167.96 19.4492 168.209 19.3424L167.815 18.4232ZM167.418 18.5H163.286V19.5H167.418V18.5ZM163.286 18.5C163.142 18.5 163.009 18.4734 162.884 18.4213L162.5 19.3444C162.75 19.4485 163.013 19.5 163.286 19.5V18.5ZM162.895 18.4259C162.758 18.365 162.643 18.2875 162.547 18.1945L161.853 18.9148C162.038 19.0927 162.251 19.234 162.489 19.3397L162.895 18.4259ZM162.56 18.2079C162.467 18.1113 162.389 17.9965 162.328 17.8594L161.415 18.2656C161.52 18.5035 161.662 18.7169 161.84 18.9015L162.56 18.2079ZM162.333 17.8702C162.282 17.7467 162.254 17.6119 162.254 17.4609H161.254C161.254 17.7371 161.305 18.0033 161.41 18.2548L162.333 17.8702ZM162.254 17.4609V12.2188H161.254V17.4609H162.254ZM162.254 12.2188C162.254 12.0678 162.282 11.933 162.333 11.8095L161.41 11.4249C161.305 11.6764 161.254 11.9426 161.254 12.2188H162.254ZM162.328 11.8203C162.389 11.6848 162.464 11.5754 162.553 11.4864L161.846 10.7793C161.664 10.9611 161.521 11.1746 161.415 11.4141L162.328 11.8203ZM162.553 11.4864C162.647 11.3929 162.756 11.3198 162.884 11.2662L162.5 10.3431C162.253 10.4458 162.034 10.5915 161.846 10.7793L162.553 11.4864ZM162.895 11.2616C163.018 11.2071 163.146 11.1797 163.286 11.1797V10.1797C163.008 10.1797 162.741 10.2356 162.489 10.3478L162.895 11.2616ZM163.286 11.1797H167.418V10.1797H163.286V11.1797ZM167.418 11.1797C167.565 11.1797 167.691 11.2078 167.804 11.2594L168.22 10.35C167.968 10.2349 167.699 10.1797 167.418 10.1797V11.1797ZM167.82 11.2662C167.947 11.3191 168.05 11.3903 168.136 11.4796L168.857 10.786C168.672 10.594 168.453 10.4465 168.204 10.3431L167.82 11.2662ZM168.15 11.493C168.239 11.579 168.31 11.6826 168.363 11.8095L169.286 11.4249C169.183 11.1768 169.035 10.9575 168.843 10.7727L168.15 11.493ZM168.368 11.8203C168.422 11.9412 168.45 12.0723 168.45 12.2188H169.45C169.45 11.9382 169.395 11.6682 169.282 11.4141L168.368 11.8203ZM168.45 12.2188V17.4609H169.45V12.2188H168.45ZM162.786 12.2188V17.4609H163.786V12.2188H162.786ZM163.286 17.9609H167.418V16.9609H163.286V17.9609ZM167.918 17.4609V12.2188H166.918V17.4609H167.918ZM167.418 11.7188H163.286V12.7188H167.418V11.7188ZM178.83 18.0625L178.373 17.8594L178.369 17.8702L178.83 18.0625ZM178.502 18.5547L178.856 18.9082L178.502 18.5547ZM178.018 18.8828L178.215 19.3424L178.221 19.3397L178.018 18.8828ZM172.698 18.8828L172.494 19.3398L172.505 19.3444L172.698 18.8828ZM172.205 18.5547L171.845 18.9015L171.852 18.9083L171.858 18.9148L172.205 18.5547ZM171.877 18.0625L171.416 18.2549L171.42 18.2656L171.877 18.0625ZM171.877 11.6172L171.42 11.4141L171.416 11.4249L171.877 11.6172ZM172.205 11.1328L171.852 10.7793L172.205 11.1328ZM172.698 10.8047L172.89 11.2664L172.901 11.2616L172.698 10.8047ZM178.018 10.8047L177.81 11.2594L177.818 11.263L177.826 11.2662L178.018 10.8047ZM178.502 11.1328L178.142 11.4796L178.149 11.4864L178.155 11.493L178.502 11.1328ZM178.83 11.6172L178.369 11.8095L178.373 11.8203L178.83 11.6172ZM173.291 12.2188V11.7188H172.791V12.2188H173.291ZM173.291 17.4609H172.791V17.9609H173.291V17.4609ZM177.424 17.4609V17.9609H177.924V17.4609H177.424ZM177.424 12.2188H177.924V11.7188H177.424V12.2188ZM178.455 17.4609C178.455 17.6074 178.427 17.7385 178.373 17.8594L179.287 18.2656C179.4 18.0115 179.455 17.7415 179.455 17.4609H178.455ZM178.369 17.8702C178.315 17.9987 178.242 18.1077 178.149 18.2011L178.856 18.9082C179.044 18.7204 179.189 18.5013 179.292 18.2548L178.369 17.8702ZM178.149 18.2011C178.06 18.2901 177.95 18.3657 177.815 18.4259L178.221 19.3397C178.46 19.2333 178.674 19.0901 178.856 18.9082L178.149 18.2011ZM177.821 18.4232C177.705 18.4727 177.575 18.5 177.424 18.5V19.5C177.7 19.5 177.966 19.4492 178.215 19.3424L177.821 18.4232ZM177.424 18.5H173.291V19.5H177.424V18.5ZM173.291 18.5C173.147 18.5 173.015 18.4734 172.89 18.4213L172.505 19.3444C172.755 19.4485 173.019 19.5 173.291 19.5V18.5ZM172.901 18.4259C172.764 18.365 172.649 18.2875 172.552 18.1945L171.858 18.9148C172.043 19.0927 172.256 19.234 172.494 19.3397L172.901 18.4259ZM172.565 18.2079C172.472 18.1113 172.395 17.9965 172.334 17.8594L171.42 18.2656C171.526 18.5035 171.667 18.7169 171.845 18.9015L172.565 18.2079ZM172.339 17.8702C172.287 17.7467 172.26 17.6119 172.26 17.4609H171.26C171.26 17.7371 171.311 18.0033 171.416 18.2548L172.339 17.8702ZM172.26 17.4609V12.2188H171.26V17.4609H172.26ZM172.26 12.2188C172.26 12.0678 172.287 11.933 172.339 11.8095L171.416 11.4249C171.311 11.6764 171.26 11.9426 171.26 12.2188H172.26ZM172.334 11.8203C172.394 11.6848 172.47 11.5754 172.559 11.4864L171.852 10.7793C171.67 10.9611 171.527 11.1746 171.42 11.4141L172.334 11.8203ZM172.559 11.4864C172.652 11.3929 172.761 11.3198 172.89 11.2662L172.505 10.3431C172.259 10.4458 172.04 10.5915 171.852 10.7793L172.559 11.4864ZM172.901 11.2616C173.023 11.2071 173.152 11.1797 173.291 11.1797V10.1797C173.014 10.1797 172.747 10.2356 172.494 10.3478L172.901 11.2616ZM173.291 11.1797H177.424V10.1797H173.291V11.1797ZM177.424 11.1797C177.571 11.1797 177.697 11.2078 177.81 11.2594L178.226 10.35C177.974 10.2349 177.705 10.1797 177.424 10.1797V11.1797ZM177.826 11.2662C177.952 11.3191 178.056 11.3903 178.142 11.4796L178.862 10.786C178.678 10.594 178.458 10.4465 178.21 10.3431L177.826 11.2662ZM178.155 11.493C178.245 11.579 178.316 11.6826 178.369 11.8095L179.292 11.4249C179.188 11.1768 179.041 10.9575 178.849 10.7727L178.155 11.493ZM178.373 11.8203C178.427 11.9412 178.455 12.0723 178.455 12.2188H179.455C179.455 11.9382 179.4 11.6682 179.287 11.4141L178.373 11.8203ZM178.455 12.2188V17.4609H179.455V12.2188H178.455ZM172.791 12.2188V17.4609H173.791V12.2188H172.791ZM173.291 17.9609H177.424V16.9609H173.291V17.9609ZM177.924 17.4609V12.2188H176.924V17.4609H177.924ZM177.424 11.7188H173.291V12.7188H177.424V11.7188ZM181.281 10.6797V10.1797H180.781V10.6797H181.281ZM183.312 10.6797V11.1797H183.812V10.6797H183.312ZM183.312 8.11719V7.61719H182.812V8.11719H183.312ZM184.852 8.11719H185.352V7.61719H184.852V8.11719ZM184.852 10.6797H184.352V11.1797H184.852V10.6797ZM187.586 10.6797H188.086V10.1797H187.586V10.6797ZM187.586 12.2188V12.7188H188.086V12.2188H187.586ZM184.852 12.2188V11.7188H184.352V12.2188H184.852ZM184.852 17.4609H184.352V17.9609H184.852V17.4609ZM187.586 17.4609H188.086V16.9609H187.586V17.4609ZM187.586 19V19.5H188.086V19H187.586ZM184.258 18.8828L184.055 19.3398L184.066 19.3444L184.258 18.8828ZM183.766 18.5547L183.412 18.9083L183.419 18.9148L183.766 18.5547ZM183.43 18.0625L182.968 18.2549L182.973 18.2656L183.43 18.0625ZM183.312 12.2188H183.812V11.7188H183.312V12.2188ZM181.281 12.2188H180.781V12.7188H181.281V12.2188ZM181.281 11.1797H183.312V10.1797H181.281V11.1797ZM183.812 10.6797V8.11719H182.812V10.6797H183.812ZM183.312 8.61719H184.852V7.61719H183.312V8.61719ZM184.352 8.11719V10.6797H185.352V8.11719H184.352ZM184.852 11.1797H187.586V10.1797H184.852V11.1797ZM187.086 10.6797V12.2188H188.086V10.6797H187.086ZM187.586 11.7188H184.852V12.7188H187.586V11.7188ZM184.352 12.2188V17.4609H185.352V12.2188H184.352ZM184.852 17.9609H187.586V16.9609H184.852V17.9609ZM187.086 17.4609V19H188.086V17.4609H187.086ZM187.586 18.5H184.852V19.5H187.586V18.5ZM184.852 18.5C184.708 18.5 184.575 18.4734 184.45 18.4213L184.066 19.3444C184.316 19.4485 184.579 19.5 184.852 19.5V18.5ZM184.461 18.4259C184.324 18.365 184.209 18.2875 184.112 18.1945L183.419 18.9148C183.603 19.0927 183.817 19.234 184.055 19.3397L184.461 18.4259ZM184.119 18.2011C184.023 18.1053 183.946 17.9927 183.887 17.8594L182.973 18.2656C183.08 18.5073 183.227 18.7228 183.412 18.9082L184.119 18.2011ZM183.891 17.8702C183.84 17.7467 183.812 17.6119 183.812 17.4609H182.812C182.812 17.7371 182.863 18.0033 182.968 18.2548L183.891 17.8702ZM183.812 17.4609V12.2188H182.812V17.4609H183.812ZM183.312 11.7188H181.281V12.7188H183.312V11.7188ZM181.781 12.2188V10.6797H180.781V12.2188H181.781ZM202.027 12.2188V11.7188H201.527V12.2188H202.027ZM202.027 19V19.5H202.527V19H202.027ZM200.488 19H199.988V19.5H200.488V19ZM200.488 12.2188H200.988V11.7188H200.488V12.2188ZM196.964 12.2188V11.7188H196.464V12.2188H196.964ZM196.964 19V19.5H197.464V19H196.964ZM195.433 19H194.933V19.5H195.433V19ZM195.433 10.6797V10.1797H194.933V10.6797H195.433ZM196.964 10.6797H197.464V10.1797H196.964V10.6797ZM196.964 12.1484H196.464L197.464 12.174L196.964 12.1484ZM197.105 11.5781L197.557 11.791L197.56 11.786L197.105 11.5781ZM197.433 11.1094L197.78 11.4698L197.78 11.4695L197.433 11.1094ZM197.917 10.7969L198.103 11.2613L198.114 11.2564L197.917 10.7969ZM201.066 10.7969L200.869 11.2566L200.88 11.2611L201.066 10.7969ZM201.55 11.1094L201.203 11.4696L201.211 11.4763L201.55 11.1094ZM201.886 11.5781L201.432 11.786L201.435 11.7939L201.439 11.8017L201.886 11.5781ZM202.027 12.1484L201.527 12.1613L202.526 12.174L202.027 12.1484ZM202.16 11.5781L201.705 11.3702L201.702 11.3763L202.16 11.5781ZM202.488 11.1094L202.834 11.4698L202.835 11.4695L202.488 11.1094ZM202.972 10.7969L203.158 11.2613L203.169 11.2564L202.972 10.7969ZM206.144 10.8047L205.941 11.2617L205.952 11.2662L206.144 10.8047ZM206.628 11.1328L206.268 11.4796L206.275 11.4864L206.282 11.493L206.628 11.1328ZM206.957 11.6172L206.495 11.8095L206.5 11.8203L206.957 11.6172ZM207.082 19V19.5H207.582V19H207.082ZM205.542 19H205.042V19.5H205.542V19ZM205.542 12.2188H206.042V11.7188H205.542V12.2188ZM201.527 12.2188V19H202.527V12.2188H201.527ZM202.027 18.5H200.488V19.5H202.027V18.5ZM200.988 19V12.2188H199.988V19H200.988ZM200.488 11.7188H196.964V12.7188H200.488V11.7188ZM196.464 12.2188V19H197.464V12.2188H196.464ZM196.964 18.5H195.433V19.5H196.964V18.5ZM195.933 19V10.6797H194.933V19H195.933ZM195.433 11.1797H196.964V10.1797H195.433V11.1797ZM196.464 10.6797V12.1484H197.464V10.6797H196.464ZM197.464 12.174C197.471 12.0332 197.503 11.907 197.557 11.791L196.653 11.3652C196.541 11.6034 196.479 11.8574 196.465 12.1228L197.464 12.174ZM197.56 11.786C197.619 11.657 197.693 11.5536 197.78 11.4698L197.087 10.749C196.903 10.9256 196.758 11.1346 196.65 11.3702L197.56 11.786ZM197.78 11.4695C197.874 11.3791 197.98 11.3102 198.103 11.2611L197.732 10.3326C197.49 10.4294 197.274 10.5688 197.086 10.7492L197.78 11.4695ZM198.114 11.2564C198.231 11.2063 198.359 11.1797 198.503 11.1797V10.1797C198.231 10.1797 197.968 10.2312 197.721 10.3373L198.114 11.2564ZM198.503 11.1797H200.488V10.1797H198.503V11.1797ZM200.488 11.1797C200.625 11.1797 200.75 11.2056 200.869 11.2564L201.263 10.3373C201.017 10.2319 200.757 10.1797 200.488 10.1797V11.1797ZM200.88 11.2611C201.003 11.3102 201.11 11.3791 201.203 11.4695L201.897 10.7492C201.71 10.5688 201.493 10.4294 201.252 10.3326L200.88 11.2611ZM201.211 11.4763C201.301 11.5595 201.374 11.661 201.432 11.786L202.341 11.3702C202.231 11.1307 202.081 10.9196 201.89 10.7425L201.211 11.4763ZM201.439 11.8017C201.494 11.9115 201.524 12.0294 201.527 12.1613L202.527 12.1356C202.52 11.8612 202.456 11.5989 202.333 11.3545L201.439 11.8017ZM202.526 12.174C202.534 12.0286 202.565 11.8985 202.617 11.7799L201.702 11.3763C201.598 11.6119 201.541 11.862 201.528 12.1228L202.526 12.174ZM202.614 11.786C202.673 11.657 202.747 11.5536 202.834 11.4698L202.141 10.749C201.958 10.9256 201.813 11.1346 201.705 11.3702L202.614 11.786ZM202.835 11.4695C202.928 11.3791 203.035 11.3102 203.158 11.2611L202.786 10.3326C202.545 10.4294 202.328 10.5688 202.141 10.7492L202.835 11.4695ZM203.169 11.2564C203.286 11.2063 203.414 11.1797 203.558 11.1797V10.1797C203.286 10.1797 203.023 10.2312 202.775 10.3373L203.169 11.2564ZM203.558 11.1797H205.542V10.1797H203.558V11.1797ZM205.542 11.1797C205.689 11.1797 205.82 11.2078 205.941 11.2616L206.347 10.3478C206.093 10.2349 205.823 10.1797 205.542 10.1797V11.1797ZM205.952 11.2662C206.079 11.3191 206.182 11.3903 206.268 11.4796L206.989 10.786C206.804 10.594 206.584 10.4465 206.336 10.3431L205.952 11.2662ZM206.282 11.493C206.371 11.579 206.442 11.6826 206.495 11.8095L207.418 11.4249C207.315 11.1768 207.167 10.9575 206.975 10.7727L206.282 11.493ZM206.5 11.8203C206.553 11.9412 206.582 12.0723 206.582 12.2188H207.582C207.582 11.9382 207.526 11.6682 207.413 11.4141L206.5 11.8203ZM206.582 12.2188V19H207.582V12.2188H206.582ZM207.082 18.5H205.542V19.5H207.082V18.5ZM206.042 19V12.2188H205.042V19H206.042ZM205.542 11.7188H202.027V12.7188H205.542V11.7188ZM216.931 15.625V16.125H217.431V15.625H216.931ZM211.423 15.625V15.125H210.923V15.625H211.423ZM211.423 17.4609H210.923V17.9609H211.423V17.4609ZM216.931 17.4609H217.431V16.9609H216.931V17.4609ZM216.931 19V19.5H217.431V19H216.931ZM210.829 18.8828L210.626 19.3398L210.637 19.3444L210.829 18.8828ZM210.337 18.5547L209.977 18.9015L209.984 18.9083L209.99 18.9148L210.337 18.5547ZM210.009 18.0625L209.547 18.2549L209.552 18.2656L210.009 18.0625ZM210.009 11.6172L209.552 11.4141L209.548 11.4249L210.009 11.6172ZM210.337 11.1328L209.984 10.7793L210.337 11.1328ZM210.829 10.8047L211.022 11.2664L211.032 11.2616L210.829 10.8047ZM215.993 10.8047L215.79 11.2617L215.801 11.2662L215.993 10.8047ZM216.478 11.1328L216.118 11.4796L216.124 11.4864L216.131 11.493L216.478 11.1328ZM216.806 11.6172L216.344 11.8095L216.349 11.8203L216.806 11.6172ZM211.423 12.2188V11.7188H210.923V12.2188H211.423ZM211.423 14.0859H210.923V14.5859H211.423V14.0859ZM215.392 14.0859V14.5859H215.892V14.0859H215.392ZM215.392 12.2188H215.892V11.7188H215.392V12.2188ZM216.931 15.125H211.423V16.125H216.931V15.125ZM210.923 15.625V17.4609H211.923V15.625H210.923ZM211.423 17.9609H216.931V16.9609H211.423V17.9609ZM216.431 17.4609V19H217.431V17.4609H216.431ZM216.931 18.5H211.423V19.5H216.931V18.5ZM211.423 18.5C211.279 18.5 211.147 18.4734 211.022 18.4213L210.637 19.3444C210.887 19.4485 211.151 19.5 211.423 19.5V18.5ZM211.032 18.4259C210.895 18.365 210.781 18.2875 210.684 18.1945L209.99 18.9148C210.175 19.0927 210.388 19.234 210.626 19.3397L211.032 18.4259ZM210.697 18.2079C210.604 18.1113 210.527 17.9965 210.466 17.8594L209.552 18.2656C209.658 18.5035 209.799 18.7169 209.977 18.9015L210.697 18.2079ZM210.471 17.8702C210.419 17.7467 210.392 17.6119 210.392 17.4609H209.392C209.392 17.7371 209.443 18.0033 209.548 18.2548L210.471 17.8702ZM210.392 17.4609V12.2188H209.392V17.4609H210.392ZM210.392 12.2188C210.392 12.0678 210.419 11.933 210.471 11.8095L209.548 11.4249C209.443 11.6764 209.392 11.9426 209.392 12.2188H210.392ZM210.466 11.8203C210.526 11.6848 210.602 11.5754 210.691 11.4864L209.984 10.7793C209.802 10.9611 209.659 11.1746 209.552 11.4141L210.466 11.8203ZM210.691 11.4864C210.784 11.3929 210.893 11.3198 211.022 11.2662L210.637 10.3431C210.391 10.4458 210.171 10.5915 209.984 10.7793L210.691 11.4864ZM211.032 11.2616C211.155 11.2071 211.284 11.1797 211.423 11.1797V10.1797C211.146 10.1797 210.879 10.2356 210.626 10.3478L211.032 11.2616ZM211.423 11.1797H215.392V10.1797H211.423V11.1797ZM215.392 11.1797C215.538 11.1797 215.669 11.2078 215.79 11.2616L216.197 10.3478C215.942 10.2349 215.672 10.1797 215.392 10.1797V11.1797ZM215.801 11.2662C215.928 11.3191 216.032 11.3903 216.118 11.4796L216.838 10.786C216.653 10.594 216.434 10.4465 216.186 10.3431L215.801 11.2662ZM216.131 11.493C216.22 11.579 216.292 11.6826 216.344 11.8095L217.267 11.4249C217.164 11.1768 217.017 10.9575 216.825 10.7727L216.131 11.493ZM216.349 11.8203C216.403 11.9412 216.431 12.0723 216.431 12.2188H217.431C217.431 11.9382 217.376 11.6682 217.263 11.4141L216.349 11.8203ZM216.431 12.2188V15.625H217.431V12.2188H216.431ZM210.923 12.2188V14.0859H211.923V12.2188H210.923ZM211.423 14.5859H215.392V13.5859H211.423V14.5859ZM215.892 14.0859V12.2188H214.892V14.0859H215.892ZM215.392 11.7188H211.423V12.7188H215.392V11.7188ZM137.792 30.7734L137.335 30.5704L137.333 30.5765L137.792 30.7734ZM138.12 30.2812L137.767 29.9276L137.76 29.9344L138.12 30.2812ZM138.612 29.9531L138.805 30.4148L138.816 30.41L138.612 29.9531ZM143.175 29.8281V30.3281H143.675V29.8281H143.175ZM143.175 28.2188H143.675V27.7188H143.175V28.2188ZM138.152 28.2188H137.652V28.7188H138.152V28.2188ZM138.152 26.6797V26.1797H137.652V26.6797H138.152ZM143.777 26.8047L143.573 27.2617L143.584 27.2662L143.777 26.8047ZM144.261 27.1328L143.901 27.4796L143.907 27.4864L143.914 27.493L144.261 27.1328ZM144.589 27.6172L144.127 27.8095L144.132 27.8203L144.589 27.6172ZM144.714 35V35.5H145.214V35H144.714ZM143.175 35H142.675V35.5H143.175V35ZM143.175 33.5938H143.675L142.677 33.5533L143.175 33.5938ZM142.675 34.5938L143.014 34.9612L143.015 34.9606L142.675 34.5938ZM138.612 34.8828L138.409 35.3398L138.42 35.3444L138.612 34.8828ZM138.12 34.5547L137.76 34.9015L137.767 34.9083L137.773 34.9148L138.12 34.5547ZM137.792 34.0625L137.331 34.2549L137.335 34.2656L137.792 34.0625ZM139.206 33.4609H138.706V33.9609H139.206V33.4609ZM143.175 33.4609V33.9609H143.675V33.4609H143.175ZM143.175 31.3672H143.675V30.8672H143.175V31.3672ZM139.206 31.3672V30.8672H138.706V31.3672H139.206ZM138.175 31.3672C138.175 31.2161 138.202 31.0858 138.252 30.9704L137.333 30.5765C137.226 30.8257 137.175 31.0912 137.175 31.3672H138.175ZM138.249 30.9765C138.31 30.8394 138.387 30.7247 138.48 30.6281L137.76 29.9344C137.582 30.1191 137.441 30.3324 137.335 30.5704L138.249 30.9765ZM138.474 30.6348C138.567 30.5414 138.676 30.4682 138.805 30.4147L138.42 29.4916C138.174 29.5943 137.955 29.7399 137.767 29.9277L138.474 30.6348ZM138.816 30.41C138.938 30.3556 139.067 30.3281 139.206 30.3281V29.3281C138.929 29.3281 138.662 29.384 138.409 29.4962L138.816 30.41ZM139.206 30.3281H143.175V29.3281H139.206V30.3281ZM143.675 29.8281V28.2188H142.675V29.8281H143.675ZM143.175 27.7188H138.152V28.7188H143.175V27.7188ZM138.652 28.2188V26.6797H137.652V28.2188H138.652ZM138.152 27.1797H143.175V26.1797H138.152V27.1797ZM143.175 27.1797C143.321 27.1797 143.453 27.2078 143.573 27.2616L143.98 26.3478C143.726 26.2349 143.456 26.1797 143.175 26.1797V27.1797ZM143.584 27.2662C143.711 27.3191 143.815 27.3903 143.901 27.4796L144.621 26.786C144.436 26.594 144.217 26.4465 143.969 26.3431L143.584 27.2662ZM143.914 27.493C144.003 27.579 144.075 27.6826 144.128 27.8095L145.051 27.4249C144.947 27.1768 144.8 26.9575 144.608 26.7727L143.914 27.493ZM144.132 27.8203C144.186 27.9412 144.214 28.0723 144.214 28.2188H145.214C145.214 27.9382 145.159 27.6682 145.046 27.4141L144.132 27.8203ZM144.214 28.2188V35H145.214V28.2188H144.214ZM144.714 34.5H143.175V35.5H144.714V34.5ZM143.675 35V33.5938H142.675V35H143.675ZM142.677 33.5533C142.666 33.6803 142.633 33.7985 142.574 33.9116L143.463 34.3696C143.582 34.139 143.652 33.8927 143.673 33.6342L142.677 33.5533ZM142.574 33.9116C142.512 34.0323 142.433 34.1365 142.335 34.2269L143.015 34.9606C143.198 34.7905 143.348 34.5927 143.463 34.3696L142.574 33.9116ZM142.336 34.2263C142.246 34.3096 142.14 34.377 142.016 34.4283L142.397 35.353C142.626 35.2584 142.833 35.1279 143.014 34.9612L142.336 34.2263ZM142.016 34.4283C141.901 34.4755 141.779 34.5 141.644 34.5V35.5C141.905 35.5 142.157 35.4516 142.397 35.353L142.016 34.4283ZM141.644 34.5H139.206V35.5H141.644V34.5ZM139.206 34.5C139.062 34.5 138.93 34.4734 138.805 34.4213L138.42 35.3444C138.67 35.4485 138.934 35.5 139.206 35.5V34.5ZM138.816 34.4259C138.679 34.365 138.564 34.2875 138.467 34.1945L137.773 34.9148C137.958 35.0927 138.171 35.234 138.409 35.3397L138.816 34.4259ZM138.48 34.2079C138.387 34.1113 138.31 33.9965 138.249 33.8594L137.335 34.2656C137.441 34.5035 137.582 34.7169 137.76 34.9015L138.48 34.2079ZM138.254 33.8702C138.202 33.7467 138.175 33.6119 138.175 33.4609H137.175C137.175 33.7371 137.226 34.0033 137.331 34.2548L138.254 33.8702ZM138.175 33.4609V31.3672H137.175V33.4609H138.175ZM139.206 33.9609H143.175V32.9609H139.206V33.9609ZM143.675 33.4609V31.3672H142.675V33.4609H143.675ZM143.175 30.8672H139.206V31.8672H143.175V30.8672ZM138.706 31.3672V33.4609H139.706V31.3672H138.706ZM154.884 35V35.5H155.384V35H154.884ZM153.345 35H152.845V35.5H153.345V35ZM153.345 28.2188H153.845V27.7188H153.345V28.2188ZM149.056 28.2188V27.7188H148.556V28.2188H149.056ZM149.056 35V35.5H149.556V35H149.056ZM147.524 35H147.024V35.5H147.524V35ZM147.524 26.6797V26.1797H147.024V26.6797H147.524ZM149.056 26.6797H149.556V26.1797H149.056V26.6797ZM149.056 28.1484H148.556L149.555 28.174L149.056 28.1484ZM149.196 27.5781L149.649 27.791L149.651 27.786L149.196 27.5781ZM149.524 27.1094L149.871 27.4698L149.871 27.4695L149.524 27.1094ZM150.009 26.7969L150.194 27.2613L150.206 27.2564L150.009 26.7969ZM153.946 26.8047L153.743 27.2617L153.754 27.2662L153.946 26.8047ZM154.431 27.1328L154.07 27.4796L154.077 27.4864L154.084 27.493L154.431 27.1328ZM154.759 27.6172L154.297 27.8095L154.302 27.8203L154.759 27.6172ZM154.884 34.5H153.345V35.5H154.884V34.5ZM153.845 35V28.2188H152.845V35H153.845ZM153.345 27.7188H149.056V28.7188H153.345V27.7188ZM148.556 28.2188V35H149.556V28.2188H148.556ZM149.056 34.5H147.524V35.5H149.056V34.5ZM148.024 35V26.6797H147.024V35H148.024ZM147.524 27.1797H149.056V26.1797H147.524V27.1797ZM148.556 26.6797V28.1484H149.556V26.6797H148.556ZM149.555 28.174C149.562 28.0332 149.594 27.907 149.649 27.791L148.744 27.3652C148.632 27.6034 148.57 27.8574 148.556 28.1228L149.555 28.174ZM149.651 27.786C149.71 27.657 149.784 27.5536 149.871 27.4698L149.178 26.749C148.994 26.9256 148.849 27.1346 148.742 27.3702L149.651 27.786ZM149.871 27.4695C149.965 27.3791 150.072 27.3102 150.194 27.2611L149.823 26.3326C149.581 26.4294 149.365 26.5688 149.178 26.7492L149.871 27.4695ZM150.206 27.2564C150.323 27.2063 150.451 27.1797 150.595 27.1797V26.1797C150.322 26.1797 150.059 26.2312 149.812 26.3373L150.206 27.2564ZM150.595 27.1797H153.345V26.1797H150.595V27.1797ZM153.345 27.1797C153.491 27.1797 153.622 27.2078 153.743 27.2616L154.149 26.3478C153.895 26.2349 153.625 26.1797 153.345 26.1797V27.1797ZM153.754 27.2662C153.881 27.3191 153.984 27.3903 154.07 27.4796L154.791 26.786C154.606 26.594 154.387 26.4465 154.139 26.3431L153.754 27.2662ZM154.084 27.493C154.173 27.579 154.244 27.6826 154.297 27.8095L155.22 27.4249C155.117 27.1768 154.969 26.9575 154.777 26.7727L154.084 27.493ZM154.302 27.8203C154.356 27.9412 154.384 28.0723 154.384 28.2188H155.384C155.384 27.9382 155.329 27.6682 155.216 27.4141L154.302 27.8203ZM154.384 28.2188V35H155.384V28.2188H154.384ZM169.762 31.625V32.125H170.262V31.625H169.762ZM164.254 31.625V31.125H163.754V31.625H164.254ZM164.254 33.4609H163.754V33.9609H164.254V33.4609ZM169.762 33.4609H170.262V32.9609H169.762V33.4609ZM169.762 35V35.5H170.262V35H169.762ZM163.661 34.8828L163.457 35.3398L163.468 35.3444L163.661 34.8828ZM163.168 34.5547L162.808 34.9015L162.815 34.9083L162.822 34.9148L163.168 34.5547ZM162.84 34.0625L162.379 34.2549L162.383 34.2656L162.84 34.0625ZM162.84 27.6172L162.383 27.4141L162.379 27.4249L162.84 27.6172ZM163.168 27.1328L162.815 26.7793L163.168 27.1328ZM163.661 26.8047L163.853 27.2664L163.864 27.2616L163.661 26.8047ZM168.825 26.8047L168.622 27.2617L168.632 27.2662L168.825 26.8047ZM169.309 27.1328L168.949 27.4796L168.955 27.4864L168.962 27.493L169.309 27.1328ZM169.637 27.6172L169.176 27.8095L169.18 27.8203L169.637 27.6172ZM164.254 28.2188V27.7188H163.754V28.2188H164.254ZM164.254 30.0859H163.754V30.5859H164.254V30.0859ZM168.223 30.0859V30.5859H168.723V30.0859H168.223ZM168.223 28.2188H168.723V27.7188H168.223V28.2188ZM169.762 31.125H164.254V32.125H169.762V31.125ZM163.754 31.625V33.4609H164.754V31.625H163.754ZM164.254 33.9609H169.762V32.9609H164.254V33.9609ZM169.262 33.4609V35H170.262V33.4609H169.262ZM169.762 34.5H164.254V35.5H169.762V34.5ZM164.254 34.5C164.11 34.5 163.978 34.4734 163.853 34.4213L163.468 35.3444C163.718 35.4485 163.982 35.5 164.254 35.5V34.5ZM163.864 34.4259C163.727 34.365 163.612 34.2875 163.515 34.1945L162.822 34.9148C163.006 35.0927 163.22 35.234 163.458 35.3397L163.864 34.4259ZM163.529 34.2079C163.436 34.1113 163.358 33.9965 163.297 33.8594L162.383 34.2656C162.489 34.5035 162.63 34.7169 162.808 34.9015L163.529 34.2079ZM163.302 33.8702C163.25 33.7467 163.223 33.6119 163.223 33.4609H162.223C162.223 33.7371 162.274 34.0033 162.379 34.2548L163.302 33.8702ZM163.223 33.4609V28.2188H162.223V33.4609H163.223ZM163.223 28.2188C163.223 28.0678 163.25 27.933 163.302 27.8095L162.379 27.4249C162.274 27.6764 162.223 27.9426 162.223 28.2188H163.223ZM163.297 27.8203C163.357 27.6848 163.433 27.5754 163.522 27.4864L162.815 26.7793C162.633 26.9611 162.49 27.1746 162.383 27.4141L163.297 27.8203ZM163.522 27.4864C163.615 27.3929 163.724 27.3198 163.853 27.2662L163.468 26.3431C163.222 26.4458 163.003 26.5915 162.815 26.7793L163.522 27.4864ZM163.864 27.2616C163.986 27.2071 164.115 27.1797 164.254 27.1797V26.1797C163.977 26.1797 163.71 26.2356 163.458 26.3478L163.864 27.2616ZM164.254 27.1797H168.223V26.1797H164.254V27.1797ZM168.223 27.1797C168.37 27.1797 168.501 27.2078 168.622 27.2616L169.028 26.3478C168.774 26.2349 168.504 26.1797 168.223 26.1797V27.1797ZM168.632 27.2662C168.759 27.3191 168.863 27.3903 168.949 27.4796L169.669 26.786C169.484 26.594 169.265 26.4465 169.017 26.3431L168.632 27.2662ZM168.962 27.493C169.052 27.579 169.123 27.6826 169.176 27.8095L170.099 27.4249C169.995 27.1768 169.848 26.9575 169.656 26.7727L168.962 27.493ZM169.18 27.8203C169.234 27.9412 169.262 28.0723 169.262 28.2188H170.262C170.262 27.9382 170.207 27.6682 170.094 27.4141L169.18 27.8203ZM169.262 28.2188V31.625H170.262V28.2188H169.262ZM163.754 28.2188V30.0859H164.754V28.2188H163.754ZM164.254 30.5859H168.223V29.5859H164.254V30.5859ZM168.723 30.0859V28.2188H167.723V30.0859H168.723ZM168.223 27.7188H164.254V28.7188H168.223V27.7188ZM172.572 29.7188V29.2188H172.072V29.7188H172.572ZM176.315 29.7188H176.815V29.2188H176.315V29.7188ZM176.315 31.2578V31.7578H176.815V31.2578H176.315ZM172.572 31.2578H172.072V31.7578H172.572V31.2578ZM172.572 30.2188H176.315V29.2188H172.572V30.2188ZM175.815 29.7188V31.2578H176.815V29.7188H175.815ZM176.315 30.7578H172.572V31.7578H176.315V30.7578ZM173.072 31.2578V29.7188H172.072V31.2578H173.072ZM185.719 28.2188V27.7188H185.219V28.2188H185.719ZM185.719 35V35.5H186.219V35H185.719ZM184.18 35H183.68V35.5H184.18V35ZM184.18 28.2188H184.68V27.7188H184.18V28.2188ZM180.656 28.2188V27.7188H180.156V28.2188H180.656ZM180.656 35V35.5H181.156V35H180.656ZM179.125 35H178.625V35.5H179.125V35ZM179.125 26.6797V26.1797H178.625V26.6797H179.125ZM180.656 26.6797H181.156V26.1797H180.656V26.6797ZM180.656 28.1484H180.156L181.156 28.174L180.656 28.1484ZM180.797 27.5781L181.249 27.791L181.252 27.786L180.797 27.5781ZM181.125 27.1094L181.472 27.4698L181.472 27.4695L181.125 27.1094ZM181.609 26.7969L181.795 27.2613L181.806 27.2564L181.609 26.7969ZM184.758 26.7969L184.561 27.2566L184.572 27.2611L184.758 26.7969ZM185.242 27.1094L184.895 27.4696L184.902 27.4763L185.242 27.1094ZM185.578 27.5781L185.123 27.786L185.127 27.7939L185.131 27.8017L185.578 27.5781ZM185.719 28.1484L185.219 28.1613L186.218 28.174L185.719 28.1484ZM185.852 27.5781L185.397 27.3702L185.394 27.3763L185.852 27.5781ZM186.18 27.1094L186.526 27.4698L186.527 27.4695L186.18 27.1094ZM186.664 26.7969L186.85 27.2613L186.861 27.2564L186.664 26.7969ZM189.836 26.8047L189.633 27.2617L189.644 27.2662L189.836 26.8047ZM190.32 27.1328L189.96 27.4796L189.967 27.4864L189.973 27.493L190.32 27.1328ZM190.648 27.6172L190.187 27.8095L190.192 27.8203L190.648 27.6172ZM190.773 35V35.5H191.273V35H190.773ZM189.234 35H188.734V35.5H189.234V35ZM189.234 28.2188H189.734V27.7188H189.234V28.2188ZM185.219 28.2188V35H186.219V28.2188H185.219ZM185.719 34.5H184.18V35.5H185.719V34.5ZM184.68 35V28.2188H183.68V35H184.68ZM184.18 27.7188H180.656V28.7188H184.18V27.7188ZM180.156 28.2188V35H181.156V28.2188H180.156ZM180.656 34.5H179.125V35.5H180.656V34.5ZM179.625 35V26.6797H178.625V35H179.625ZM179.125 27.1797H180.656V26.1797H179.125V27.1797ZM180.156 26.6797V28.1484H181.156V26.6797H180.156ZM181.156 28.174C181.163 28.0332 181.195 27.907 181.249 27.791L180.344 27.3652C180.232 27.6034 180.171 27.8574 180.157 28.1228L181.156 28.174ZM181.252 27.786C181.311 27.657 181.384 27.5536 181.472 27.4698L180.778 26.749C180.595 26.9256 180.45 27.1346 180.342 27.3702L181.252 27.786ZM181.472 27.4695C181.566 27.3791 181.672 27.3102 181.795 27.2611L181.424 26.3326C181.182 26.4294 180.966 26.5688 180.778 26.7492L181.472 27.4695ZM181.806 27.2564C181.923 27.2063 182.051 27.1797 182.195 27.1797V26.1797C181.923 26.1797 181.66 26.2312 181.412 26.3373L181.806 27.2564ZM182.195 27.1797H184.18V26.1797H182.195V27.1797ZM184.18 27.1797C184.317 27.1797 184.442 27.2056 184.561 27.2564L184.955 26.3373C184.709 26.2319 184.449 26.1797 184.18 26.1797V27.1797ZM184.572 27.2611C184.695 27.3102 184.802 27.3791 184.895 27.4695L185.589 26.7492C185.402 26.5688 185.185 26.4294 184.944 26.3326L184.572 27.2611ZM184.902 27.4763C184.992 27.5595 185.066 27.661 185.123 27.786L186.033 27.3702C185.923 27.1307 185.773 26.9196 185.582 26.7425L184.902 27.4763ZM185.131 27.8017C185.186 27.9115 185.216 28.0294 185.219 28.1613L186.219 28.1356C186.212 27.8612 186.148 27.5989 186.025 27.3545L185.131 27.8017ZM186.218 28.174C186.226 28.0286 186.257 27.8985 186.309 27.7799L185.394 27.3763C185.29 27.6119 185.233 27.862 185.219 28.1228L186.218 28.174ZM186.306 27.786C186.365 27.657 186.439 27.5536 186.526 27.4698L185.833 26.749C185.649 26.9256 185.505 27.1346 185.397 27.3702L186.306 27.786ZM186.527 27.4695C186.62 27.3791 186.727 27.3102 186.85 27.2611L186.478 26.3326C186.237 26.4294 186.02 26.5688 185.833 26.7492L186.527 27.4695ZM186.861 27.2564C186.978 27.2063 187.106 27.1797 187.25 27.1797V26.1797C186.977 26.1797 186.715 26.2312 186.467 26.3373L186.861 27.2564ZM187.25 27.1797H189.234V26.1797H187.25V27.1797ZM189.234 27.1797C189.381 27.1797 189.512 27.2078 189.633 27.2616L190.039 26.3478C189.785 26.2349 189.515 26.1797 189.234 26.1797V27.1797ZM189.644 27.2662C189.771 27.3191 189.874 27.3903 189.96 27.4796L190.68 26.786C190.496 26.594 190.276 26.4465 190.028 26.3431L189.644 27.2662ZM189.973 27.493C190.063 27.579 190.134 27.6826 190.187 27.8095L191.11 27.4249C191.007 27.1768 190.859 26.9575 190.667 26.7727L189.973 27.493ZM190.192 27.8203C190.245 27.9412 190.273 28.0723 190.273 28.2188H191.273C191.273 27.9382 191.218 27.6682 191.105 27.4141L190.192 27.8203ZM190.273 28.2188V35H191.273V28.2188H190.273ZM190.773 34.5H189.234V35.5H190.773V34.5ZM189.734 35V28.2188H188.734V35H189.734ZM189.234 27.7188H185.719V28.7188H189.234V27.7188ZM193.701 30.7734L193.244 30.5704L193.241 30.5765L193.701 30.7734ZM194.029 30.2812L193.675 29.9276L193.669 29.9344L194.029 30.2812ZM194.521 29.9531L194.714 30.4148L194.724 30.41L194.521 29.9531ZM199.084 29.8281V30.3281H199.584V29.8281H199.084ZM199.084 28.2188H199.584V27.7188H199.084V28.2188ZM194.06 28.2188H193.56V28.7188H194.06V28.2188ZM194.06 26.6797V26.1797H193.56V26.6797H194.06ZM199.685 26.8047L199.482 27.2617L199.493 27.2662L199.685 26.8047ZM200.17 27.1328L199.81 27.4796L199.816 27.4864L199.823 27.493L200.17 27.1328ZM200.498 27.6172L200.036 27.8095L200.041 27.8203L200.498 27.6172ZM200.623 35V35.5H201.123V35H200.623ZM199.084 35H198.584V35.5H199.084V35ZM199.084 33.5938H199.584L198.585 33.5533L199.084 33.5938ZM198.584 34.5938L198.923 34.9612L198.923 34.9606L198.584 34.5938ZM194.521 34.8828L194.318 35.3398L194.329 35.3444L194.521 34.8828ZM194.029 34.5547L193.669 34.9015L193.675 34.9083L193.682 34.9148L194.029 34.5547ZM193.701 34.0625L193.239 34.2549L193.244 34.2656L193.701 34.0625ZM195.115 33.4609H194.615V33.9609H195.115V33.4609ZM199.084 33.4609V33.9609H199.584V33.4609H199.084ZM199.084 31.3672H199.584V30.8672H199.084V31.3672ZM195.115 31.3672V30.8672H194.615V31.3672H195.115ZM194.084 31.3672C194.084 31.2161 194.111 31.0858 194.161 30.9704L193.241 30.5765C193.135 30.8257 193.084 31.0912 193.084 31.3672H194.084ZM194.158 30.9765C194.219 30.8394 194.296 30.7247 194.389 30.6281L193.669 29.9344C193.491 30.1191 193.35 30.3324 193.244 30.5704L194.158 30.9765ZM194.383 30.6348C194.476 30.5414 194.585 30.4682 194.714 30.4147L194.329 29.4916C194.082 29.5943 193.863 29.7399 193.676 29.9277L194.383 30.6348ZM194.724 30.41C194.847 30.3556 194.976 30.3281 195.115 30.3281V29.3281C194.838 29.3281 194.571 29.384 194.318 29.4962L194.724 30.41ZM195.115 30.3281H199.084V29.3281H195.115V30.3281ZM199.584 29.8281V28.2188H198.584V29.8281H199.584ZM199.084 27.7188H194.06V28.7188H199.084V27.7188ZM194.56 28.2188V26.6797H193.56V28.2188H194.56ZM194.06 27.1797H199.084V26.1797H194.06V27.1797ZM199.084 27.1797C199.23 27.1797 199.361 27.2078 199.482 27.2616L199.888 26.3478C199.634 26.2349 199.364 26.1797 199.084 26.1797V27.1797ZM199.493 27.2662C199.62 27.3191 199.724 27.3903 199.81 27.4796L200.53 26.786C200.345 26.594 200.126 26.4465 199.878 26.3431L199.493 27.2662ZM199.823 27.493C199.912 27.579 199.983 27.6826 200.036 27.8095L200.959 27.4249C200.856 27.1768 200.708 26.9575 200.517 26.7727L199.823 27.493ZM200.041 27.8203C200.095 27.9412 200.123 28.0723 200.123 28.2188H201.123C201.123 27.9382 201.068 27.6682 200.955 27.4141L200.041 27.8203ZM200.123 28.2188V35H201.123V28.2188H200.123ZM200.623 34.5H199.084V35.5H200.623V34.5ZM199.584 35V33.5938H198.584V35H199.584ZM198.585 33.5533C198.575 33.6803 198.541 33.7985 198.483 33.9116L199.372 34.3696C199.491 34.139 199.561 33.8927 199.582 33.6342L198.585 33.5533ZM198.483 33.9116C198.421 34.0323 198.342 34.1365 198.244 34.2269L198.923 34.9606C199.107 34.7905 199.257 34.5927 199.372 34.3696L198.483 33.9116ZM198.245 34.2263C198.154 34.3096 198.049 34.377 197.925 34.4283L198.305 35.353C198.535 35.2584 198.742 35.1279 198.923 34.9612L198.245 34.2263ZM197.925 34.4283C197.81 34.4755 197.687 34.5 197.552 34.5V35.5C197.813 35.5 198.066 35.4516 198.305 35.353L197.925 34.4283ZM197.552 34.5H195.115V35.5H197.552V34.5ZM195.115 34.5C194.971 34.5 194.839 34.4734 194.714 34.4213L194.329 35.3444C194.579 35.4485 194.842 35.5 195.115 35.5V34.5ZM194.724 34.4259C194.587 34.365 194.472 34.2875 194.376 34.1945L193.682 34.9148C193.867 35.0927 194.08 35.234 194.318 35.3397L194.724 34.4259ZM194.389 34.2079C194.296 34.1113 194.219 33.9965 194.158 33.8594L193.244 34.2656C193.35 34.5035 193.491 34.7169 193.669 34.9015L194.389 34.2079ZM194.162 33.8702C194.111 33.7467 194.084 33.6119 194.084 33.4609H193.084C193.084 33.7371 193.135 34.0033 193.239 34.2548L194.162 33.8702ZM194.084 33.4609V31.3672H193.084V33.4609H194.084ZM195.115 33.9609H199.084V32.9609H195.115V33.9609ZM199.584 33.4609V31.3672H198.584V33.4609H199.584ZM199.084 30.8672H195.115V31.8672H199.084V30.8672ZM194.615 31.3672V33.4609H195.615V31.3672H194.615ZM205.05 26.6797H205.55V26.1797H205.05V26.6797ZM205.05 35V35.5H205.55V35H205.05ZM203.511 35H203.011V35.5H203.511V35ZM203.511 26.6797V26.1797H203.011V26.6797H203.511ZM203.433 23.4766V22.9766H202.933V23.4766H203.433ZM205.128 23.4766H205.628V22.9766H205.128V23.4766ZM205.128 25.0781V25.5781H205.628V25.0781H205.128ZM203.433 25.0781H202.933V25.5781H203.433V25.0781ZM204.55 26.6797V35H205.55V26.6797H204.55ZM205.05 34.5H203.511V35.5H205.05V34.5ZM204.011 35V26.6797H203.011V35H204.011ZM203.511 27.1797H205.05V26.1797H203.511V27.1797ZM203.433 23.9766H205.128V22.9766H203.433V23.9766ZM204.628 23.4766V25.0781H205.628V23.4766H204.628ZM205.128 24.5781H203.433V25.5781H205.128V24.5781ZM203.933 25.0781V23.4766H202.933V25.0781H203.933ZM209.47 23.4766H209.97V22.9766H209.47V23.4766ZM209.47 35V35.5H209.97V35H209.47ZM207.939 35H207.439V35.5H207.939V35ZM207.939 23.4766V22.9766H207.439V23.4766H207.939ZM208.97 23.4766V35H209.97V23.4766H208.97ZM209.47 34.5H207.939V35.5H209.47V34.5ZM208.439 35V23.4766H207.439V35H208.439ZM207.939 23.9766H209.47V22.9766H207.939V23.9766ZM217.872 30.8438L217.374 30.889L217.415 31.3438H217.872V30.8438ZM217.231 23.7969V23.2969H216.684L216.733 23.8421L217.231 23.7969ZM219.403 23.7969L219.901 23.8421L219.951 23.2969H219.403V23.7969ZM218.762 30.8438V31.3438H219.219L219.26 30.889L218.762 30.8438ZM217.145 32.6641V32.1641H216.645V32.6641H217.145ZM219.481 32.6641H219.981V32.1641H219.481V32.6641ZM219.481 35V35.5H219.981V35H219.481ZM217.145 35H216.645V35.5H217.145V35ZM218.37 30.7985L217.729 23.7516L216.733 23.8421L217.374 30.889L218.37 30.7985ZM217.231 24.2969H219.403V23.2969H217.231V24.2969ZM218.905 23.7516L218.265 30.7985L219.26 30.889L219.901 23.8421L218.905 23.7516ZM218.762 30.3438H217.872V31.3438H218.762V30.3438ZM217.145 33.1641H219.481V32.1641H217.145V33.1641ZM218.981 32.6641V35H219.981V32.6641H218.981ZM219.481 34.5H217.145V35.5H219.481V34.5ZM217.645 35V32.6641H216.645V35H217.645Z" fill="black"/>
</svg>
