<?xml version="1.0" encoding="UTF-8"?>
<svg fill="none" viewBox="0 0 1066 785" xmlns="http://www.w3.org/2000/svg">
<g opacity=".6">
<g clip-path="url(#clip0)">
<path d="m218.3 118.38h73.713v67.947h-73.713v-67.947z" fill="#F7DF1E"/>
<path d="m237.68 175.17 5.641-3.147c1.088 1.779 2.078 3.284 4.453 3.284 2.276 0 3.711-0.821 3.711-4.013v-21.711h6.927v21.801c0 6.613-4.205 9.624-10.341 9.624-5.542 0-8.758-2.646-10.391-5.838zm24.495-0.684 5.64-3.01c1.485 2.235 3.415 3.877 6.829 3.877 2.87 0 4.7-1.323 4.7-3.147 0-2.19-1.88-2.965-5.047-4.242l-1.731-0.685c-4.998-1.96-8.313-4.423-8.313-9.623 0-4.789 3.958-8.438 10.144-8.438 4.403 0 7.57 1.414 9.846 5.108l-5.394 3.193c-1.188-1.961-2.473-2.736-4.453-2.736-2.029 0-3.315 1.186-3.315 2.736 0 1.916 1.286 2.692 4.255 3.878l1.732 0.684c5.888 2.326 9.203 4.698 9.203 10.033 0 5.748-4.898 8.895-11.479 8.895-6.432 0-10.589-2.828-12.617-6.523" fill="#000"/>
</g>
<g clip-path="url(#clip1)">
<path d="m135.83 112.43-18.642 5.44-18.642-5.44-4.3019-50.508h45.889l-4.303 50.508z" fill="#2062AF"/>
<path d="m117.18 66.01v47.517l0.042 0.012 15.086-4.402 3.483-43.127h-18.611z" fill="#3C9CD7"/>
<path d="m106.6 54.498v-3.0062h4.047v-3.2895h-7.083v9.2974h7.083v-3.0017h-4.047zm11.328-3.0062h2.829v-3.2895h-7.083v3.2895c0.947 1.027 1.442 1.5185 2.812 3.0038-0.801 0-2.812 0.0031-2.812 3e-3v3.0011h7.083v-3.0017l-2.829-3.0062zm10.039 0h2.829v-3.2895h-7.083v3.2895c0.947 1.027 1.442 1.5185 2.812 3.0038-0.801 0-2.812 0.0031-2.812 3e-3v3.0011h7.083v-3.0017l-2.829-3.0062z" fill="#000"/>
<path d="m117.17 78.638-13.342 6.0222 0.442 5.9624 12.9-5.9775 13.723-6.3583 0.569-6.0993-14.292 6.4505z" fill="#fff"/>
<path d="m103.82 84.66 0.443 5.9624 12.9-5.9775v-6.007l-13.343 6.0221z" fill="url(#paint0_linear)"/>
<path d="m131.46 72.188-14.292 6.4503v6.0071l13.723-6.3583 0.569-6.0991z" fill="url(#paint1_linear)"/>
<path d="m103.84 84.661 0.443 5.9624 19.793 0.0683-0.442 7.9498-6.514 1.9869-6.261-1.713-0.379-4.9343h-5.818l0.759 9.5263 11.763 3.769 11.699-3.701 1.517-18.914h-26.56z" fill="url(#paint2_linear)"/>
<path d="m117.17 84.661h-13.342l0.442 5.9624 12.9 0.0446v-6.007zm0 15.948-0.063 0.019-6.26-1.7128-0.38-4.9344h-5.817l0.758 9.5262 11.762 3.769v-6.667z" fill="#000" opacity=".05"/>
<path d="m102.62 72.188h28.836l-0.569 6.0993h-27.572l-0.695-6.0993z" fill="url(#paint3_linear)"/>
<path d="m117.17 72.188h-14.544l0.695 6.0993h13.849v-6.0993z" fill="#000" opacity=".05"/>
</g>
<g clip-path="url(#clip2)">
<path d="m415.11 99.78-4.375 47.018-19.667 5.231-19.612-5.223-4.371-47.026h48.025z" fill="#E44D26"/>
<path d="m391.1 148.03 15.892-4.227 3.739-40.179h-19.631v44.406z" fill="#F16529"/>
<path d="m382.59 115.16h8.505v-5.768h-15.075l0.143 1.547 1.478 15.894h13.454v-5.767h-7.955l-0.55-5.906zm1.355 14.557h-6.035l0.842 9.056 12.316 3.279 0.027-7e-3v-6.001l-0.026 7e-3 -6.696-1.734-0.428-4.6z" fill="#EBEBEB"/>
<path d="m371.55 87h3.055v2.8957h2.795v-2.8957h3.056v8.769h-3.055v-2.9364h-2.795v2.9364h-3.056v-8.769zm12.924 2.908h-2.69v-2.908h8.437v2.908h-2.692v5.861h-3.055v-5.861zm7.085-2.908h3.186l1.96 3.0812 1.958-3.0812h3.187v8.769h-3.043v-4.3464l-2.102 3.1179h-0.053l-2.103-3.1179v4.3464h-2.99v-8.769zm11.811 0h3.057v5.8706h4.296v2.8984h-7.353v-8.769z" fill="#000"/>
<path d="m391.08 126.83h7.403l-0.698 7.48-6.705 1.736v6l12.325-3.276 0.09-0.975 1.413-15.184 0.147-1.548h-13.975v5.767zm0-11.688v0.015h14.522l0.121-1.297 0.274-2.924 0.143-1.547h-15.06v5.754-1e-3z" fill="#fff"/>
</g>
<g clip-path="url(#clip3)">
<path d="m355.84 559.47c-2.797 0.015-5.219 0.687-7.25 1.687-0.75-1.484-1.5-2.781-1.625-3.75-0.14-1.125-0.312-1.812-0.14-3.156 0.171-1.344 0.953-3.25 0.953-3.406-0.016-0.141-0.172-0.828-1.782-0.844-1.609-0.016-3 0.312-3.156 0.734s-0.469 1.391-0.672 2.391c-0.281 1.469-3.218 6.672-4.89 9.406-0.547-1.062-1.016-2-1.11-2.75-0.14-1.125-0.312-1.813-0.14-3.156 0.172-1.344 0.953-3.25 0.953-3.406-0.016-0.141-0.172-0.828-1.781-0.844-1.61-0.016-3 0.312-3.157 0.734-0.156 0.422-0.328 1.422-0.671 2.391-0.329 0.969-4.235 9.656-5.251 11.922-0.515 1.156-0.968 2.078-1.296 2.703-0.329 0.625-0.016 0.047-0.047 0.109-0.282 0.532-0.438 0.828-0.438 0.828v0.016c-0.219 0.391-0.453 0.766-0.563 0.766-0.078 0-0.234-1.047 0.032-2.485 0.578-3.015 1.984-7.718 1.969-7.89 0-0.078 0.265-0.907-0.907-1.328-1.14-0.422-1.546 0.281-1.64 0.281s-0.172 0.25-0.172 0.25 1.265-5.297-2.422-5.297c-2.313 0-5.5 2.516-7.078 4.813-1 0.547-3.125 1.703-5.375 2.937-0.86 0.469-1.75 0.969-2.594 1.422l-0.172-0.188c-4.468-4.765-12.734-8.14-12.39-14.547 0.125-2.328 0.937-8.468 15.875-15.906 12.234-6.094 22.031-4.422 23.734-0.703 2.422 5.313-5.234 15.188-17.953 16.609-4.844 0.547-7.391-1.328-8.031-2.031-0.672-0.734-0.766-0.765-1.016-0.625-0.406 0.219-0.156 0.875 0 1.266 0.375 0.984 1.938 2.734 4.594 3.609 2.328 0.766 8.016 1.188 14.891-1.469 7.703-2.984 13.718-11.265 11.953-18.187-1.797-7.047-13.485-9.359-24.532-5.438-6.578 2.344-13.703 6-18.828 10.797-6.094 5.688-7.062 10.657-6.656 12.719 1.422 7.359 11.562 12.156 15.625 15.703-0.203 0.109-0.391 0.219-0.563 0.313-2.031 0.999-9.765 5.047-11.703 9.328-2.187 4.843 0.344 8.328 2.032 8.797 5.218 1.453 10.562-1.157 13.453-5.453 2.874-4.297 2.531-9.875 1.203-12.422l-0.047-0.094 1.593-0.938c1.032-0.609 2.048-1.171 2.938-1.656-0.5 1.359-0.859 2.969-1.047 5.312-0.218 2.751 0.907 6.313 2.391 7.719 0.656 0.609 1.437 0.625 1.922 0.625 1.719 0 2.5-1.422 3.359-3.125 1.063-2.078 2-4.484 2-4.484s-1.172 6.515 2.031 6.515c1.172 0 2.344-1.515 2.875-2.296v0.015s0.032-0.047 0.094-0.156c0.066-0.097 0.128-0.196 0.188-0.297v-0.031c0.468-0.812 1.515-2.672 3.078-5.75 2.015-3.969 3.953-8.937 3.953-8.937s0.187 1.218 0.766 3.218c0.343 1.188 1.093 2.485 1.671 3.75-0.469 0.657-0.75 1.032-0.75 1.032l0.016 0.015c-0.375 0.5-0.797 1.032-1.234 1.563-1.594 1.906-3.5 4.078-3.75 4.703-0.297 0.734-0.235 1.281 0.343 1.719 0.422 0.312 1.172 0.375 1.969 0.312 1.438-0.094 2.438-0.453 2.938-0.672 0.781-0.281 1.672-0.703 2.531-1.328 1.562-1.156 2.516-2.797 2.422-4.984-0.047-1.203-0.438-2.391-0.922-3.516 0.141-0.203 0.281-0.406 0.422-0.625 2.469-3.609 4.375-7.578 4.375-7.578s0.187 1.219 0.765 3.219c0.297 1.016 0.891 2.125 1.422 3.219-2.312 1.89-3.765 4.078-4.265 5.515-0.922 2.657-0.203 3.86 1.156 4.141 0.609 0.125 1.484-0.156 2.14-0.437 0.813-0.266 1.797-0.719 2.704-1.391 1.562-1.156 3.062-2.766 2.984-4.938-0.047-1-0.312-1.984-0.672-2.921 1.969-0.813 4.516-1.282 7.75-0.891 6.953 0.812 8.328 5.156 8.063 6.969-0.266 1.812-1.719 2.812-2.203 3.125-0.485 0.297-0.641 0.406-0.594 0.625 0.062 0.328 0.281 0.312 0.703 0.25 0.578-0.094 3.656-1.484 3.781-4.828 0.188-4.298-3.89-8.985-11.125-8.938zm-53.625 18.078c-2.297 2.515-5.531 3.469-6.906 2.656-1.484-0.859-0.907-4.562 1.922-7.234 1.719-1.625 3.953-3.125 5.422-4.047 0.328-0.203 0.828-0.5 1.422-0.86 0.093-0.062 0.156-0.093 0.156-0.093 0.109-0.063 0.234-0.141 0.359-0.219 1.047 3.812 0.047 7.156-2.375 9.797zm16.797-11.422c-0.797 1.953-2.484 6.969-3.5 6.687-0.875-0.234-1.406-4.031-0.172-7.781 0.625-1.891 1.953-4.14 2.734-5.016 1.266-1.406 2.641-1.875 2.985-1.297 0.406 0.751-1.547 6.188-2.047 7.407zm13.859 6.625c-0.343 0.172-0.656 0.297-0.796 0.203-0.11-0.062 0.14-0.297 0.14-0.297s1.734-1.859 2.422-2.718c0.39-0.5 0.859-1.078 1.359-1.735v0.188c0 2.25-2.156 3.75-3.125 4.359zm10.688-2.438c-0.25-0.187-0.219-0.765 0.625-2.578 0.328-0.718 1.078-1.922 2.375-3.062 0.156 0.469 0.25 0.921 0.234 1.344-0.015 2.812-2.015 3.859-3.234 4.296z" fill="#CF649A"/>
</g>
<g clip-path="url(#clip4)">
<path d="m0 704.56c0 3.858 3.0552 6.985 6.8238 6.985h39.274c3.7693 0 6.8241-3.128 6.8241-6.985v-40.204c0-3.858-3.0552-6.985-6.8238-6.985h-39.274c-3.7692 0-6.824 3.127-6.824 6.985v40.204z" fill="#563D7C"/>
<path d="m21.946 681.33v-7.672h6.5968c0.6285 0 1.2342 0.054 1.8176 0.161 0.5833 0.107 1.0995 0.298 1.5483 0.574 0.4486 0.276 0.8077 0.659 1.0771 1.149 0.2692 0.49 0.4039 1.118 0.4039 1.883 0 1.378-0.4039 2.374-1.2118 2.986-0.8077 0.613-1.8399 0.919-3.0966 0.919h-7.1353zm-7.0459-13.276v32.8h15.528c1.4361 0 2.8348-0.184 4.1961-0.551 1.3613-0.368 2.5729-0.934 3.6351-1.7 1.0619-0.765 1.9072-1.753 2.5355-2.963 0.6284-1.21 0.9425-2.641 0.9425-4.295 0-2.052-0.4863-3.806-1.4585-5.26-0.9724-1.455-2.446-2.473-4.4207-3.055 1.4362-0.705 2.5209-1.608 3.2539-2.711 0.7329-1.102 1.0994-2.48 1.0994-4.134 0-1.532-0.2468-2.818-0.7405-3.859s-1.1893-1.876-2.0869-2.504c-0.8974-0.628-1.9744-1.079-3.2311-1.355-1.2565-0.276-2.6478-0.413-4.1736-0.413h-15.079zm7.0459 27.195v-9.004h7.6739c1.5258 0 2.7525 0.36 3.6801 1.08 0.9274 0.72 1.3913 1.922 1.3913 3.606 0 0.858-0.1422 1.562-0.4265 2.113-0.2842 0.552-0.6656 0.988-1.1444 1.31-0.4786 0.321-1.0322 0.551-1.6605 0.689-0.6284 0.137-1.2864 0.206-1.9746 0.206h-7.5393z" fill="#fff"/>
</g>
<g clip-path="url(#clip5)">
<path d="m89.112 583.82c0 7.518 6.9261 14.535 17.845 18.491-2.18 11.634-0.39 21.012 5.587 24.665 6.145 3.756 15.299 1.156 23.987-6.893 8.469 7.724 17.028 10.764 23.001 7.1 6.139-3.767 8.006-13.78 5.765-25.777 11.373-3.986 17.735-9.969 17.735-17.586 0-7.343-6.939-13.696-17.711-17.626 2.412-12.493 0.368-21.643-5.857-25.448-6.002-3.668-14.661-0.471-23.255 7.456-8.94-8.413-17.513-10.982-23.732-7.167-5.997 3.679-7.707 13.227-5.52 25.077-10.551 3.898-17.845 10.395-17.845 17.708z" fill="#fff"/>
<path d="m163.04 570.09c-0.888-0.323-1.783-0.622-2.685-0.897 0.149-0.644 0.287-1.291 0.414-1.941 2.033-10.457 0.704-18.881-3.834-21.654-4.351-2.659-11.467 0.114-18.655 6.742-0.708 0.655-1.4 1.329-2.076 2.02-0.453-0.46-0.914-0.911-1.382-1.353-7.533-7.088-15.083-10.075-19.616-7.293-4.347 2.667-5.635 10.586-3.805 20.496 0.182 0.982 0.388 1.958 0.617 2.928-1.069 0.322-2.1 0.665-3.088 1.029-8.83 3.263-14.47 8.377-14.47 13.682 0 5.479 6.0538 10.974 15.252 14.306 0.746 0.269 1.498 0.518 2.256 0.747-0.246 1.045-0.465 2.098-0.655 3.156-1.745 9.738-0.383 17.47 3.953 20.12 4.478 2.737 11.994-0.076 19.312-6.856 0.579-0.536 1.159-1.104 1.741-1.7 0.732 0.749 1.484 1.476 2.254 2.18 7.089 6.465 14.091 9.076 18.422 6.418 4.474-2.745 5.928-11.051 4.04-21.157-0.144-0.772-0.312-1.56-0.5-2.363 0.528-0.165 1.046-0.336 1.551-0.513 9.562-3.358 15.783-8.786 15.783-14.338 0-5.324-5.821-10.472-14.829-13.759z" fill="#53C1DE"/>
<path d="m160.96 594.6c-0.456 0.16-0.924 0.315-1.401 0.465-1.055-3.542-2.48-7.309-4.223-11.2 1.663-3.798 3.033-7.516 4.059-11.035 0.853 0.262 1.682 0.538 2.48 0.829 7.718 2.816 12.426 6.98 12.426 10.188 0 3.417-5.085 7.854-13.34 10.753h-1e-3zm-3.425 7.195c0.834 4.468 0.954 8.509 0.401 11.667-0.497 2.838-1.496 4.73-2.731 5.488-2.629 1.612-8.251-0.484-14.313-6.013-0.695-0.633-1.395-1.31-2.097-2.026 2.35-2.725 4.699-5.892 6.991-9.409 4.033-0.38 7.842-1 11.297-1.846 0.17 0.728 0.321 1.441 0.452 2.139zm-34.644 16.876c-2.568 0.962-4.613 0.989-5.85 0.233-2.631-1.608-3.724-7.816-2.233-16.144 0.178-0.984 0.381-1.963 0.609-2.935 3.417 0.801 7.199 1.377 11.241 1.725 2.307 3.441 4.724 6.605 7.16 9.375-0.518 0.531-1.048 1.048-1.59 1.551-3.236 2.998-6.479 5.125-9.337 6.195zm-12.031-24.092c-4.068-1.473-7.426-3.388-9.729-5.477-2.0683-1.878-3.1129-3.742-3.1129-5.255 0-3.219 4.5279-7.325 12.081-10.116 0.947-0.348 1.905-0.668 2.87-0.957 1.044 3.598 2.413 7.36 4.066 11.165-1.674 3.861-3.063 7.683-4.116 11.323-0.692-0.21-1.378-0.437-2.059-0.683zm4.033-29.096c-1.568-8.491-0.527-14.896 2.093-16.503 2.791-1.712 8.961 0.729 15.464 6.849 0.416 0.392 0.833 0.801 1.252 1.225-2.423 2.758-4.818 5.897-7.106 9.319-3.922 0.385-7.678 1.004-11.13 1.833-0.213-0.902-0.404-1.811-0.573-2.723zm35.979 9.416c-0.816-1.493-1.661-2.967-2.537-4.421 2.662 0.356 5.211 0.829 7.606 1.409-0.719 2.441-1.615 4.995-2.67 7.612-0.771-1.55-1.571-3.084-2.399-4.6zm-14.672-15.146c1.643 1.886 3.289 3.994 4.908 6.28-3.284-0.165-6.574-0.166-9.858-3e-3 1.62-2.265 3.28-4.369 4.95-6.277zm-14.767 15.172c-0.818 1.504-1.603 3.028-2.354 4.571-1.038-2.608-1.926-5.173-2.651-7.649 2.38-0.565 4.918-1.026 7.562-1.376-0.885 1.463-1.737 2.948-2.557 4.454zm2.633 22.567c-2.731-0.323-5.308-0.761-7.687-1.31 0.737-2.52 1.644-5.14 2.704-7.804 0.754 1.544 1.543 3.069 2.365 4.574 0.838 1.535 1.712 3.049 2.618 4.54zm12.232 10.716c-1.689-1.932-3.373-4.068-5.018-6.366 1.597 0.067 3.225 0.1 4.88 0.1 1.7 0 3.381-0.04 5.035-0.118-1.624 2.34-3.265 4.479-4.897 6.384zm17.007-19.966c1.115 2.693 2.055 5.299 2.801 7.777-2.419 0.585-5.029 1.056-7.781 1.405 0.882-1.481 1.736-2.981 2.561-4.498 0.839-1.542 1.646-3.104 2.419-4.684zm-5.506 2.798c-1.263 2.326-2.598 4.608-4.001 6.842-2.475 0.188-5.032 0.284-7.638 0.284-2.596 0-5.121-0.085-7.552-0.252-1.44-2.23-2.8-4.516-4.077-6.854-1.27-2.325-2.457-4.701-3.558-7.123 1.098-2.421 2.281-4.799 3.548-7.126v1e-3c1.266-2.329 2.615-4.605 4.044-6.824 2.481-0.199 5.024-0.303 7.595-0.303 2.583 0 5.129 0.105 7.609 0.305 1.415 2.216 2.755 4.484 4.019 6.801 1.271 2.322 2.47 4.688 3.596 7.093-1.114 2.429-2.31 4.816-3.584 7.156h-1e-3zm7.351-42.172c2.793 1.707 3.879 8.592 2.124 17.62-0.115 0.588-0.24 1.174-0.375 1.757-3.46-0.846-7.218-1.476-11.152-1.867-2.292-3.459-4.667-6.604-7.051-9.326 0.625-0.638 1.265-1.26 1.918-1.865 6.158-5.68 11.914-7.922 14.536-6.319z" fill="#fff"/>
<path d="m136.16 575.96c4.113 0 7.448 3.534 7.448 7.894s-3.335 7.894-7.448 7.894c-4.114 0-7.448-3.534-7.448-7.894s3.334-7.894 7.448-7.894z" fill="#53C1DE"/>
</g>
<path d="m281.22 0.019898c-16.46 0-15.432 7.6076-15.432 7.6076l0.018 7.8817h15.707v2.3663h-21.946s-10.532-1.2732-10.532 16.427c0 17.701 9.193 17.073 9.193 17.073h5.486v-8.2139s-0.296-9.798 9.047-9.798h15.578s8.753 0.1507 8.753-9.0157v-15.156s1.329-9.1724-15.872-9.1724zm-8.661 5.3003c0.371-3.6e-4 0.738 0.07729 1.081 0.22852 0.343 0.15122 0.655 0.37304 0.918 0.65277 0.262 0.27973 0.47 0.61187 0.612 0.97742s0.215 0.75734 0.214 1.1529c1e-3 0.39559-0.072 0.78738-0.214 1.1529s-0.35 0.69765-0.612 0.97745c-0.263 0.2797-0.575 0.5015-0.918 0.6527-0.343 0.1513-0.71 0.2289-1.081 0.2286-0.371 3e-4 -0.739-0.0773-1.082-0.2286-0.343-0.1512-0.655-0.373-0.917-0.6527-0.263-0.2798-0.471-0.6119-0.613-0.97745-0.141-0.36555-0.214-0.75734-0.214-1.1529s0.073-0.78738 0.214-1.1529c0.142-0.36555 0.35-0.69769 0.613-0.97742 0.262-0.27973 0.574-0.50155 0.917-0.65277 0.343-0.15123 0.711-0.22888 1.082-0.22852z" fill="url(#paint4_linear)"/>
<path d="m281.69 68.764c16.46 0 15.432-7.6076 15.432-7.6076l-0.018-7.8815h-15.708v-2.3663h21.946s10.533 1.2732 10.533-16.428c0-17.701-9.193-17.073-9.193-17.073h-5.487v8.2137s0.296 9.798-9.046 9.798h-15.579s-8.752-0.1507-8.752 9.0161v15.156s-1.329 9.1722 15.872 9.1722zm8.661-5.2998c-0.371 4e-4 -0.739-0.0773-1.082-0.2285s-0.654-0.3731-0.917-0.6528c-0.262-0.2797-0.47-0.6119-0.612-0.9774-0.142-0.3656-0.215-0.7573-0.215-1.1529 0-0.3957 0.073-0.7875 0.215-1.1531 0.142-0.3655 0.35-0.6977 0.612-0.9775 0.263-0.2797 0.574-0.5016 0.917-0.6528s0.711-0.2289 1.082-0.2286c0.371-3e-4 0.739 0.0773 1.082 0.2286 0.343 0.1512 0.654 0.373 0.917 0.6527 0.262 0.2798 0.471 0.6119 0.612 0.9775 0.142 0.3655 0.215 0.7573 0.215 1.1529s-0.073 0.7874-0.215 1.1529c-0.141 0.3656-0.35 0.6977-0.612 0.9774-0.263 0.2798-0.574 0.5016-0.917 0.6528s-0.711 0.2289-1.082 0.2285v3e-4z" fill="url(#paint5_linear)"/>
<g clip-path="url(#clip6)">
<path d="m313.4 738.24c-0.549-1.649-1.989-2.797-3.851-3.073-0.878-0.13-1.884-0.074-3.074 0.169-2.074 0.423-3.612 0.585-4.735 0.616 4.238-7.089 7.685-15.173 9.669-22.783 3.208-12.305 1.494-17.911-0.51-20.447-5.302-6.711-13.037-10.316-22.37-10.427-4.978-0.06-9.348 0.914-11.628 1.614-2.123-0.371-4.405-0.578-6.8-0.617-4.489-0.07-8.456 0.899-11.845 2.891-1.876-0.628-4.888-1.514-8.366-2.08-8.179-1.33-14.771-0.293-19.593 3.081-5.839 4.086-8.546 11.185-8.045 21.099 0.159 3.148 1.937 12.726 4.735 21.809 1.609 5.22 3.324 9.556 5.098 12.887 2.517 4.723 5.209 7.504 8.231 8.503 1.695 0.559 4.773 0.951 8.01-1.72 0.41 0.492 0.958 0.981 1.684 1.436 0.923 0.576 2.051 1.047 3.178 1.326 4.061 1.006 7.865 0.755 11.11-0.655 0.021 0.572 0.036 1.118 0.049 1.59 0.021 0.765 0.043 1.515 0.071 2.217 0.192 4.744 0.518 8.433 1.484 11.014 0.053 0.141 0.124 0.358 0.199 0.587 0.482 1.461 1.287 3.907 3.336 5.822 2.122 1.984 4.688 2.592 7.038 2.592 1.179 0 2.304-0.153 3.29-0.362 3.517-0.747 7.51-1.884 10.399-5.959 2.732-3.853 4.06-9.655 4.3-18.797 0.031-0.259 0.06-0.506 0.087-0.741l0.057-0.483 0.644 0.056 0.166 0.011c3.581 0.162 7.961-0.591 10.65-1.828 2.125-0.977 8.936-4.539 7.332-9.348z" fill="#000"/>
<path d="m307.27 739.17c-10.65 2.176-11.382-1.396-11.382-1.396 11.244-16.528 15.944-37.507 11.888-42.642-11.066-14.006-30.221-7.382-30.541-7.21l-0.103 0.018c-2.104-0.433-4.458-0.69-7.105-0.733-4.818-0.078-8.473 1.251-11.247 3.335 0 0-34.172-13.946-32.582 17.539 0.338 6.698 9.691 50.681 20.847 37.396 4.077-4.858 8.017-8.965 8.017-8.965 1.957 1.287 4.299 1.944 6.755 1.708l0.191-0.16c-0.06 0.603-0.033 1.193 0.076 1.891-2.874 3.181-2.029 3.739-7.774 4.911-5.814 1.187-2.399 3.3-0.169 3.852 2.703 0.67 8.957 1.618 13.182-4.241l-0.168 0.668c1.126 0.894 1.916 5.812 1.784 10.27-0.133 4.458-0.221 7.519 0.666 9.91s1.772 7.77 9.324 6.167c6.311-1.339 9.581-4.811 10.036-10.602 0.323-4.117 1.054-3.508 1.099-7.189l0.587-1.743c0.675-5.581 0.107-7.381 3.995-6.544l0.945 0.082c2.861 0.129 6.607-0.456 8.805-1.468 4.733-2.176 7.54-5.809 2.873-4.854h1e-3z" fill="#336791"/>
<path d="m260.78 711.08c-0.959-0.132-1.828-0.01-2.268 0.32-0.247 0.186-0.324 0.401-0.345 0.549-0.055 0.392 0.222 0.825 0.393 1.049 0.482 0.632 1.186 1.067 1.883 1.163 0.101 0.014 0.201 0.021 0.301 0.021 1.162 0 2.219-0.897 2.312-1.558 0.116-0.829-1.098-1.381-2.276-1.543v-1e-3zm31.792 0.027c-0.092-0.65-1.258-0.835-2.365-0.683-1.106 0.153-2.178 0.647-2.089 1.298 0.072 0.507 0.995 1.371 2.087 1.371 0.092 0 0.185-6e-3 0.279-0.019 0.729-0.101 1.264-0.559 1.518-0.823 0.387-0.403 0.611-0.852 0.57-1.144z" fill="#fff"/>
<path d="m310.82 738.93c-0.406-1.216-1.713-1.607-3.884-1.163-6.447 1.318-8.756 0.405-9.514-0.148 5.011-7.563 9.134-16.705 11.358-25.234 1.053-4.041 1.635-7.793 1.683-10.851 0.052-3.357-0.525-5.824-1.715-7.331-4.799-6.074-11.843-9.333-20.369-9.422-5.861-0.066-10.813 1.42-11.773 1.838-2.022-0.498-4.226-0.804-6.625-0.843-4.401-0.07-8.204 0.973-11.353 3.101-1.368-0.505-4.903-1.707-9.226-2.397-7.474-1.192-13.413-0.289-17.651 2.686-5.057 3.549-7.392 9.894-6.94 18.857 0.152 3.016 1.887 12.292 4.624 21.176 3.603 11.694 7.52 18.313 11.641 19.675 0.482 0.159 1.038 0.271 1.651 0.271 1.504 0 3.347-0.672 5.264-2.955 2.339-2.78 4.758-5.492 7.255-8.133 1.62 0.862 3.4 1.343 5.22 1.391 4e-3 0.047 8e-3 0.094 0.013 0.141-0.314 0.37-0.621 0.746-0.921 1.126-1.261 1.586-1.523 1.916-5.583 2.744-1.155 0.237-4.222 0.863-4.267 2.992-0.048 2.327 3.626 3.305 4.044 3.408 1.459 0.362 2.865 0.541 4.205 0.541 3.26 0 6.128-1.062 8.421-3.115-0.071 8.295 0.278 16.47 1.284 18.96 0.823 2.039 2.835 7.022 9.189 7.022 0.933 0 1.959-0.108 3.088-0.348 6.632-1.408 9.512-4.312 10.626-10.714 0.596-3.421 1.619-11.591 2.101-15.973 1.015 0.314 2.323 0.458 3.736 0.457 2.948 0 6.349-0.62 8.482-1.601 2.396-1.102 6.721-3.807 5.936-6.158zm-15.793-29.612c-0.022 1.293-0.202 2.468-0.392 3.694-0.205 1.318-0.417 2.682-0.471 4.336-0.052 1.611 0.151 3.285 0.347 4.904 0.397 3.271 0.804 6.638-0.772 9.96-0.262-0.459-0.495-0.934-0.698-1.422-0.196-0.47-0.622-1.226-1.211-2.271-2.291-4.071-7.657-13.604-4.91-17.494 0.818-1.158 2.895-2.348 8.107-1.707zm-6.318-21.918c7.639 0.167 13.682 2.999 17.96 8.414 3.282 4.155-0.331 23.057-10.792 39.364-0.105-0.133-0.211-0.265-0.317-0.396l-0.133-0.164c2.703-4.423 2.175-8.798 1.704-12.677-0.193-1.592-0.376-3.096-0.329-4.509 0.048-1.496 0.248-2.781 0.441-4.022 0.237-1.53 0.479-3.113 0.413-4.979 0.049-0.196 0.069-0.427 0.043-0.702-0.17-1.79-2.232-7.146-6.436-11.993-2.3-2.652-5.653-5.619-10.232-7.62 1.969-0.405 4.662-0.782 7.678-0.716zm-42.747 57.118c-2.113 2.517-3.571 2.034-4.051 1.876-3.126-1.033-6.754-7.578-9.952-17.958-2.767-8.981-4.384-18.011-4.512-20.544-0.404-8.009 1.556-13.59 5.825-16.59 6.948-4.881 18.372-1.959 22.962-0.478-0.066 0.065-0.135 0.125-0.2 0.191-7.533 7.535-7.354 20.411-7.335 21.198-1e-3 0.303 0.025 0.733 0.06 1.325 0.13 2.165 0.371 6.196-0.274 10.76-0.598 4.241 0.722 8.393 3.621 11.39 0.297 0.307 0.61 0.599 0.937 0.875-1.29 1.369-4.095 4.397-7.081 7.955zm8.049-10.639c-2.337-2.416-3.398-5.776-2.912-9.219 0.68-4.822 0.429-9.021 0.294-11.277-0.019-0.316-0.035-0.592-0.045-0.811 1.1-0.966 6.2-3.673 9.836-2.847 1.66 0.376 2.671 1.496 3.091 3.421 2.176 9.969 0.288 14.124-1.229 17.463-0.312 0.688-0.608 1.338-0.86 2.01l-0.195 0.52c-0.495 1.315-0.956 2.537-1.241 3.698-2.484-7e-3 -4.901-1.059-6.739-2.958zm0.382 13.444c-0.726-0.179-1.378-0.491-1.761-0.75 0.32-0.149 0.889-0.352 1.876-0.553 4.775-0.974 5.513-1.661 7.124-3.687 0.369-0.465 0.787-0.991 1.367-1.633h1e-3c0.863-0.958 1.258-0.796 1.974-0.501 0.581 0.237 1.146 0.958 1.375 1.751 0.109 0.375 0.231 1.086-0.168 1.639-3.365 4.667-8.267 4.607-11.788 3.734zm24.993 23.04c-5.842 1.24-7.911-1.713-9.274-5.089-0.88-2.179-1.312-12.007-1.005-22.861 3e-3 -0.144-0.017-0.284-0.057-0.415-0.036-0.259-0.091-0.515-0.164-0.767-0.456-1.579-1.568-2.9-2.902-3.448-0.53-0.217-1.502-0.616-2.671-0.32 0.249-1.017 0.682-2.166 1.15-3.41l0.197-0.523c0.221-0.59 0.499-1.202 0.793-1.849 1.587-3.493 3.761-8.278 1.402-19.087-0.884-4.049-3.836-6.026-8.309-5.567-2.682 0.275-5.136 1.347-6.36 1.962-0.263 0.132-0.504 0.259-0.729 0.383 0.342-4.079 1.632-11.703 6.46-16.526 3.04-3.037 7.088-4.536 12.02-4.456 9.718 0.158 15.95 5.099 19.467 9.216 3.031 3.547 4.672 7.121 5.327 9.049-4.925-0.496-8.275 0.467-9.973 2.872-3.694 5.231 2.021 15.385 4.768 20.265 0.503 0.894 0.938 1.667 1.075 1.995 0.894 2.148 2.052 3.582 2.898 4.628 0.259 0.321 0.511 0.632 0.702 0.904-1.492 0.426-4.172 1.41-3.927 6.33-0.197 2.469-1.598 14.028-2.309 18.112-0.939 5.396-2.944 7.405-8.579 8.602zm24.387-27.646c-1.525 0.702-4.078 1.228-6.503 1.341-2.679 0.124-4.042-0.297-4.363-0.557-0.15-3.066 1.002-3.386 2.221-3.725 0.191-0.054 0.378-0.106 0.559-0.168 0.112 0.09 0.235 0.18 0.369 0.268 2.153 1.407 5.993 1.559 11.414 0.451l0.059-0.012c-0.731 0.677-1.982 1.586-3.756 2.402z" fill="#fff"/>
</g>
<g clip-path="url(#clip7)">
<path d="m497.2 683.48c2.372-0.224 4.171-2.094 4.089-4.337s-2.126-4.038-4.58-4.038h-0.163c-2.535 0.075-4.498 2.019-4.416 4.337 0.082 1.122 0.572 2.094 1.308 2.767-2.78 5.01-7.032 8.674-13.411 11.74-4.334 2.094-8.832 2.842-13.329 2.318-3.681-0.448-6.543-1.944-8.342-4.412-2.617-3.664-2.862-7.627-0.654-11.59 1.554-2.842 4.007-4.936 5.561-5.983-0.327-0.972-0.818-2.617-1.063-3.813-11.858 7.852-10.631 18.47-7.033 23.48 2.698 3.739 8.178 6.057 14.229 6.057 1.635 0 3.271-0.15 4.907-0.523 10.467-1.87 18.399-7.553 22.897-16.003zm14.393-9.272c-6.215-6.656-15.374-10.32-25.842-10.32h-1.308c-0.736-1.346-2.29-2.243-4.007-2.243h-0.164c-2.535 0.075-4.497 2.019-4.416 4.337 0.082 2.243 2.127 4.038 4.58 4.038h0.163c1.799-0.075 3.353-1.122 4.007-2.542h1.472c6.216 0 12.103 1.645 17.419 4.86 4.089 2.468 7.033 5.683 8.668 9.572 1.39 3.14 1.309 6.206-0.163 8.824-2.29 3.963-6.134 6.131-11.204 6.131-3.271 0-6.378-0.897-8.014-1.57-0.899 0.748-2.535 1.944-3.68 2.692 3.517 1.496 7.115 2.318 10.549 2.318 7.851 0 13.657-3.963 15.865-7.926 2.372-4.338 2.208-11.815-3.925-18.171zm-41.543 10.543c0.082 2.244 2.126 4.038 4.58 4.038h0.163c2.535-0.075 4.498-2.019 4.416-4.337-0.081-2.243-2.126-4.038-4.579-4.038h-0.164c-0.163 0-0.409 0-0.572 0.075-3.353-5.085-4.743-10.618-4.252-16.601 0.326-4.486 1.962-8.375 4.824-11.59 2.372-2.767 6.951-4.113 10.059-4.188 8.668-0.15 12.348 9.721 12.593 13.684 1.063 0.225 2.862 0.748 4.089 1.122-0.981-12.114-9.159-18.395-17.009-18.395-7.36 0-14.148 4.861-16.847 12.039-3.761 9.572-1.308 18.769 3.272 26.023-0.409 0.523-0.655 1.346-0.573 2.168z" fill="#764ABC"/>
</g>
<g clip-path="url(#clip8)">
<path d="m655.71 784.81c-0.368 0-0.711-0.098-1.03-0.271l-3.263-1.949c-0.49-0.271-0.245-0.37-0.098-0.419 0.662-0.222 0.785-0.272 1.472-0.666 0.073-0.05 0.172-0.025 0.245 0.024l2.502 1.505c0.098 0.05 0.221 0.05 0.294 0l9.788-5.699c0.098-0.049 0.147-0.148 0.147-0.271v-11.374c0-0.123-0.049-0.222-0.147-0.271l-9.788-5.675c-0.098-0.049-0.22-0.049-0.294 0l-9.787 5.675c-0.098 0.049-0.147 0.172-0.147 0.271v11.374c0 0.098 0.049 0.222 0.147 0.271l2.674 1.554c1.447 0.74 2.354-0.123 2.354-0.987v-11.225c0-0.148 0.123-0.296 0.295-0.296h1.251c0.147 0 0.294 0.123 0.294 0.296v11.225c0 1.949-1.055 3.084-2.894 3.084-0.564 0-1.006 0-2.257-0.616l-2.576-1.481c-0.637-0.37-1.03-1.061-1.03-1.801v-11.373c0-0.74 0.393-1.431 1.03-1.801l9.788-5.699c0.613-0.346 1.447-0.346 2.06 0l9.787 5.699c0.638 0.37 1.031 1.061 1.031 1.801v11.373c0 0.74-0.393 1.431-1.031 1.801l-9.787 5.699c-0.319 0.149-0.687 0.222-1.03 0.222zm3.017-7.82c-4.293 0-5.176-1.974-5.176-3.652 0-0.148 0.123-0.296 0.295-0.296h1.275c0.147 0 0.27 0.099 0.27 0.247 0.196 1.307 0.76 1.949 3.36 1.949 2.061 0 2.944-0.469 2.944-1.579 0-0.642-0.245-1.11-3.459-1.431-2.673-0.271-4.341-0.863-4.341-3.01 0-1.998 1.668-3.183 4.464-3.183 3.14 0 4.685 1.086 4.881 3.454 0 0.075-0.024 0.148-0.073 0.223-0.049 0.049-0.123 0.098-0.196 0.098h-1.276c-0.123 0-0.245-0.098-0.27-0.222-0.294-1.357-1.055-1.801-3.066-1.801-2.257 0-2.527 0.79-2.527 1.382 0 0.715 0.319 0.937 3.361 1.332 3.017 0.395 4.44 0.962 4.44 3.084-0.025 2.171-1.791 3.405-4.906 3.405z" fill="#539E43"/>
<path d="m625.35 740.32c0-0.444-0.245-0.864-0.637-1.086l-10.401-6.02c-0.172-0.099-0.368-0.148-0.564-0.173h-0.098c-0.196 0-0.392 0.074-0.564 0.173l-10.401 6.02c-0.392 0.222-0.637 0.642-0.637 1.086l0.024 16.184c0 0.222 0.123 0.444 0.319 0.543 0.196 0.123 0.441 0.123 0.613 0l6.182-3.553c0.392-0.222 0.638-0.641 0.638-1.085v-7.574c0-0.444 0.245-0.864 0.637-1.086l2.625-1.53c0.196-0.123 0.417-0.173 0.638-0.173 0.22 0 0.441 0.05 0.613 0.173l2.624 1.53c0.393 0.222 0.638 0.641 0.638 1.086v7.574c0 0.444 0.246 0.863 0.638 1.085l6.181 3.553c0.197 0.123 0.442 0.123 0.638 0 0.196-0.099 0.319-0.321 0.319-0.543l-0.025-16.184zm49.991-22.279c-0.196-0.099-0.441-0.099-0.613 0-0.196 0.124-0.319 0.321-0.319 0.543v16.037c0 0.148-0.073 0.295-0.221 0.394-0.147 0.074-0.294 0.074-0.441 0l-2.6-1.505c-0.191-0.109-0.406-0.166-0.626-0.166-0.219 0-0.435 0.057-0.625 0.166l-10.401 6.045c-0.392 0.222-0.638 0.641-0.638 1.085v12.065c0 0.444 0.246 0.863 0.638 1.085l10.401 6.045c0.19 0.109 0.406 0.167 0.625 0.167 0.22 0 0.435-0.058 0.626-0.167l10.4-6.045c0.393-0.222 0.638-0.641 0.638-1.085v-30.075c0-0.469-0.245-0.888-0.638-1.11l-6.206-3.479zm-0.956 30.692c0 0.123-0.049 0.222-0.148 0.271l-3.556 2.072c-0.05 0.025-0.105 0.037-0.16 0.037s-0.11-0.012-0.159-0.037l-3.557-2.072c-0.098-0.049-0.147-0.173-0.147-0.271v-4.145c0-0.124 0.049-0.222 0.147-0.272l3.557-2.072c0.049-0.024 0.104-0.037 0.159-0.037s0.11 0.013 0.16 0.037l3.556 2.072c0.099 0.05 0.148 0.173 0.148 0.272v4.145zm35.567-4.244c0.393-0.222 0.613-0.641 0.613-1.086v-2.935c0-0.444-0.245-0.864-0.613-1.086l-10.327-6.02c-0.19-0.109-0.406-0.166-0.625-0.166-0.22 0-0.435 0.057-0.626 0.166l-10.4 6.045c-0.393 0.222-0.638 0.641-0.638 1.085v12.065c0 0.444 0.245 0.863 0.638 1.085l10.327 5.921c0.392 0.222 0.858 0.222 1.226 0l6.255-3.503c0.196-0.098 0.319-0.32 0.319-0.542s-0.123-0.444-0.319-0.543l-10.45-6.045c-0.196-0.123-0.318-0.32-0.318-0.542v-3.775c0-0.222 0.122-0.444 0.318-0.543l3.263-1.875c0.095-0.061 0.206-0.093 0.319-0.093s0.223 0.032 0.319 0.093l3.262 1.875c0.196 0.123 0.319 0.321 0.319 0.543v2.96c0 0.222 0.123 0.444 0.319 0.543 0.196 0.123 0.441 0.123 0.638 0l6.181-3.627z" fill="#333"/>
<path d="m698.84 743.93c0.037-0.024 0.079-0.037 0.123-0.037s0.086 0.013 0.123 0.037l1.987 1.159c0.073 0.05 0.122 0.124 0.122 0.222v2.32c0 0.098-0.049 0.172-0.122 0.222l-1.987 1.159c-0.037 0.024-0.079 0.037-0.123 0.037s-0.086-0.013-0.123-0.037l-1.987-1.159c-0.073-0.05-0.122-0.124-0.122-0.222v-2.32c0-0.098 0.049-0.172 0.122-0.222l1.987-1.159z" fill="#539E43"/>
<mask id="mask0" x="630" y="733" width="24" height="27" mask-type="alpha" maskUnits="userSpaceOnUse">
<path d="m642.74 733.42c-0.191-0.109-0.406-0.167-0.626-0.167-0.219 0-0.434 0.058-0.625 0.167l-10.327 5.994c-0.392 0.222-0.613 0.642-0.613 1.086v12.015c0 0.444 0.245 0.864 0.613 1.086l10.327 5.995c0.191 0.109 0.406 0.166 0.625 0.166 0.22 0 0.435-0.057 0.626-0.166l10.327-5.995c0.392-0.222 0.613-0.642 0.613-1.086v-12.015c0-0.444-0.245-0.863-0.613-1.085l-10.327-5.995z" fill="#fff"/>
</mask>
<g mask="url(#mask0)">
<path d="m642.74 733.42c-0.191-0.109-0.406-0.167-0.626-0.167-0.219 0-0.434 0.058-0.625 0.167l-10.327 5.994c-0.392 0.222-0.613 0.642-0.613 1.086v12.015c0 0.444 0.245 0.864 0.613 1.086l10.327 5.995c0.191 0.109 0.406 0.166 0.625 0.166 0.22 0 0.435-0.057 0.626-0.166l10.327-5.995c0.392-0.222 0.613-0.642 0.613-1.086v-12.015c0-0.444-0.245-0.863-0.613-1.085l-10.327-5.995z" fill="url(#paint6_linear)"/>
<path d="m653.09 739.41-10.376-5.995c-0.102-0.052-0.209-0.093-0.319-0.123l-11.627 20.033c0.096 0.118 0.213 0.219 0.344 0.296l10.376 5.996c0.294 0.172 0.637 0.222 0.956 0.123l10.916-20.083c-0.074-0.099-0.172-0.173-0.27-0.247z" fill="url(#paint7_linear)"/>
<path d="m653.11 753.6c0.294-0.173 0.515-0.469 0.613-0.789l-11.382-19.54c-0.294-0.05-0.613-0.025-0.883 0.148l-10.302 5.97 11.112 20.379c0.161-0.027 0.318-0.077 0.466-0.148l10.376-6.02z" clip-rule="evenodd" fill="url(#paint8_linear)" fill-rule="evenodd"/>
<path d="m653.11 753.6-10.352 5.995c-0.146 0.075-0.303 0.125-0.466 0.148l0.197 0.37 11.479-6.686v-0.148l-0.294-0.493c-0.049 0.345-0.27 0.641-0.564 0.814z" clip-rule="evenodd" fill="url(#paint9_linear)" fill-rule="evenodd"/>
<path d="m653.11 753.6-10.352 5.995c-0.146 0.075-0.303 0.125-0.466 0.148l0.197 0.37 11.479-6.686v-0.148l-0.294-0.493c-0.049 0.345-0.27 0.641-0.564 0.814z" clip-rule="evenodd" fill="url(#paint10_linear)" fill-rule="evenodd"/>
</g>
</g>
<g clip-path="url(#clip9)">
<path d="m860.69 693.18v22.814l-21.399 11.469-0.194 0.16v8.526l0.194 0.165 30.138-15.77v-31.789l-0.285-0.063-8.497 4.303 0.043 0.185z" fill="#2F406A"/>
<path d="m817.83 716.18 21.468 11.282v8.851l-30.345-15.832v-31.665l0.312-0.043 8.472 4.462 0.093 0.256v22.689z" fill="#2379BD"/>
<path d="m817.83 693.49-8.877-4.675 30.276-15.833 30.207 15.771-8.739 4.425-21.468-11.095-21.399 11.407z" fill="#03AFEF"/>
<path d="m838.93 713.57-0.232-0.215v-8.567l0.232-0.108 0.057-0.212 8.107-4.284 0.248 0.051v8.826l-8.412 4.509z" fill="#2F406A"/>
<path d="m830.37 709.34v-9.165l0.235-0.01 8.247 4.347 0.07 0.172v8.89l-8.552-4.234z" fill="#2379BD"/>
<path d="m838.79 695.66-8.412 4.508 8.552 4.509 8.412-4.445-8.552-4.572z" fill="#03AFEF"/>
<path d="m828.46 719.16-0.232-0.215v-8.567l0.232-0.108 0.057-0.211 8.107-4.285 0.248 0.051v8.826l-8.412 4.509z" fill="#2F406A"/>
<path d="m819.91 714.92v-9.166l0.235-0.01 8.247 4.348 0.07 0.171v8.89l-8.552-4.233z" fill="#2379BD"/>
<path d="m828.32 701.25-8.412 4.508 8.552 4.509 8.412-4.445-8.552-4.572z" fill="#03AFEF"/>
<path d="m850.14 719.37-0.232-0.215v-8.567l0.232-0.108 0.057-0.212 8.107-4.284 0.248 0.05v8.827l-8.412 4.509z" fill="#2F406A"/>
<path d="m841.59 715.14v-9.165l0.235-0.011 8.247 4.348 0.07 0.171v8.891l-8.552-4.234z" fill="#2379BD"/>
<path d="m850 701.46-8.412 4.509 8.552 4.508 8.412-4.445-8.552-4.572z" fill="#03AFEF"/>
<path d="m839.67 724.96-0.232-0.215v-8.567l0.232-0.108 0.057-0.212 8.107-4.284 0.248 0.051v8.826l-8.412 4.509z" fill="#2F406A"/>
<path d="m831.12 720.72v-9.166l0.235-0.01 8.247 4.347 0.07 0.172v8.89l-8.552-4.233z" fill="#2379BD"/>
<path d="m839.53 707.05-8.412 4.509 8.552 4.509 8.412-4.445-8.552-4.573z" fill="#03AFEF"/>
<path d="m838.93 701.42-0.232-0.215v-8.567l0.232-0.108 0.057-0.212 8.107-4.283 0.248 0.05v8.826l-8.412 4.509z" fill="#2F406A"/>
<path d="m830.37 697.19v-9.166l0.235-0.01 8.247 4.347 0.07 0.172v8.89l-8.552-4.233z" fill="#2379BD"/>
<path d="m838.79 683.51-8.412 4.508 8.552 4.509 8.412-4.445-8.552-4.572z" fill="#03AFEF"/>
<path d="m828.46 707.01-0.232-0.215v-8.566l0.232-0.109 0.057-0.211 8.107-4.285 0.248 0.051v8.827l-8.412 4.508z" fill="#2F406A"/>
<path d="m819.91 702.77v-9.165l0.235-0.011 8.247 4.348 0.07 0.171v8.89l-8.552-4.233z" fill="#2379BD"/>
<path d="m828.32 689.1-8.412 4.508 8.552 4.509 8.412-4.445-8.552-4.572z" fill="#03AFEF"/>
<path d="m850.14 707.22-0.232-0.215v-8.567l0.232-0.108 0.057-0.212 8.107-4.284 0.248 0.051v8.826l-8.412 4.509z" fill="#2F406A"/>
<path d="m841.59 702.98v-9.165l0.235-0.01 8.247 4.347 0.07 0.171v8.891l-8.552-4.234z" fill="#2379BD"/>
<path d="m850 689.31-8.412 4.508 8.552 4.509 8.412-4.445-8.552-4.572z" fill="#03AFEF"/>
<path d="m839.67 712.81-0.232-0.215v-8.567l0.232-0.108 0.057-0.211 8.107-4.285 0.248 0.051v8.826l-8.412 4.509z" fill="#2F406A"/>
<path d="m831.12 708.57v-9.165l0.235-0.01 8.247 4.347 0.07 0.172v8.89l-8.552-4.234z" fill="#2379BD"/>
<path d="m839.53 694.9-8.412 4.509 8.552 4.509 8.412-4.445-8.552-4.573z" fill="#03AFEF"/>
</g>
<g clip-path="url(#clip10)">
<path d="m935.5 773.6v-14.739h18.253v-0.862h-18.253v-13.446h19.407v-0.862h-20.262v30.77h20.433v-0.861h-19.578zm36.035-21.29-7.566 10.041-7.395-10.041h-1.112l7.994 10.688-8.763 11.463h1.026l8.25-10.817 8.293 10.817h1.068l-8.805-11.463 8.036-10.688h-1.026zm4.36 29.736v-13.79h0.086c0.513 2.011 1.525 3.627 3.035 4.848s3.434 1.832 5.771 1.832c1.51 0 2.849-0.309 4.018-0.927 1.168-0.617 2.144-1.458 2.928-2.521s1.382-2.298 1.795-3.706 0.62-2.888 0.62-4.439c0-1.666-0.214-3.204-0.641-4.611-0.428-1.408-1.047-2.629-1.859-3.663-0.813-1.035-1.796-1.839-2.95-2.414-1.154-0.574-2.458-0.862-3.911-0.862-1.112 0-2.145 0.166-3.099 0.496-0.955 0.33-1.803 0.797-2.544 1.401-0.745 0.608-1.394 1.327-1.923 2.133-0.542 0.819-0.955 1.716-1.24 2.693h-0.086v-6.206h-0.854v29.736h0.854zm8.892-7.929c-2.679 0-4.831-0.927-6.455-2.78s-2.437-4.518-2.437-7.994c0-1.437 0.2-2.802 0.599-4.094 0.399-1.293 0.976-2.428 1.731-3.405s1.689-1.753 2.8-2.327c1.111-0.575 2.365-0.862 3.762-0.862 1.424 0 2.671 0.287 3.74 0.862 1.069 0.574 1.952 1.357 2.65 2.349 0.698 0.991 1.226 2.126 1.582 3.404 0.356 1.279 0.534 2.636 0.534 4.073 0 1.293-0.164 2.578-0.491 3.857-0.328 1.278-0.834 2.428-1.518 3.448-0.684 1.019-1.56 1.852-2.629 2.499-1.069 0.646-2.358 0.97-3.868 0.97zm14.063 0.344v-12.54c0-1.207 0.171-2.385 0.513-3.534s0.872-2.162 1.582-3.038c0.71-0.877 1.62-1.566 2.71-2.069 1.1-0.503 2.41-0.711 3.92-0.625v-0.862c-1.32-0.028-2.46 0.115-3.45 0.431-0.98 0.316-1.83 0.747-2.54 1.293s-1.28 1.185-1.709 1.918c-0.427 0.731-0.744 1.523-0.94 2.348h-0.086v-5.473h-0.855v22.152h0.855v-1e-3zm9.785-10.903h18.39c0.05-1.523-0.1-2.988-0.45-4.396-0.36-1.407-0.93-2.657-1.71-3.749-0.79-1.092-1.8-1.968-3.04-2.629s-2.71-0.991-4.42-0.991c-1.23 0-2.43 0.259-3.59 0.776-1.17 0.517-2.2 1.271-3.08 2.262s-1.6 2.205-2.14 3.642c-0.54 1.436-0.81 3.074-0.81 4.913 0 1.637 0.18 3.167 0.55 4.589 0.38 1.423 0.95 2.658 1.71 3.707 0.77 1.048 1.76 1.86 2.98 2.435 1.21 0.574 2.67 0.847 4.38 0.818 2.5 0 4.61-0.711 6.32-2.133s2.73-3.426 3.04-6.012h-0.86c-0.37 2.443-1.31 4.274-2.84 5.495-1.52 1.221-3.44 1.832-5.75 1.832-1.57 0-2.89-0.273-3.97-0.819-1.09-0.546-1.97-1.293-2.65-2.241-0.69-0.948-1.19-2.062-1.52-3.34s-0.51-2.665-0.54-4.159zm17.53-0.862h-17.53c0.09-1.551 0.37-2.945 0.86-4.18 0.48-1.236 1.12-2.291 1.9-3.167 0.78-0.877 1.7-1.545 2.74-2.005 1.04-0.459 2.16-0.689 3.35-0.689 1.43 0 2.68 0.266 3.76 0.797 1.09 0.532 1.99 1.257 2.72 2.177 0.73 0.919 1.27 1.989 1.64 3.21s0.56 2.507 0.56 3.857zm18.6-3.835h0.85c0-2.471-0.71-4.267-2.14-5.387-1.42-1.121-3.36-1.681-5.81-1.681-1.37 0-2.52 0.173-3.46 0.517-0.94 0.345-1.71 0.79-2.31 1.336s-1.03 1.149-1.28 1.81c-0.26 0.661-0.39 1.293-0.39 1.896 0 1.207 0.21 2.17 0.64 2.888s1.1 1.278 2.01 1.681c0.63 0.287 1.34 0.545 2.14 0.776 0.8 0.229 1.72 0.473 2.78 0.732 0.94 0.23 1.86 0.46 2.78 0.689 0.91 0.23 1.71 0.539 2.41 0.927s1.27 0.883 1.71 1.487c0.44 0.603 0.66 1.393 0.66 2.37 0 0.948-0.22 1.753-0.66 2.413-0.44 0.658-1.01 1.21-1.69 1.617-0.68 0.416-1.44 0.718-2.28 0.904-0.85 0.187-1.66 0.281-2.46 0.281-2.6 0-4.58-0.582-5.97-1.746-1.38-1.163-2.07-2.995-2.07-5.495h-0.85c0 2.787 0.74 4.827 2.24 6.12s3.71 1.939 6.65 1.939c0.94 0 1.89-0.107 2.84-0.323 0.95-0.215 1.81-0.567 2.56-1.056 0.75-0.481 1.38-1.13 1.84-1.896 0.47-0.776 0.71-1.724 0.71-2.844 0-1.063-0.21-1.925-0.62-2.586s-0.96-1.207-1.63-1.638c-0.67-0.43-1.42-0.768-2.26-1.012-0.85-0.246-1.69-0.483-2.54-0.711-1.05-0.277-2.1-0.55-3.15-0.819-0.89-0.23-1.73-0.503-2.5-0.819-0.74-0.316-1.33-0.768-1.77-1.357s-0.66-1.43-0.66-2.522c0-0.201 0.05-0.56 0.17-1.077 0.11-0.517 0.38-1.042 0.81-1.573s1.08-1.005 1.97-1.422c0.88-0.417 2.09-0.625 3.63-0.625 1.05 0 2.02 0.115 2.88 0.345 0.87 0.23 1.62 0.596 2.25 1.099s1.11 1.142 1.45 1.917c0.34 0.776 0.52 1.724 0.52 2.845zm19.79 0h0.85c0-2.471-0.71-4.267-2.14-5.387-1.42-1.121-3.36-1.681-5.81-1.681-1.37 0-2.52 0.173-3.46 0.517-0.94 0.345-1.71 0.79-2.31 1.336s-1.03 1.149-1.28 1.81c-0.26 0.661-0.39 1.293-0.39 1.896 0 1.207 0.22 2.17 0.64 2.888 0.43 0.718 1.1 1.278 2.01 1.681 0.63 0.287 1.34 0.545 2.14 0.776 0.8 0.229 1.72 0.473 2.78 0.732 0.94 0.23 1.87 0.46 2.78 0.689 0.91 0.23 1.71 0.539 2.41 0.927s1.27 0.883 1.71 1.487c0.44 0.603 0.67 1.393 0.67 2.37 0 0.948-0.23 1.753-0.67 2.413-0.44 0.658-1.01 1.21-1.69 1.617-0.68 0.416-1.44 0.718-2.28 0.904-0.84 0.187-1.66 0.281-2.46 0.281-2.59 0-4.58-0.582-5.96-1.746-1.39-1.163-2.08-2.995-2.08-5.495h-0.85c0 2.787 0.75 4.827 2.24 6.12 1.5 1.293 3.71 1.939 6.65 1.939 0.94 0 1.89-0.107 2.84-0.323 0.96-0.215 1.81-0.567 2.57-1.056 0.75-0.481 1.37-1.13 1.83-1.896 0.47-0.776 0.71-1.724 0.71-2.844 0-1.063-0.21-1.925-0.62-2.586s-0.95-1.207-1.62-1.638c-0.67-0.43-1.43-0.768-2.27-1.012-0.85-0.246-1.69-0.483-2.54-0.711-1.05-0.277-2.1-0.55-3.15-0.819-0.89-0.23-1.73-0.503-2.5-0.819-0.74-0.316-1.33-0.768-1.77-1.357s-0.66-1.43-0.66-2.522c0-0.201 0.05-0.56 0.17-1.077 0.11-0.517 0.38-1.042 0.81-1.573s1.08-1.005 1.97-1.422c0.88-0.417 2.09-0.625 3.63-0.625 1.06 0 2.02 0.115 2.89 0.345s1.61 0.596 2.24 1.099 1.11 1.142 1.45 1.917c0.35 0.776 0.52 1.724 0.52 2.845z" fill="#222"/>
</g>
<g clip-path="url(#clip11)">
<path d="m538.57 39.698c0.024-0.2233 0.042-0.4486 0.055-0.6751 0.016-0.2681-16.951-15.591-16.951-15.591h-0.406s17.198 17.266 17.302 16.266v2e-4z" fill="url(#paint11_linear)"/>
<path d="m502.37 34.383c-0.023 0.0471-0.045 0.0942-0.068 0.141-0.024 0.0493-0.049 0.0984-0.074 0.147-0.54 1.0734 7.573 8.6221 8.225 7.7051 0.03-0.0405 0.06-0.0833 0.089-0.1238 0.033-0.0481 0.066-0.0941 0.099-0.1422 0.521-0.754-8.039-8.2173-8.271-7.7271z" fill="url(#paint12_linear)"/>
<path d="m513.83 44.998c-0.023 0.0481-0.186 0.3108-0.335 0.4496-0.025 0.0481 7.92 7.5476 7.92 7.5476h0.715c1e-3 0-7.458-7.6802-8.3-7.9972z" fill="url(#paint13_linear)"/>
<path d="m538.63 38.887c-0.371 7.8398-7.186 14.108-15.511 14.108h-1.126l-8.314-7.7959c0.684-0.9181 1.319-1.8691 1.885-2.8608h7.555c2.389 0 4.333-1.8495 4.333-4.1245 0-2.2741-1.944-4.1245-4.333-4.1245h-4.471c0.341-1.7137 0.527-3.4808 0.527-5.2887 0-1.8354-0.189-3.6276-0.542-5.3687h2.777l17.171 16.104c0.021-0.2159 0.037-0.4315 0.049-0.6494zm-49.314-34.359h-4.517v10.657h4.517c7.889 0 14.308 6.108 14.308 13.616 0 2.0428-0.478 3.9819-1.329 5.7229l8.24 7.7282c2.706-3.8531 4.288-8.479 4.288-13.451 0-13.384-11.443-24.273-25.507-24.273z" fill="url(#paint14_linear)"/>
<path d="m523.12 4.5276h-18.291c4.467 2.596 8.167 6.2772 10.687 10.657h7.604c2.389 0 4.333 1.8495 4.333 4.1245 0 2.2744-1.944 4.1239-4.333 4.1239h-1.709l17.172 16.104c0.04-0.4368 0.066-0.8764 0.066-1.3228 0-3.5926-1.355-6.8881-3.604-9.4531 2.249-2.5638 3.604-5.86 3.604-9.452 0-8.15-6.966-14.781-15.529-14.781z" fill="url(#paint15_linear)"/>
<path d="m522 52.995h-17.034c3.428-2.0155 6.393-4.6762 8.72-7.796l8.314 7.796zm-11.458-10.743-8.239-7.7284c-2.277 4.6565-7.238 7.895-12.98 7.895h-4.517v10.656h4.517c8.84 0 16.642-4.3033 21.219-10.822z" fill="url(#paint16_linear)"/>
</g>
</g>
<defs>
<linearGradient id="paint0_linear" x1="110.5" x2="110.5" y1="90.623" y2="78.638" gradientUnits="userSpaceOnUse">
<stop stop-color="#D1D3D4" stop-opacity="0" offset=".387"/>
<stop stop-color="#D1D3D4" offset="1"/>
</linearGradient>
<linearGradient id="paint1_linear" x1="124.31" x2="124.31" y1="84.646" y2="72.188" gradientUnits="userSpaceOnUse">
<stop stop-color="#D1D3D4" stop-opacity="0" offset=".387"/>
<stop stop-color="#D1D3D4" offset="1"/>
</linearGradient>
<linearGradient id="paint2_linear" x1="103.84" x2="130.4" y1="95.968" y2="95.968" gradientUnits="userSpaceOnUse">
<stop stop-color="#E8E7E5" offset="0"/>
<stop stop-color="#fff" offset="1"/>
</linearGradient>
<linearGradient id="paint3_linear" x1="102.62" x2="131.46" y1="75.238" y2="75.238" gradientUnits="userSpaceOnUse">
<stop stop-color="#E8E7E5" offset="0"/>
<stop stop-color="#fff" offset="1"/>
</linearGradient>
<linearGradient id="paint4_linear" x1="255.27" x2="289.42" y1="6.203" y2="37.929" gradientUnits="userSpaceOnUse">
<stop stop-color="#387EB8" offset="0"/>
<stop stop-color="#366994" offset="1"/>
</linearGradient>
<linearGradient id="paint5_linear" x1="274.99" x2="311.56" y1="27.974" y2="60.41" gradientUnits="userSpaceOnUse">
<stop stop-color="#FFE052" offset="0"/>
<stop stop-color="#FFC331" offset="1"/>
</linearGradient>
<linearGradient id="paint6_linear" x1="646.32" x2="634.91" y1="737.88" y2="755.71" gradientUnits="userSpaceOnUse">
<stop stop-color="#41873F" offset="0"/>
<stop stop-color="#418B3D" offset=".3288"/>
<stop stop-color="#419637" offset=".6352"/>
<stop stop-color="#3FA92D" offset=".9319"/>
<stop stop-color="#3FAE2A" offset="1"/>
</linearGradient>
<linearGradient id="paint7_linear" x1="640.54" x2="668.97" y1="747.91" y2="732.56" gradientUnits="userSpaceOnUse">
<stop stop-color="#41873F" offset=".1376"/>
<stop stop-color="#54A044" offset=".4032"/>
<stop stop-color="#66B848" offset=".7136"/>
<stop stop-color="#6CC04A" offset=".9081"/>
</linearGradient>
<linearGradient id="paint8_linear" x1="630.17" x2="654.06" y1="746.5" y2="746.5" gradientUnits="userSpaceOnUse">
<stop stop-color="#6CC04A" offset=".09192"/>
<stop stop-color="#66B848" offset=".2864"/>
<stop stop-color="#54A044" offset=".5968"/>
<stop stop-color="#41873F" offset=".8624"/>
</linearGradient>
<linearGradient id="paint9_linear" x1="630.17" x2="654.06" y1="756.47" y2="756.47" gradientUnits="userSpaceOnUse">
<stop stop-color="#6CC04A" offset=".09192"/>
<stop stop-color="#66B848" offset=".2864"/>
<stop stop-color="#54A044" offset=".5968"/>
<stop stop-color="#41873F" offset=".8624"/>
</linearGradient>
<linearGradient id="paint10_linear" x1="657.55" x2="651.42" y1="737.32" y2="769.21" gradientUnits="userSpaceOnUse">
<stop stop-color="#41873F" offset="0"/>
<stop stop-color="#418B3D" offset=".3288"/>
<stop stop-color="#419637" offset=".6352"/>
<stop stop-color="#3FA92D" offset=".9319"/>
<stop stop-color="#3FAE2A" offset="1"/>
</linearGradient>
<linearGradient id="paint11_linear" x1="506.92" x2="537.14" y1="8.2959" y2="42.607" gradientUnits="userSpaceOnUse">
<stop stop-color="#F9A03C" offset="0"/>
<stop stop-color="#F7974E" offset="1"/>
</linearGradient>
<linearGradient id="paint12_linear" x1="480.29" x2="509.15" y1="14.21" y2="43.635" gradientUnits="userSpaceOnUse">
<stop stop-color="#F9A03C" offset="0"/>
<stop stop-color="#F7974E" offset="1"/>
</linearGradient>
<linearGradient id="paint13_linear" x1="494.22" x2="519.26" y1="24.048" y2="55.037" gradientUnits="userSpaceOnUse">
<stop stop-color="#F9A03C" offset="0"/>
<stop stop-color="#F7974E" offset="1"/>
</linearGradient>
<linearGradient id="paint14_linear" x1="490.91" x2="524.26" y1="3.6446" y2="52.546" gradientUnits="userSpaceOnUse">
<stop stop-color="#F26D58" offset="0"/>
<stop stop-color="#F9A03C" offset="1"/>
</linearGradient>
<linearGradient id="paint15_linear" x1="510.19" x2="546.18" y1="5.8783" y2="28.725" gradientUnits="userSpaceOnUse">
<stop stop-color="#B84E51" offset="0"/>
<stop stop-color="#F68E48" offset="1"/>
</linearGradient>
<linearGradient id="paint16_linear" x1="502.28" x2="502.73" y1="38.877" y2="61.893" gradientUnits="userSpaceOnUse">
<stop stop-color="#F9A03C" offset="0"/>
<stop stop-color="#F7974E" offset="1"/>
</linearGradient>
<clipPath id="clip0">
<rect transform="translate(218.3 118.38)" width="73.713" height="67.947" fill="#fff"/>
</clipPath>
<clipPath id="clip1">
<rect transform="translate(80.328 43.092)" width="73.713" height="79.884" fill="#fff"/>
</clipPath>
<clipPath id="clip2">
<rect transform="translate(367 87)" width="48.197" height="65.192" fill="#fff"/>
</clipPath>
<clipPath id="clip3">
<rect transform="translate(287 525)" width="80" height="60" fill="#fff"/>
</clipPath>
<clipPath id="clip4">
<rect transform="translate(0 657.37)" width="52.922" height="54.174" fill="#fff"/>
</clipPath>
<clipPath id="clip5">
<rect transform="translate(88.833 538.92)" width="94.504" height="89.984" fill="#fff"/>
</clipPath>
<clipPath id="clip6">
<rect transform="translate(222.08 682.16)" width="91.668" height="93.657" fill="#fff"/>
</clipPath>
<clipPath id="clip7">
<rect transform="translate(452.67 644.52)" width="64.262" height="56.01" fill="#fff"/>
</clipPath>
<clipPath id="clip8">
<rect transform="translate(601.99 717.97)" width="108.68" height="67.029" fill="#fff"/>
</clipPath>
<clipPath id="clip9">
<rect transform="translate(808.95 672.98)" width="60.482" height="63.356" fill="#fff"/>
</clipPath>
<clipPath id="clip10">
<rect transform="translate(934.64 743.68)" width="131.36" height="38.564" fill="#fff"/>
</clipPath>
<clipPath id="clip11">
<rect transform="translate(484.8 4.5276)" width="53.867" height="48.665" fill="#fff"/>
</clipPath>
</defs>
</svg>