<?xml version="1.0" encoding="UTF-8"?>
<svg fill="none" viewBox="0 0 227 99" xmlns="http://www.w3.org/2000/svg">
<path d="m5.9161 75.864c8.9055 10.306 22.434 16.422 36.084 15.636s30.574-18.377 27.732-33.46c-2.8418-15.083-9.962-12.403-9.962-12.403s-5.9058 3.3439-0.5577 14.385c5.3481 11.041 28.075 16.328 41.418 13.616 7.078-1.4389 24.922-6.4806 34.379-25.666m-129.09 27.892c3.3244 7.8377 4.5992 11.622 6.1082 18.93m-6.1082-18.93c8.2717 3.6064 12.753 3.7418 18.319 2.796" stroke="#000" stroke-width="2"/>
<path d="m141.58 14.203c-0.219 0-0.427-0.0416-0.625-0.125-0.193-0.0885-0.362-0.2031-0.508-0.3437-0.146-0.1459-0.26-0.3151-0.343-0.5078-0.084-0.198-0.125-0.4063-0.125-0.625v-3.2032c0-0.21875 0.041-0.42448 0.125-0.61719 0.083-0.19792 0.197-0.36719 0.343-0.50781 0.146-0.14584 0.315-0.26042 0.508-0.34375 0.198-0.08854 0.406-0.13281 0.625-0.13281h5.438c0.218 0 0.424 0.04427 0.617 0.13281 0.198 0.08333 0.37 0.19791 0.515 0.34375 0.146 0.14062 0.261 0.30989 0.344 0.50781 0.083 0.19271 0.125 0.39844 0.125 0.61719v1.4454h-1.601v-1.4454h-5.438v3.2032h5.438c0.218 0 0.424 0.0416 0.617 0.125 0.198 0.0833 0.37 0.1979 0.515 0.3437 0.146 0.1458 0.261 0.3177 0.344 0.5156 0.083 0.1927 0.125 0.3985 0.125 0.6172v3.1953c0 0.2188-0.042 0.4271-0.125 0.625-0.083 0.1927-0.198 0.362-0.344 0.5078-0.145 0.1459-0.317 0.2605-0.515 0.3438-0.193 0.0833-0.399 0.125-0.617 0.125h-5.594c-0.219 0-0.427-0.0417-0.625-0.125-0.193-0.0833-0.362-0.1979-0.508-0.3438-0.146-0.1458-0.26-0.3151-0.344-0.5078-0.083-0.1979-0.125-0.4062-0.125-0.625v-1.4375h1.602v1.4375h5.594v-3.1953h-5.438zm17.373 4.7969h-1.539v-6.7812h-4.289v6.7812h-1.531v-11.523h1.531v4.6718c0.01-0.2031 0.057-0.3932 0.14-0.5703 0.084-0.1823 0.193-0.3385 0.329-0.4687 0.14-0.1354 0.302-0.2396 0.484-0.3125 0.182-0.0781 0.377-0.1172 0.586-0.1172h2.75c0.213 0 0.414 0.0417 0.601 0.125 0.188 0.0781 0.349 0.1875 0.485 0.3281 0.14 0.1354 0.25 0.2969 0.328 0.4844 0.083 0.1875 0.125 0.388 0.125 0.6016v6.7812zm9.998-1.5391c0 0.2136-0.042 0.4141-0.125 0.6016-0.078 0.1875-0.188 0.3516-0.328 0.4922-0.136 0.1354-0.297 0.2448-0.485 0.3281-0.182 0.0781-0.38 0.1172-0.594 0.1172h-4.132c-0.209 0-0.407-0.0391-0.594-0.1172-0.188-0.0833-0.352-0.1927-0.492-0.3281-0.136-0.1406-0.245-0.3047-0.328-0.4922-0.079-0.1875-0.118-0.388-0.118-0.6016v-5.2421c0-0.2136 0.039-0.4141 0.118-0.6016 0.083-0.1875 0.192-0.349 0.328-0.4844 0.14-0.1406 0.304-0.25 0.492-0.3281 0.187-0.0833 0.385-0.125 0.594-0.125h4.132c0.214 0 0.412 0.0417 0.594 0.125 0.188 0.0781 0.349 0.1875 0.485 0.3281 0.14 0.1354 0.25 0.2969 0.328 0.4844 0.083 0.1875 0.125 0.388 0.125 0.6016v5.2421zm-5.664-5.2421v5.2421h4.132v-5.2421h-4.132zm15.669 5.2421c0 0.2136-0.041 0.4141-0.125 0.6016-0.078 0.1875-0.187 0.3516-0.328 0.4922-0.135 0.1354-0.297 0.2448-0.484 0.3281-0.182 0.0781-0.38 0.1172-0.594 0.1172h-4.133c-0.208 0-0.406-0.0391-0.593-0.1172-0.188-0.0833-0.352-0.1927-0.493-0.3281-0.135-0.1406-0.244-0.3047-0.328-0.4922-0.078-0.1875-0.117-0.388-0.117-0.6016v-5.2421c0-0.2136 0.039-0.4141 0.117-0.6016 0.084-0.1875 0.193-0.349 0.328-0.4844 0.141-0.1406 0.305-0.25 0.493-0.3281 0.187-0.0833 0.385-0.125 0.593-0.125h4.133c0.214 0 0.412 0.0417 0.594 0.125 0.187 0.0781 0.349 0.1875 0.484 0.3281 0.141 0.1354 0.25 0.2969 0.328 0.4844 0.084 0.1875 0.125 0.388 0.125 0.6016v5.2421zm-5.664-5.2421v5.2421h4.133v-5.2421h-4.133zm7.99-1.5391h2.031v-2.5625h1.54v2.5625h2.734v1.5391h-2.734v5.2421h2.734v1.5391h-2.734c-0.209 0-0.407-0.0391-0.594-0.1172-0.188-0.0833-0.352-0.1927-0.492-0.3281-0.141-0.1406-0.253-0.3047-0.336-0.4922-0.078-0.1875-0.118-0.388-0.118-0.6016v-5.2421h-2.031v-1.5391zm20.746 1.5391v6.7812h-1.539v-6.7812h-3.524v6.7812h-1.531v-8.3203h1.531v1.4687c0.011-0.2031 0.058-0.3932 0.141-0.5703 0.083-0.1823 0.193-0.3385 0.328-0.4687 0.141-0.1354 0.302-0.2396 0.484-0.3125 0.183-0.0781 0.378-0.1172 0.586-0.1172h1.985c0.203 0 0.396 0.0391 0.578 0.1172 0.182 0.0729 0.344 0.1771 0.484 0.3125 0.141 0.1302 0.253 0.2864 0.336 0.4687 0.089 0.1771 0.136 0.3672 0.141 0.5703 0.01-0.2031 0.055-0.3932 0.133-0.5703 0.083-0.1823 0.192-0.3385 0.328-0.4687 0.14-0.1354 0.302-0.2396 0.484-0.3125 0.182-0.0781 0.378-0.1172 0.586-0.1172h1.984c0.214 0 0.415 0.0417 0.602 0.125 0.188 0.0781 0.349 0.1875 0.484 0.3281 0.141 0.1354 0.25 0.2969 0.329 0.4844 0.083 0.1875 0.125 0.388 0.125 0.6016v6.7812h-1.54v-6.7812h-3.515zm14.904 3.4062h-5.508v1.8359h5.508v1.5391h-5.508c-0.208 0-0.406-0.0391-0.594-0.1172-0.187-0.0833-0.351-0.1927-0.492-0.3281-0.135-0.1406-0.245-0.3047-0.328-0.4922-0.078-0.1875-0.117-0.388-0.117-0.6016v-5.2421c0-0.2136 0.039-0.4141 0.117-0.6016 0.083-0.1875 0.193-0.349 0.328-0.4844 0.141-0.1406 0.305-0.25 0.492-0.3281 0.188-0.0833 0.386-0.125 0.594-0.125h3.969c0.213 0 0.414 0.0417 0.601 0.125 0.188 0.0781 0.349 0.1875 0.485 0.3281 0.14 0.1354 0.25 0.2969 0.328 0.4844 0.083 0.1875 0.125 0.388 0.125 0.6016v3.4062zm-5.508-3.4062v1.8671h3.969v-1.8671h-3.969zm-73.748 19.148c0-0.2136 0.039-0.4115 0.117-0.5938 0.084-0.1875 0.193-0.3515 0.328-0.4922 0.141-0.1406 0.305-0.25 0.492-0.3281 0.188-0.0833 0.386-0.125 0.594-0.125h3.969v-1.6093h-5.023v-1.5391h5.023c0.214 0 0.414 0.0417 0.602 0.125 0.187 0.0781 0.349 0.1875 0.484 0.3281 0.141 0.1354 0.25 0.2969 0.328 0.4844 0.083 0.1875 0.125 0.388 0.125 0.6016v6.7812h-1.539v-1.4062c-0.016 0.1927-0.068 0.375-0.156 0.5468-0.089 0.1719-0.203 0.3229-0.344 0.4532-0.135 0.125-0.292 0.2239-0.469 0.2968s-0.364 0.1094-0.562 0.1094h-2.438c-0.208 0-0.406-0.0391-0.594-0.1172-0.187-0.0833-0.351-0.1927-0.492-0.3281-0.135-0.1406-0.244-0.3047-0.328-0.4922-0.078-0.1875-0.117-0.388-0.117-0.6016v-2.0937zm1.531 2.0937h3.969v-2.0937h-3.969v2.0937zm15.678 1.5391h-1.539v-6.7812h-4.289v6.7812h-1.532v-8.3203h1.532v1.4687c0.01-0.2031 0.057-0.3932 0.14-0.5703 0.084-0.1823 0.193-0.3385 0.328-0.4687 0.141-0.1354 0.302-0.2396 0.485-0.3125 0.182-0.0781 0.377-0.1172 0.586-0.1172h2.75c0.213 0 0.414 0.0417 0.601 0.125 0.188 0.0781 0.349 0.1875 0.485 0.3281 0.14 0.1354 0.25 0.2969 0.328 0.4844 0.083 0.1875 0.125 0.388 0.125 0.6016v6.7812zm14.878-3.375h-5.508v1.8359h5.508v1.5391h-5.508c-0.208 0-0.406-0.0391-0.593-0.1172-0.188-0.0833-0.352-0.1927-0.493-0.3281-0.135-0.1406-0.244-0.3047-0.328-0.4922-0.078-0.1875-0.117-0.388-0.117-0.6016v-5.2421c0-0.2136 0.039-0.4141 0.117-0.6016 0.084-0.1875 0.193-0.349 0.328-0.4844 0.141-0.1406 0.305-0.25 0.493-0.3281 0.187-0.0833 0.385-0.125 0.593-0.125h3.969c0.214 0 0.414 0.0417 0.602 0.125 0.187 0.0781 0.349 0.1875 0.484 0.3281 0.141 0.1354 0.25 0.2969 0.328 0.4844 0.084 0.1875 0.125 0.388 0.125 0.6016v3.4062zm-5.508-3.4062v1.8671h3.969v-1.8671h-3.969zm8.318 1.5h3.743v1.539h-3.743v-1.539zm13.147-1.5v6.7812h-1.539v-6.7812h-3.524v6.7812h-1.531v-8.3203h1.531v1.4687c0.011-0.2031 0.058-0.3932 0.141-0.5703 0.083-0.1823 0.193-0.3385 0.328-0.4687 0.141-0.1354 0.302-0.2396 0.484-0.3125 0.183-0.0781 0.378-0.1172 0.586-0.1172h1.985c0.203 0 0.396 0.0391 0.578 0.1172 0.182 0.0729 0.344 0.1771 0.484 0.3125 0.141 0.1302 0.253 0.2864 0.336 0.4687 0.089 0.1771 0.136 0.3672 0.141 0.5703 0.01-0.2031 0.054-0.3932 0.133-0.5703 0.083-0.1823 0.192-0.3385 0.328-0.4687 0.14-0.1354 0.302-0.2396 0.484-0.3125 0.182-0.0781 0.378-0.1172 0.586-0.1172h1.984c0.214 0 0.414 0.0417 0.602 0.125 0.187 0.0781 0.349 0.1875 0.484 0.3281 0.141 0.1354 0.25 0.2969 0.328 0.4844 0.084 0.1875 0.125 0.388 0.125 0.6016v6.7812h-1.539v-6.7812h-3.515zm7.865 3.1484c0-0.2136 0.039-0.4115 0.117-0.5938 0.083-0.1875 0.193-0.3515 0.328-0.4922 0.141-0.1406 0.305-0.25 0.492-0.3281 0.188-0.0833 0.386-0.125 0.594-0.125h3.969v-1.6093h-5.024v-1.5391h5.024c0.213 0 0.414 0.0417 0.601 0.125 0.188 0.0781 0.349 0.1875 0.485 0.3281 0.14 0.1354 0.25 0.2969 0.328 0.4844 0.083 0.1875 0.125 0.388 0.125 0.6016v6.7812h-1.539v-1.4062c-0.016 0.1927-0.068 0.375-0.157 0.5468-0.088 0.1719-0.203 0.3229-0.343 0.4532-0.136 0.125-0.292 0.2239-0.469 0.2968s-0.365 0.1094-0.563 0.1094h-2.437c-0.208 0-0.406-0.0391-0.594-0.1172-0.187-0.0833-0.351-0.1927-0.492-0.3281-0.135-0.1406-0.245-0.3047-0.328-0.4922-0.078-0.1875-0.117-0.388-0.117-0.6016v-2.0937zm1.531 2.0937h3.969v-2.0937h-3.969v2.0937zm9.935-6.7812v8.3203h-1.539v-8.3203h1.539zm-1.617-3.2031h1.695v1.6015h-1.695v-1.6015zm6.037 0v11.523h-1.531v-11.523h1.531zm8.402 7.3672-0.641-7.0469h2.172l-0.641 7.0469h-0.89zm-0.727 1.8203h2.336v2.3359h-2.336v-2.3359z" fill="#000"/>
<path d="m140.95 14.078-0.209 0.4544 8e-3 0.0033 7e-3 0.0031 0.194-0.4608zm-0.508-0.3437-0.353 0.3536 6e-3 0.0063 0.347-0.3599zm-0.343-0.5078-0.461 0.194 2e-3 0.0044 0.459-0.1984zm0-4.4454 0.458 0.19846 2e-3 -0.00443-0.46-0.19403zm0.343-0.50781 0.347 0.35998 7e-3 -0.00643-0.354-0.35355zm0.508-0.34375 0.199 0.45896 5e-3 -0.00255-0.204-0.45641zm6.68 0-0.209 0.45434 7e-3 0.00335 8e-3 0.00313 0.194-0.46082zm0.515 0.34375-0.353 0.35361 6e-3 0.00631 0.347-0.35992zm0.344 0.50781-0.461 0.19404 2e-3 0.00442 0.459-0.19846zm0.125 2.0626v0.5h0.5v-0.5h-0.5zm-1.601 0h-0.5v0.5h0.5v-0.5zm0-1.4454h0.5v-0.5h-0.5v0.5zm-5.438 0v-0.5h-0.5v0.5h0.5zm0 3.2032h-0.5v0.5h0.5v-0.5zm6.055 0.125-0.199 0.4589 5e-3 0.0019 0.194-0.4608zm0.859 0.8593-0.461 0.1941 2e-3 0.0044 0.459-0.1985zm0 4.4375 0.459 0.1985 2e-3 -0.0044-0.461-0.1941zm-0.859 0.8516-0.194-0.4608-5e-3 0.0019 0.199 0.4589zm-6.836 0-0.199 0.4589 5e-3 0.0019 0.194-0.4608zm-0.508-0.3438-0.354 0.3536 0.354-0.3536zm-0.344-0.5078-0.461 0.1941 2e-3 0.0044 0.459-0.1985zm-0.125-2.0625v-0.5h-0.5v0.5h0.5zm1.602 0h0.5v-0.5h-0.5v0.5zm0 1.4375h-0.5v0.5h0.5v-0.5zm5.594 0v0.5h0.5v-0.5h-0.5zm0-3.1953h0.5v-0.5h-0.5v0.5zm-5.438-0.5c-0.153 0-0.296-0.0288-0.431-0.0858l-0.388 0.9216c0.261 0.1097 0.535 0.1642 0.819 0.1642v-1zm-0.416-0.0793c-0.144-0.0662-0.266-0.1495-0.37-0.2493l-0.694 0.7198c0.188 0.1814 0.405 0.3273 0.646 0.4382l0.418-0.9087zm-0.363-0.243c-0.101-0.1004-0.18-0.2168-0.239-0.3527l-0.917 0.3969c0.107 0.2495 0.257 0.4717 0.449 0.6629l0.707-0.7071zm-0.237-0.3483c-0.057-0.1353-0.085-0.2776-0.085-0.4309h-1c0 0.2841 0.054 0.5585 0.164 0.819l0.921-0.3881zm-0.085-0.4309v-3.2032h-1v3.2032h1zm0-3.2032c0-0.15341 0.028-0.29131 0.083-0.41873l-0.917-0.39692c-0.112 0.25799-0.166 0.53156-0.166 0.81565h1zm0.085-0.42316c0.059-0.13929 0.136-0.2511 0.23-0.34192l-0.694-0.71984c-0.197 0.19043-0.349 0.41716-0.457 0.6737l0.921 0.38806zm0.237-0.34829c0.1-0.10043 0.217-0.17961 0.353-0.23837l-0.397-0.91786c-0.25 0.1079-0.472 0.25789-0.663 0.44912l0.707 0.70711zm0.358-0.24089c0.133-0.05955 0.272-0.08922 0.421-0.08922v-1c-0.288 0-0.566 0.05886-0.829 0.1764l0.408 0.91282zm0.421-0.08922h5.438v-1h-5.438v1zm5.438 0c0.149 0 0.283 0.02965 0.408 0.08715l0.418-0.90868c-0.261-0.11959-0.538-0.17847-0.826-0.17847v1zm0.423 0.09363c0.141 0.05928 0.258 0.13827 0.356 0.23648l0.707-0.70711c-0.194-0.19345-0.42-0.34363-0.675-0.45101l-0.388 0.92164zm0.362 0.24285c0.094 0.09082 0.172 0.20263 0.23 0.34192l0.922-0.38806c-0.108-0.25654-0.26-0.48327-0.458-0.6737l-0.694 0.71984zm0.232 0.34635c0.055 0.12742 0.084 0.26532 0.084 0.41873h1c0-0.28409-0.054-0.55766-0.166-0.81565l-0.918 0.39692zm0.084 0.41873v1.4454h1v-1.4454h-1zm0.5 0.94536h-1.601v1h1.601v-1zm-1.101 0.5v-1.4454h-1v1.4454h1zm-0.5-1.9454h-5.438v1h5.438v-1zm-5.938 0.5v3.2032h1v-3.2032h-1zm0.5 3.7032h5.438v-1h-5.438v1zm5.438 0c0.153 0 0.291 0.0288 0.418 0.0839l0.397-0.9179c-0.258-0.1115-0.531-0.166-0.815-0.166v1zm0.423 0.0858c0.141 0.0593 0.258 0.1383 0.356 0.2365l0.707-0.7071c-0.194-0.1935-0.42-0.3437-0.675-0.4511l-0.388 0.9217zm0.356 0.2365c0.098 0.0982 0.177 0.2153 0.236 0.3561l0.922-0.3881c-0.107-0.255-0.258-0.4817-0.451-0.6751l-0.707 0.7071zm0.238 0.3605c0.055 0.1274 0.084 0.2653 0.084 0.4187h1c0-0.2841-0.054-0.5576-0.166-0.8156l-0.918 0.3969zm0.084 0.4187v3.1953h1v-3.1953h-1zm0 3.1953c0 0.1534-0.029 0.2957-0.086 0.431l0.922 0.3881c0.11-0.2605 0.164-0.5349 0.164-0.8191h-1zm-0.084 0.4266c-0.059 0.1359-0.138 0.2523-0.238 0.3527l0.707 0.7071c0.191-0.1912 0.341-0.4134 0.449-0.6629l-0.918-0.3969zm-0.238 0.3527c-0.098 0.0982-0.215 0.1772-0.356 0.2365l0.388 0.9216c0.255-0.1074 0.481-0.2575 0.675-0.451l-0.707-0.7071zm-0.361 0.2384c-0.127 0.0551-0.265 0.0839-0.418 0.0839v1c0.284 0 0.557-0.0545 0.815-0.1661l-0.397-0.9178zm-0.418 0.0839h-5.594v1h5.594v-1zm-5.594 0c-0.154 0-0.296-0.0288-0.431-0.0858l-0.388 0.9216c0.26 0.1097 0.535 0.1642 0.819 0.1642v-1zm-0.427-0.0839c-0.136-0.0588-0.252-0.138-0.352-0.2384l-0.708 0.7071c0.192 0.1912 0.414 0.3412 0.663 0.4491l0.397-0.9178zm-0.352-0.2384c-0.101-0.1004-0.18-0.2168-0.239-0.3527l-0.918 0.3969c0.108 0.2495 0.258 0.4717 0.449 0.6629l0.708-0.7071zm-0.237-0.3483c-0.057-0.1353-0.086-0.2776-0.086-0.431h-1c0 0.2842 0.055 0.5586 0.164 0.8191l0.922-0.3881zm-0.086-0.431v-1.4375h-1v1.4375h1zm-0.5-0.9375h1.602v-1h-1.602v1zm1.102-0.5v1.4375h1v-1.4375h-1zm0.5 1.9375h5.594v-1h-5.594v1zm6.094-0.5v-3.1953h-1v3.1953h1zm-0.5-3.6953h-5.438v1h5.438v-1zm11.935 5.2969v0.5h0.5v-0.5h-0.5zm-1.539 0h-0.5v0.5h0.5v-0.5zm0-6.7812h0.5v-0.5h-0.5v0.5zm-4.289 0v-0.5h-0.5v0.5h0.5zm0 6.7812v0.5h0.5v-0.5h-0.5zm-1.531 0h-0.5v0.5h0.5v-0.5zm0-11.523v-0.5h-0.5v0.5h0.5zm1.531 0h0.5v-0.5h-0.5v0.5zm0 4.6718h-0.5l0.999 0.0256-0.499-0.0256zm0.14-0.5703 0.453 0.2129 2e-3 -5e-3 -0.455-0.2079zm0.329-0.4687 0.346 0.3604v-3e-4l-0.346-0.3601zm0.484-0.3125 0.186 0.4644 0.011-0.0049-0.197-0.4595zm3.937 0.0078-0.203 0.457 0.011 0.0045 0.192-0.4615zm0.485 0.3281-0.36 0.3468 6e-3 0.0068 7e-3 0.0066 0.347-0.3602zm0.328 0.4844-0.462 0.1923 5e-3 0.0108 0.457-0.2031zm0.125 6.8828h-1.539v1h1.539v-1zm-1.039 0.5v-6.7812h-1v6.7812h1zm-0.5-7.2812h-4.289v1h4.289v-1zm-4.789 0.5v6.7812h1v-6.7812h-1zm0.5 6.2812h-1.531v1h1.531v-1zm-1.031 0.5v-11.523h-1v11.523h1zm-0.5-11.023h1.531v-1h-1.531v1zm1.031-0.5v4.6718h1v-4.6718h-1zm0.999 4.6974c7e-3 -0.1408 0.039-0.267 0.094-0.383l-0.905-0.4258c-0.112 0.2382-0.174 0.4922-0.188 0.7576l0.999 0.0512zm0.096-0.388c0.059-0.129 0.133-0.2324 0.22-0.3162l-0.693-0.7208c-0.184 0.1766-0.329 0.3856-0.436 0.6212l0.909 0.4158zm0.22-0.3165c0.094-0.0904 0.201-0.1593 0.324-0.2084l-0.372-0.9285c-0.242 0.0968-0.458 0.2362-0.645 0.4166l0.693 0.7203zm0.335-0.2131c0.117-0.0501 0.245-0.0767 0.389-0.0767v-1c-0.273 0-0.535 0.0515-0.783 0.1576l0.394 0.9191zm0.389-0.0767h2.75v-1h-2.75v1zm2.75 0c0.146 0 0.277 0.0281 0.398 0.0819l0.406-0.9138c-0.254-0.1129-0.524-0.1681-0.804-0.1681v1zm0.409 0.0865c0.127 0.0529 0.231 0.1241 0.317 0.2134l0.72-0.6936c-0.185-0.192-0.404-0.3395-0.652-0.4429l-0.385 0.9231zm0.33 0.2268c0.089 0.086 0.16 0.1896 0.213 0.3165l0.923-0.3846c-0.103-0.2481-0.25-0.4674-0.442-0.6522l-0.694 0.7203zm0.218 0.3273c0.054 0.1209 0.082 0.252 0.082 0.3985h1c0-0.2806-0.055-0.5506-0.168-0.8047l-0.914 0.4062zm0.082 0.3985v6.7812h1v-6.7812h-1zm10.373 5.8437-0.457-0.2031-5e-3 0.0108 0.462 0.1923zm-0.328 0.4922 0.353 0.3535-0.353-0.3535zm-0.485 0.3281 0.197 0.4596 6e-3 -0.0027-0.203-0.4569zm-5.32 0-0.203 0.457 0.011 0.0046 0.192-0.4616zm-0.492-0.3281-0.36 0.3468 6e-3 0.0068 7e-3 0.0065 0.347-0.3601zm-0.328-0.4922-0.462 0.1924 5e-3 0.0107 0.457-0.2031zm0-6.4453-0.457-0.2031-5e-3 0.0108 0.462 0.1923zm0.328-0.4844-0.354-0.3535 0.354 0.3535zm0.492-0.3281 0.192 0.4617 0.011-0.0048-0.203-0.4569zm5.32 0-0.208 0.4547 8e-3 0.0036 8e-3 0.0032 0.192-0.4615zm0.485 0.3281-0.361 0.3468 7e-3 0.0068 7e-3 0.0066 0.347-0.3602zm0.328 0.4844-0.462 0.1923 5e-3 0.0108 0.457-0.2031zm-5.539 0.6016v-0.5h-0.5v0.5h0.5zm0 5.2421h-0.5v0.5h0.5v-0.5zm4.132 0v0.5h0.5v-0.5h-0.5zm0-5.2421h0.5v-0.5h-0.5v0.5zm1.032 5.2421c0 0.1465-0.028 0.2776-0.082 0.3985l0.914 0.4062c0.113-0.2541 0.168-0.5241 0.168-0.8047h-1zm-0.087 0.4093c-0.053 0.1285-0.127 0.2375-0.22 0.3309l0.707 0.7071c0.188-0.1878 0.334-0.4069 0.436-0.6534l-0.923-0.3846zm-0.22 0.3309c-0.089 0.089-0.198 0.1646-0.334 0.2248l0.406 0.9138c0.24-0.1064 0.453-0.2496 0.635-0.4315l-0.707-0.7071zm-0.328 0.2221c-0.115 0.0495-0.245 0.0768-0.397 0.0768v1c0.276 0 0.542-0.0508 0.791-0.1576l-0.394-0.9192zm-0.397 0.0768h-4.132v1h4.132v-1zm-4.132 0c-0.144 0-0.277-0.0266-0.402-0.0787l-0.384 0.9231c0.25 0.1041 0.513 0.1556 0.786 0.1556v-1zm-0.391-0.0741c-0.137-0.0609-0.252-0.1384-0.348-0.2314l-0.694 0.7203c0.185 0.1779 0.398 0.3192 0.636 0.4249l0.406-0.9138zm-0.335-0.218c-0.093-0.0966-0.171-0.2114-0.232-0.3485l-0.913 0.4062c0.105 0.2379 0.247 0.4513 0.425 0.6359l0.72-0.6936zm-0.227-0.3377c-0.051-0.1235-0.079-0.2583-0.079-0.4093h-1c0 0.2762 0.051 0.5424 0.156 0.7939l0.923-0.3846zm-0.079-0.4093v-5.2421h-1v5.2421h1zm0-5.2421c0-0.151 0.028-0.2858 0.079-0.4093l-0.923-0.3846c-0.105 0.2515-0.156 0.5177-0.156 0.7939h1zm0.074-0.3985c0.061-0.1355 0.136-0.2449 0.225-0.3339l-0.707-0.7071c-0.182 0.1818-0.325 0.3953-0.431 0.6348l0.913 0.4062zm0.225-0.3339c0.094-0.0935 0.203-0.1666 0.331-0.2202l-0.384-0.9231c-0.247 0.1027-0.466 0.2484-0.654 0.4362l0.707 0.7071zm0.342-0.2248c0.123-0.0545 0.251-0.0819 0.391-0.0819v-1c-0.278 0-0.545 0.0559-0.797 0.1681l0.406 0.9138zm0.391-0.0819h4.132v-1h-4.132v1zm4.132 0c0.147 0 0.273 0.0281 0.386 0.0797l0.416-0.9094c-0.252-0.1151-0.521-0.1703-0.802-0.1703v1zm0.402 0.0865c0.127 0.0529 0.23 0.1241 0.316 0.2134l0.721-0.6936c-0.185-0.192-0.404-0.3395-0.653-0.4429l-0.384 0.9231zm0.33 0.2268c0.089 0.086 0.16 0.1896 0.213 0.3165l0.923-0.3846c-0.103-0.2481-0.251-0.4674-0.443-0.6522l-0.693 0.7203zm0.218 0.3273c0.054 0.1209 0.082 0.252 0.082 0.3985h1c0-0.2806-0.055-0.5506-0.168-0.8047l-0.914 0.4062zm0.082 0.3985v5.2421h1v-5.2421h-1zm-5.664 0v5.2421h1v-5.2421h-1zm0.5 5.7421h4.132v-1h-4.132v1zm4.632-0.5v-5.2421h-1v5.2421h1zm-0.5-5.7421h-4.132v1h4.132v-1zm11.412 6.3437-0.457-0.2031-4e-3 0.0108 0.461 0.1923zm-0.328 0.4922 0.354 0.3535-0.354-0.3535zm-0.484 0.3281 0.197 0.4596 6e-3 -0.0027-0.203-0.4569zm-5.32 0-0.204 0.457 0.011 0.0046 0.193-0.4616zm-0.493-0.3281-0.36 0.3468 7e-3 0.0068 6e-3 0.0065 0.347-0.3601zm-0.328-0.4922-0.461 0.1924 4e-3 0.0107 0.457-0.2031zm0-6.4453-0.457-0.2031-4e-3 0.0108 0.461 0.1923zm0.328-0.4844-0.353-0.3535 0.353 0.3535zm0.493-0.3281 0.192 0.4617 0.011-0.0048-0.203-0.4569zm5.32 0-0.208 0.4547 8e-3 0.0036 8e-3 0.0032 0.192-0.4615zm0.484 0.3281-0.36 0.3468 7e-3 0.0068 6e-3 0.0066 0.347-0.3602zm0.328 0.4844-0.461 0.1923 4e-3 0.0108 0.457-0.2031zm-5.539 0.6016v-0.5h-0.5v0.5h0.5zm0 5.2421h-0.5v0.5h0.5v-0.5zm4.133 0v0.5h0.5v-0.5h-0.5zm0-5.2421h0.5v-0.5h-0.5v0.5zm1.031 5.2421c0 0.1465-0.028 0.2776-0.082 0.3985l0.914 0.4062c0.113-0.2541 0.168-0.5241 0.168-0.8047h-1zm-0.086 0.4093c-0.054 0.1285-0.127 0.2375-0.22 0.3309l0.707 0.7071c0.188-0.1878 0.333-0.4069 0.436-0.6534l-0.923-0.3846zm-0.22 0.3309c-0.089 0.089-0.199 0.1646-0.334 0.2248l0.406 0.9138c0.239-0.1064 0.453-0.2496 0.635-0.4315l-0.707-0.7071zm-0.328 0.2221c-0.116 0.0495-0.246 0.0768-0.397 0.0768v1c0.276 0 0.542-0.0508 0.791-0.1576l-0.394-0.9192zm-0.397 0.0768h-4.133v1h4.133v-1zm-4.133 0c-0.144 0-0.276-0.0266-0.401-0.0787l-0.385 0.9231c0.25 0.1041 0.514 0.1556 0.786 0.1556v-1zm-0.39-0.0741c-0.137-0.0609-0.252-0.1384-0.349-0.2314l-0.694 0.7203c0.185 0.1779 0.398 0.3192 0.636 0.4249l0.407-0.9138zm-0.336-0.218c-0.093-0.0966-0.17-0.2114-0.231-0.3485l-0.914 0.4062c0.106 0.2379 0.247 0.4513 0.425 0.6359l0.72-0.6936zm-0.226-0.3377c-0.052-0.1235-0.079-0.2583-0.079-0.4093h-1c0 0.2762 0.051 0.5424 0.156 0.7939l0.923-0.3846zm-0.079-0.4093v-5.2421h-1v5.2421h1zm0-5.2421c0-0.151 0.027-0.2858 0.079-0.4093l-0.923-0.3846c-0.105 0.2515-0.156 0.5177-0.156 0.7939h1zm0.074-0.3985c0.06-0.1355 0.136-0.2449 0.225-0.3339l-0.707-0.7071c-0.182 0.1818-0.325 0.3953-0.432 0.6348l0.914 0.4062zm0.225-0.3339c0.093-0.0935 0.202-0.1666 0.331-0.2202l-0.385-0.9231c-0.246 0.1027-0.465 0.2484-0.653 0.4362l0.707 0.7071zm0.342-0.2248c0.122-0.0545 0.251-0.0819 0.39-0.0819v-1c-0.277 0-0.544 0.0559-0.797 0.1681l0.407 0.9138zm0.39-0.0819h4.133v-1h-4.133v1zm4.133 0c0.147 0 0.273 0.0281 0.386 0.0797l0.416-0.9094c-0.252-0.1151-0.521-0.1703-0.802-0.1703v1zm0.402 0.0865c0.126 0.0529 0.23 0.1241 0.316 0.2134l0.72-0.6936c-0.184-0.192-0.404-0.3395-0.652-0.4429l-0.384 0.9231zm0.329 0.2268c0.09 0.086 0.161 0.1896 0.214 0.3165l0.923-0.3846c-0.104-0.2481-0.251-0.4674-0.443-0.6522l-0.694 0.7203zm0.218 0.3273c0.054 0.1209 0.082 0.252 0.082 0.3985h1c0-0.2806-0.055-0.5506-0.168-0.8047l-0.914 0.4062zm0.082 0.3985v5.2421h1v-5.2421h-1zm-5.664 0v5.2421h1v-5.2421h-1zm0.5 5.7421h4.133v-1h-4.133v1zm4.633-0.5v-5.2421h-1v5.2421h1zm-0.5-5.7421h-4.133v1h4.133v-1zm3.857-1.0391v-0.5h-0.5v0.5h0.5zm2.031 0v0.5h0.5v-0.5h-0.5zm0-2.5625v-0.5h-0.5v0.5h0.5zm1.54 0h0.5v-0.5h-0.5v0.5zm0 2.5625h-0.5v0.5h0.5v-0.5zm2.734 0h0.5v-0.5h-0.5v0.5zm0 1.5391v0.5h0.5v-0.5h-0.5zm-2.734 0v-0.5h-0.5v0.5h0.5zm0 5.2421h-0.5v0.5h0.5v-0.5zm2.734 0h0.5v-0.5h-0.5v0.5zm0 1.5391v0.5h0.5v-0.5h-0.5zm-3.328-0.1172-0.203 0.457 0.011 0.0046 0.192-0.4616zm-0.492-0.3281-0.354 0.3536 7e-3 0.0065 0.347-0.3601zm-0.336-0.4922-0.462 0.1924 5e-3 0.0107 0.457-0.2031zm-0.118-5.8437h0.5v-0.5h-0.5v0.5zm-2.031 0h-0.5v0.5h0.5v-0.5zm0-1.0391h2.031v-1h-2.031v1zm2.531-0.5v-2.5625h-1v2.5625h1zm-0.5-2.0625h1.54v-1h-1.54v1zm1.04-0.5v2.5625h1v-2.5625h-1zm0.5 3.0625h2.734v-1h-2.734v1zm2.234-0.5v1.5391h1v-1.5391h-1zm0.5 1.0391h-2.734v1h2.734v-1zm-3.234 0.5v5.2421h1v-5.2421h-1zm0.5 5.7421h2.734v-1h-2.734v1zm2.234-0.5v1.5391h1v-1.5391h-1zm0.5 1.0391h-2.734v1h2.734v-1zm-2.734 0c-0.144 0-0.277-0.0266-0.402-0.0787l-0.384 0.9231c0.25 0.1041 0.513 0.1556 0.786 0.1556v-1zm-0.391-0.0741c-0.137-0.0609-0.252-0.1384-0.349-0.2314l-0.693 0.7203c0.184 0.1779 0.398 0.3192 0.636 0.4249l0.406-0.9138zm-0.342-0.2248c-0.096-0.0958-0.173-0.2084-0.232-0.3417l-0.914 0.4062c0.107 0.2417 0.254 0.4572 0.439 0.6426l0.707-0.7071zm-0.228-0.3309c-0.051-0.1235-0.079-0.2583-0.079-0.4093h-1c0 0.2762 0.051 0.5424 0.156 0.7939l0.923-0.3846zm-0.079-0.4093v-5.2421h-1v5.2421h1zm-0.5-5.7421h-2.031v1h2.031v-1zm-1.531 0.5v-1.5391h-1v1.5391h1zm20.246 0v-0.5h-0.5v0.5h0.5zm0 6.7812v0.5h0.5v-0.5h-0.5zm-1.539 0h-0.5v0.5h0.5v-0.5zm0-6.7812h0.5v-0.5h-0.5v0.5zm-3.524 0v-0.5h-0.5v0.5h0.5zm0 6.7812v0.5h0.5v-0.5h-0.5zm-1.531 0h-0.5v0.5h0.5v-0.5zm0-8.3203v-0.5h-0.5v0.5h0.5zm1.531 0h0.5v-0.5h-0.5v0.5zm0 1.4687h-0.5l1 0.0256-0.5-0.0256zm0.141-0.5703 0.452 0.2129 3e-3 -5e-3 -0.455-0.2079zm0.328-0.4687 0.347 0.3604v-3e-4l-0.347-0.3601zm0.484-0.3125 0.186 0.4644 0.011-0.0049-0.197-0.4595zm3.149 0-0.197 0.4597 0.011 0.0045 0.186-0.4642zm0.484 0.3125-0.347 0.3602 8e-3 0.0067 0.339-0.3669zm0.336 0.4687-0.454 0.2079 3e-3 0.0079 4e-3 0.0078 0.447-0.2236zm0.141 0.5703-0.5 0.0129 0.999 0.0127-0.499-0.0256zm0.133-0.5703-0.455-0.2079-3e-3 0.0061 0.458 0.2018zm0.328-0.4687 0.346 0.3604 1e-3 -3e-4 -0.347-0.3601zm0.484-0.3125 0.186 0.4644 0.011-0.0049-0.197-0.4595zm3.172 0.0078-0.203 0.457 0.011 0.0045 0.192-0.4615zm0.484 0.3281-0.36 0.3468 7e-3 0.0068 7e-3 0.0066 0.346-0.3602zm0.329 0.4844-0.462 0.1923 5e-3 0.0108 0.457-0.2031zm0.125 7.3828v0.5h0.5v-0.5h-0.5zm-1.54 0h-0.5v0.5h0.5v-0.5zm0-6.7812h0.5v-0.5h-0.5v0.5zm-4.015 0v6.7812h1v-6.7812h-1zm0.5 6.2812h-1.539v1h1.539v-1zm-1.039 0.5v-6.7812h-1v6.7812h1zm-0.5-7.2812h-3.524v1h3.524v-1zm-4.024 0.5v6.7812h1v-6.7812h-1zm0.5 6.2812h-1.531v1h1.531v-1zm-1.031 0.5v-8.3203h-1v8.3203h1zm-0.5-7.8203h1.531v-1h-1.531v1zm1.031-0.5v1.4687h1v-1.4687h-1zm1 1.4943c7e-3 -0.1408 0.039-0.267 0.093-0.383l-0.904-0.4258c-0.112 0.2382-0.174 0.4922-0.188 0.7576l0.999 0.0512zm0.096-0.388c0.059-0.129 0.133-0.2324 0.22-0.3162l-0.693-0.7208c-0.184 0.1766-0.329 0.3856-0.437 0.6212l0.91 0.4158zm0.22-0.3165c0.094-0.0904 0.2-0.1593 0.323-0.2084l-0.371-0.9285c-0.242 0.0968-0.458 0.2362-0.646 0.4166l0.694 0.7203zm0.334-0.2131c0.117-0.0501 0.245-0.0767 0.389-0.0767v-1c-0.272 0-0.535 0.0515-0.782 0.1576l0.393 0.9191zm0.389-0.0767h1.985v-1h-1.985v1zm1.985 0c0.137 0 0.262 0.0259 0.381 0.0767l0.394-0.9191c-0.246-0.1054-0.506-0.1576-0.775-0.1576v1zm0.392 0.0814c0.123 0.0491 0.23 0.118 0.323 0.2084l0.694-0.7203c-0.187-0.1804-0.404-0.3198-0.645-0.4166l-0.372 0.9285zm0.331 0.2152c0.09 0.0832 0.163 0.1847 0.221 0.3097l0.909-0.4158c-0.11-0.2395-0.26-0.4506-0.451-0.6277l-0.679 0.7338zm0.228 0.3254c0.055 0.1098 0.085 0.2277 0.088 0.3596l1-0.0257c-7e-3 -0.2744-0.071-0.5367-0.194-0.7811l-0.894 0.4472zm1.087 0.3723c8e-3 -0.1454 0.039-0.2755 0.091-0.3941l-0.915-0.4036c-0.104 0.2356-0.161 0.4857-0.174 0.7465l0.998 0.0512zm0.088-0.388c0.059-0.129 0.133-0.2324 0.22-0.3162l-0.693-0.7208c-0.183 0.1766-0.328 0.3856-0.436 0.6212l0.909 0.4158zm0.221-0.3165c0.093-0.0904 0.2-0.1593 0.323-0.2084l-0.372-0.9285c-0.241 0.0968-0.458 0.2362-0.645 0.4166l0.694 0.7203zm0.334-0.2131c0.117-0.0501 0.245-0.0767 0.389-0.0767v-1c-0.272 0-0.535 0.0515-0.783 0.1576l0.394 0.9191zm0.389-0.0767h1.984v-1h-1.984v1zm1.984 0c0.147 0 0.278 0.0281 0.399 0.0819l0.406-0.9138c-0.254-0.1129-0.524-0.1681-0.805-0.1681v1zm0.41 0.0865c0.127 0.0529 0.23 0.1241 0.316 0.2134l0.721-0.6936c-0.185-0.192-0.405-0.3395-0.653-0.4429l-0.384 0.9231zm0.33 0.2268c0.089 0.086 0.16 0.1896 0.213 0.3165l0.923-0.3846c-0.103-0.2481-0.251-0.4674-0.443-0.6522l-0.693 0.7203zm0.218 0.3273c0.053 0.1209 0.082 0.252 0.082 0.3985h1c0-0.2806-0.056-0.5506-0.169-0.8047l-0.913 0.4062zm0.082 0.3985v6.7812h1v-6.7812h-1zm0.5 6.2812h-1.54v1h1.54v-1zm-1.04 0.5v-6.7812h-1v6.7812h1zm-0.5-7.2812h-3.515v1h3.515v-1zm11.389 3.9062v0.5h0.5v-0.5h-0.5zm-5.508 0v-0.5h-0.5v0.5h0.5zm0 1.8359h-0.5v0.5h0.5v-0.5zm5.508 0h0.5v-0.5h-0.5v0.5zm0 1.5391v0.5h0.5v-0.5h-0.5zm-6.102-0.1172-0.203 0.457 0.011 0.0046 0.192-0.4616zm-0.492-0.3281-0.36 0.3468 7e-3 0.0068 6e-3 0.0065 0.347-0.3601zm-0.328-0.4922-0.462 0.1924 5e-3 0.0107 0.457-0.2031zm0-6.4453-0.457-0.2031-4e-3 0.0108 0.461 0.1923zm0.328-0.4844-0.353-0.3535 0.353 0.3535zm0.492-0.3281 0.193 0.4617 0.01-0.0048-0.203-0.4569zm5.164 0-0.203 0.457 0.011 0.0045 0.192-0.4615zm0.485 0.3281-0.36 0.3468 6e-3 0.0068 7e-3 0.0066 0.347-0.3602zm0.328 0.4844-0.462 0.1923 5e-3 0.0108 0.457-0.2031zm-5.383 0.6016v-0.5h-0.5v0.5h0.5zm0 1.8671h-0.5v0.5h0.5v-0.5zm3.969 0v0.5h0.5v-0.5h-0.5zm0-1.8671h0.5v-0.5h-0.5v0.5zm1.539 2.9062h-5.508v1h5.508v-1zm-6.008 0.5v1.8359h1v-1.8359h-1zm0.5 2.3359h5.508v-1h-5.508v1zm5.008-0.5v1.5391h1v-1.5391h-1zm0.5 1.0391h-5.508v1h5.508v-1zm-5.508 0c-0.144 0-0.276-0.0266-0.401-0.0787l-0.385 0.9231c0.25 0.1041 0.514 0.1556 0.786 0.1556v-1zm-0.391-0.0741c-0.137-0.0609-0.251-0.1384-0.348-0.2314l-0.694 0.7203c0.185 0.1779 0.398 0.3192 0.636 0.4249l0.406-0.9138zm-0.335-0.218c-0.093-0.0966-0.17-0.2114-0.231-0.3485l-0.914 0.4062c0.106 0.2379 0.247 0.4513 0.425 0.6359l0.72-0.6936zm-0.226-0.3377c-0.052-0.1235-0.079-0.2583-0.079-0.4093h-1c0 0.2762 0.051 0.5424 0.156 0.7939l0.923-0.3846zm-0.079-0.4093v-5.2421h-1v5.2421h1zm0-5.2421c0-0.151 0.027-0.2858 0.079-0.4093l-0.923-0.3846c-0.105 0.2515-0.156 0.5177-0.156 0.7939h1zm0.074-0.3985c0.06-0.1355 0.136-0.2449 0.225-0.3339l-0.707-0.7071c-0.182 0.1818-0.325 0.3953-0.432 0.6348l0.914 0.4062zm0.225-0.3339c0.093-0.0935 0.202-0.1666 0.331-0.2202l-0.385-0.9231c-0.246 0.1027-0.466 0.2484-0.653 0.4362l0.707 0.7071zm0.341-0.2248c0.123-0.0545 0.252-0.0819 0.391-0.0819v-1c-0.277 0-0.544 0.0559-0.797 0.1681l0.406 0.9138zm0.391-0.0819h3.969v-1h-3.969v1zm3.969 0c0.146 0 0.277 0.0281 0.398 0.0819l0.407-0.9138c-0.255-0.1129-0.525-0.1681-0.805-0.1681v1zm0.409 0.0865c0.127 0.0529 0.231 0.1241 0.317 0.2134l0.72-0.6936c-0.185-0.192-0.404-0.3395-0.652-0.4429l-0.385 0.9231zm0.33 0.2268c0.089 0.086 0.161 0.1896 0.213 0.3165l0.923-0.3846c-0.103-0.2481-0.25-0.4674-0.442-0.6522l-0.694 0.7203zm0.218 0.3273c0.054 0.1209 0.082 0.252 0.082 0.3985h1c0-0.2806-0.055-0.5506-0.168-0.8047l-0.914 0.4062zm0.082 0.3985v3.4062h1v-3.4062h-1zm-5.508 0v1.8671h1v-1.8671h-1zm0.5 2.3671h3.969v-1h-3.969v1zm4.469-0.5v-1.8671h-1v1.8671h1zm-0.5-2.3671h-3.969v1h3.969v-1zm-77.6 19.055-0.457-0.203-2e-3 0.0061 0.459 0.1969zm0.328-0.4922-0.353-0.3536-7e-3 0.0068 0.36 0.3468zm0.492-0.3281 0.193 0.4617 0.011-0.0048-0.204-0.4569zm4.563-0.125v0.5h0.5v-0.5h-0.5zm0-1.6093h0.5v-0.5h-0.5v0.5zm-5.023 0h-0.5v0.5h0.5v-0.5zm0-1.5391v-0.5h-0.5v0.5h0.5zm5.625 0.125-0.204 0.457 0.011 0.0045 0.193-0.4615zm0.484 0.3281-0.36 0.3468 6e-3 0.0068 7e-3 0.0066 0.347-0.3602zm0.328 0.4844-0.462 0.1923 5e-3 0.0108 0.457-0.2031zm0.125 7.3828v0.5h0.5v-0.5h-0.5zm-1.539 0h-0.5v0.5h0.5v-0.5zm0-1.4062h0.5l-0.998-0.0405 0.498 0.0405zm-0.5 1 0.339 0.3674 1e-3 -6e-4 -0.34-0.3668zm-4.063 0.289-0.203 0.457 0.011 0.0046 0.192-0.4616zm-0.492-0.3281-0.36 0.3468 7e-3 0.0068 6e-3 0.0065 0.347-0.3601zm-0.328-0.4922-0.461 0.1924 4e-3 0.0107 0.457-0.2031zm1.414-0.6016h-0.5v0.5h0.5v-0.5zm3.969 0v0.5h0.5v-0.5h-0.5zm0-2.0937h0.5v-0.5h-0.5v0.5zm-3.969 0v-0.5h-0.5v0.5h0.5zm-1.031 0c0-0.1511 0.027-0.2814 0.077-0.3968l-0.919-0.3939c-0.107 0.2492-0.158 0.5147-0.158 0.7907h1zm0.074-0.3907c0.061-0.1371 0.138-0.2518 0.231-0.3484l-0.72-0.6937c-0.178 0.1847-0.319 0.398-0.425 0.636l0.914 0.4061zm0.225-0.3417c0.093-0.0934 0.202-0.1666 0.331-0.2201l-0.385-0.9231c-0.246 0.1027-0.465 0.2483-0.653 0.4361l0.707 0.7071zm0.342-0.2248c0.122-0.0544 0.251-0.0819 0.39-0.0819v-1c-0.277 0-0.544 0.0559-0.797 0.1681l0.407 0.9138zm0.39-0.0819h3.969v-1h-3.969v1zm4.469-0.5v-1.6093h-1v1.6093h1zm-0.5-2.1093h-5.023v1h5.023v-1zm-4.523 0.5v-1.5391h-1v1.5391h1zm-0.5-1.0391h5.023v-1h-5.023v1zm5.023 0c0.146 0 0.278 0.0281 0.398 0.0819l0.407-0.9138c-0.254-0.1129-0.524-0.1681-0.805-0.1681v1zm0.409 0.0865c0.127 0.0529 0.231 0.1241 0.317 0.2134l0.72-0.6936c-0.185-0.192-0.404-0.3395-0.652-0.4429l-0.385 0.9231zm0.33 0.2268c0.089 0.086 0.161 0.1896 0.214 0.3165l0.923-0.3846c-0.104-0.2481-0.251-0.4674-0.443-0.6522l-0.694 0.7203zm0.218 0.3273c0.054 0.1209 0.082 0.252 0.082 0.3985h1c0-0.2806-0.055-0.5506-0.168-0.8047l-0.914 0.4062zm0.082 0.3985v6.7812h1v-6.7812h-1zm0.5 6.2812h-1.539v1h1.539v-1zm-1.039 0.5v-1.4062h-1v1.4062h1zm-0.998-1.4467c-0.011 0.127-0.044 0.2452-0.103 0.3583l0.889 0.458c0.119-0.2306 0.189-0.4769 0.21-0.7354l-0.996-0.0809zm-0.103 0.3583c-0.062 0.1207-0.141 0.2249-0.239 0.3153l0.68 0.7337c0.183-0.1701 0.333-0.3679 0.448-0.591l-0.889-0.458zm-0.238 0.3147c-0.09 0.0833-0.196 0.1507-0.32 0.202l0.381 0.9247c0.229-0.0946 0.436-0.2251 0.617-0.3918l-0.678-0.7349zm-0.32 0.202c-0.115 0.0472-0.237 0.0717-0.372 0.0717v1c0.261 0 0.513-0.0484 0.753-0.147l-0.381-0.9247zm-0.372 0.0717h-2.438v1h2.438v-1zm-2.438 0c-0.144 0-0.276-0.0266-0.401-0.0787l-0.385 0.9231c0.25 0.1041 0.514 0.1556 0.786 0.1556v-1zm-0.39-0.0741c-0.137-0.0609-0.252-0.1384-0.349-0.2314l-0.694 0.7203c0.185 0.1779 0.398 0.3192 0.636 0.4249l0.407-0.9138zm-0.336-0.218c-0.093-0.0966-0.17-0.2114-0.231-0.3485l-0.914 0.4062c0.106 0.2379 0.247 0.4513 0.425 0.6359l0.72-0.6936zm-0.226-0.3377c-0.052-0.1235-0.079-0.2583-0.079-0.4093h-1c0 0.2762 0.051 0.5424 0.156 0.7939l0.923-0.3846zm-0.079-0.4093v-2.0937h-1v2.0937h1zm1.031 0.5h3.969v-1h-3.969v1zm4.469-0.5v-2.0937h-1v2.0937h1zm-0.5-2.5937h-3.969v1h3.969v-1zm-4.469 0.5v2.0937h1v-2.0937h-1zm16.178 3.6328v0.5h0.5v-0.5h-0.5zm-1.539 0h-0.5v0.5h0.5v-0.5zm0-6.7812h0.5v-0.5h-0.5v0.5zm-4.289 0v-0.5h-0.5v0.5h0.5zm0 6.7812v0.5h0.5v-0.5h-0.5zm-1.532 0h-0.5v0.5h0.5v-0.5zm0-8.3203v-0.5h-0.5v0.5h0.5zm1.532 0h0.5v-0.5h-0.5v0.5zm0 1.4687h-0.5l0.999 0.0256-0.499-0.0256zm0.14-0.5703 0.453 0.2129 2e-3 -5e-3 -0.455-0.2079zm0.328-0.4687 0.347 0.3604v-3e-4l-0.347-0.3601zm0.485-0.3125 0.185 0.4644 0.012-0.0049-0.197-0.4595zm3.937 0.0078-0.203 0.457 0.011 0.0045 0.192-0.4615zm0.485 0.3281-0.361 0.3468 7e-3 0.0068 7e-3 0.0066 0.347-0.3602zm0.328 0.4844-0.462 0.1923 5e-3 0.0108 0.457-0.2031zm0.125 6.8828h-1.539v1h1.539v-1zm-1.039 0.5v-6.7812h-1v6.7812h1zm-0.5-7.2812h-4.289v1h4.289v-1zm-4.789 0.5v6.7812h1v-6.7812h-1zm0.5 6.2812h-1.532v1h1.532v-1zm-1.032 0.5v-8.3203h-1v8.3203h1zm-0.5-7.8203h1.532v-1h-1.532v1zm1.032-0.5v1.4687h1v-1.4687h-1zm0.999 1.4943c7e-3 -0.1408 0.039-0.267 0.094-0.383l-0.905-0.4258c-0.112 0.2382-0.174 0.4922-0.188 0.7576l0.999 0.0512zm0.096-0.388c0.059-0.129 0.133-0.2324 0.22-0.3162l-0.693-0.7208c-0.184 0.1766-0.329 0.3856-0.436 0.6212l0.909 0.4158zm0.22-0.3165c0.094-0.0904 0.201-0.1593 0.323-0.2084l-0.371-0.9285c-0.242 0.0968-0.458 0.2362-0.645 0.4166l0.693 0.7203zm0.335-0.2131c0.117-0.0501 0.245-0.0767 0.389-0.0767v-1c-0.273 0-0.536 0.0515-0.783 0.1576l0.394 0.9191zm0.389-0.0767h2.75v-1h-2.75v1zm2.75 0c0.146 0 0.277 0.0281 0.398 0.0819l0.406-0.9138c-0.254-0.1129-0.524-0.1681-0.804-0.1681v1zm0.409 0.0865c0.127 0.0529 0.23 0.1241 0.316 0.2134l0.721-0.6936c-0.185-0.192-0.404-0.3395-0.652-0.4429l-0.385 0.9231zm0.33 0.2268c0.089 0.086 0.16 0.1896 0.213 0.3165l0.923-0.3846c-0.103-0.2481-0.251-0.4674-0.443-0.6522l-0.693 0.7203zm0.218 0.3273c0.054 0.1209 0.082 0.252 0.082 0.3985h1c0-0.2806-0.055-0.5506-0.168-0.8047l-0.914 0.4062zm0.082 0.3985v6.7812h1v-6.7812h-1zm15.378 3.4062v0.5h0.5v-0.5h-0.5zm-5.508 0v-0.5h-0.5v0.5h0.5zm0 1.8359h-0.5v0.5h0.5v-0.5zm5.508 0h0.5v-0.5h-0.5v0.5zm0 1.5391v0.5h0.5v-0.5h-0.5zm-6.101-0.1172-0.204 0.457 0.011 0.0046 0.193-0.4616zm-0.493-0.3281-0.36 0.3468 7e-3 0.0068 7e-3 0.0065 0.346-0.3601zm-0.328-0.4922-0.461 0.1924 4e-3 0.0107 0.457-0.2031zm0-6.4453-0.457-0.2031-4e-3 0.0108 0.461 0.1923zm0.328-0.4844-0.353-0.3535 0.353 0.3535zm0.493-0.3281 0.192 0.4617 0.011-0.0048-0.203-0.4569zm5.164 0-0.203 0.457 0.01 0.0045 0.193-0.4615zm0.484 0.3281-0.36 0.3468 6e-3 0.0068 7e-3 0.0066 0.347-0.3602zm0.328 0.4844-0.461 0.1923 4e-3 0.0108 0.457-0.2031zm-5.383 0.6016v-0.5h-0.5v0.5h0.5zm0 1.8671h-0.5v0.5h0.5v-0.5zm3.969 0v0.5h0.5v-0.5h-0.5zm0-1.8671h0.5v-0.5h-0.5v0.5zm1.539 2.9062h-5.508v1h5.508v-1zm-6.008 0.5v1.8359h1v-1.8359h-1zm0.5 2.3359h5.508v-1h-5.508v1zm5.008-0.5v1.5391h1v-1.5391h-1zm0.5 1.0391h-5.508v1h5.508v-1zm-5.508 0c-0.144 0-0.276-0.0266-0.401-0.0787l-0.385 0.9231c0.25 0.1041 0.514 0.1556 0.786 0.1556v-1zm-0.39-0.0741c-0.137-0.0609-0.252-0.1384-0.349-0.2314l-0.693 0.7203c0.184 0.1779 0.398 0.3192 0.636 0.4249l0.406-0.9138zm-0.335-0.218c-0.093-0.0966-0.171-0.2114-0.232-0.3485l-0.914 0.4062c0.106 0.2379 0.247 0.4513 0.425 0.6359l0.721-0.6936zm-0.227-0.3377c-0.052-0.1235-0.079-0.2583-0.079-0.4093h-1c0 0.2762 0.051 0.5424 0.156 0.7939l0.923-0.3846zm-0.079-0.4093v-5.2421h-1v5.2421h1zm0-5.2421c0-0.151 0.027-0.2858 0.079-0.4093l-0.923-0.3846c-0.105 0.2515-0.156 0.5177-0.156 0.7939h1zm0.074-0.3985c0.06-0.1355 0.136-0.2449 0.225-0.3339l-0.707-0.7071c-0.182 0.1818-0.325 0.3953-0.432 0.6348l0.914 0.4062zm0.225-0.3339c0.093-0.0935 0.202-0.1666 0.331-0.2202l-0.385-0.9231c-0.246 0.1027-0.465 0.2484-0.653 0.4362l0.707 0.7071zm0.342-0.2248c0.122-0.0545 0.251-0.0819 0.39-0.0819v-1c-0.277 0-0.544 0.0559-0.796 0.1681l0.406 0.9138zm0.39-0.0819h3.969v-1h-3.969v1zm3.969 0c0.147 0 0.278 0.0281 0.399 0.0819l0.406-0.9138c-0.254-0.1129-0.524-0.1681-0.805-0.1681v1zm0.409 0.0865c0.127 0.0529 0.231 0.1241 0.317 0.2134l0.72-0.6936c-0.185-0.192-0.404-0.3395-0.652-0.4429l-0.385 0.9231zm0.33 0.2268c0.09 0.086 0.161 0.1896 0.214 0.3165l0.923-0.3846c-0.104-0.2481-0.251-0.4674-0.443-0.6522l-0.694 0.7203zm0.218 0.3273c0.054 0.1209 0.082 0.252 0.082 0.3985h1c0-0.2806-0.055-0.5506-0.168-0.8047l-0.914 0.4062zm0.082 0.3985v3.4062h1v-3.4062h-1zm-5.508 0v1.8671h1v-1.8671h-1zm0.5 2.3671h3.969v-1h-3.969v1zm4.469-0.5v-1.8671h-1v1.8671h1zm-0.5-2.3671h-3.969v1h3.969v-1zm4.349 2v-0.5h-0.5v0.5h0.5zm3.743 0h0.5v-0.5h-0.5v0.5zm0 1.539v0.5h0.5v-0.5h-0.5zm-3.743 0h-0.5v0.5h0.5v-0.5zm0-1.039h3.743v-1h-3.743v1zm3.243-0.5v1.539h1v-1.539h-1zm0.5 1.039h-3.743v1h3.743v-1zm-3.243 0.5v-1.539h-1v1.539h1zm12.647-3.039v-0.5h-0.5v0.5h0.5zm0 6.7812v0.5h0.5v-0.5h-0.5zm-1.539 0h-0.5v0.5h0.5v-0.5zm0-6.7812h0.5v-0.5h-0.5v0.5zm-3.524 0v-0.5h-0.5v0.5h0.5zm0 6.7812v0.5h0.5v-0.5h-0.5zm-1.531 0h-0.5v0.5h0.5v-0.5zm0-8.3203v-0.5h-0.5v0.5h0.5zm1.531 0h0.5v-0.5h-0.5v0.5zm0 1.4687h-0.5l1 0.0256-0.5-0.0256zm0.141-0.5703 0.452 0.2129 3e-3 -5e-3 -0.455-0.2079zm0.328-0.4687 0.347 0.3604v-3e-4l-0.347-0.3601zm0.484-0.3125 0.186 0.4644 0.011-0.0049-0.197-0.4595zm3.149 0-0.197 0.4597 0.011 0.0045 0.186-0.4642zm0.484 0.3125-0.347 0.3602 7e-3 0.0067 0.34-0.3669zm0.336 0.4687-0.455 0.2079 4e-3 0.0079 4e-3 0.0078 0.447-0.2236zm0.141 0.5703-0.5 0.0129 0.999 0.0127-0.499-0.0256zm0.133-0.5703-0.455-0.2079-3e-3 0.0061 0.458 0.2018zm0.328-0.4687 0.346 0.3604 1e-3 -3e-4 -0.347-0.3601zm0.484-0.3125 0.186 0.4644 0.011-0.0049-0.197-0.4595zm3.172 0.0078-0.203 0.457 0.011 0.0045 0.192-0.4615zm0.484 0.3281-0.36 0.3468 7e-3 0.0068 6e-3 0.0066 0.347-0.3602zm0.328 0.4844-0.461 0.1923 5e-3 0.0108 0.456-0.2031zm0.125 7.3828v0.5h0.5v-0.5h-0.5zm-1.539 0h-0.5v0.5h0.5v-0.5zm0-6.7812h0.5v-0.5h-0.5v0.5zm-4.015 0v6.7812h1v-6.7812h-1zm0.5 6.2812h-1.539v1h1.539v-1zm-1.039 0.5v-6.7812h-1v6.7812h1zm-0.5-7.2812h-3.524v1h3.524v-1zm-4.024 0.5v6.7812h1v-6.7812h-1zm0.5 6.2812h-1.531v1h1.531v-1zm-1.031 0.5v-8.3203h-1v8.3203h1zm-0.5-7.8203h1.531v-1h-1.531v1zm1.031-0.5v1.4687h1v-1.4687h-1zm1 1.4943c7e-3 -0.1408 0.039-0.267 0.093-0.383l-0.905-0.4258c-0.112 0.2382-0.173 0.4922-0.187 0.7576l0.999 0.0512zm0.096-0.388c0.059-0.129 0.132-0.2324 0.22-0.3162l-0.694-0.7208c-0.183 0.1766-0.328 0.3856-0.436 0.6212l0.91 0.4158zm0.22-0.3165c0.094-0.0904 0.2-0.1593 0.323-0.2084l-0.371-0.9285c-0.242 0.0968-0.458 0.2362-0.646 0.4166l0.694 0.7203zm0.334-0.2131c0.117-0.0501 0.245-0.0767 0.389-0.0767v-1c-0.272 0-0.535 0.0515-0.783 0.1576l0.394 0.9191zm0.389-0.0767h1.985v-1h-1.985v1zm1.985 0c0.137 0 0.262 0.0259 0.381 0.0767l0.394-0.9191c-0.246-0.1054-0.506-0.1576-0.775-0.1576v1zm0.392 0.0814c0.123 0.0491 0.23 0.118 0.323 0.2084l0.694-0.7203c-0.187-0.1804-0.404-0.3198-0.645-0.4166l-0.372 0.9285zm0.33 0.2152c0.09 0.0832 0.164 0.1847 0.221 0.3097l0.91-0.4158c-0.11-0.2395-0.26-0.4506-0.451-0.6277l-0.68 0.7338zm0.229 0.3254c0.055 0.1098 0.085 0.2277 0.088 0.3596l1-0.0257c-7e-3 -0.2744-0.071-0.5367-0.194-0.7811l-0.894 0.4472zm1.087 0.3723c8e-3 -0.1454 0.039-0.2755 0.091-0.3941l-0.915-0.4036c-0.104 0.2356-0.161 0.4857-0.175 0.7465l0.999 0.0512zm0.088-0.388c0.059-0.129 0.133-0.2324 0.22-0.3162l-0.693-0.7208c-0.184 0.1766-0.328 0.3856-0.436 0.6212l0.909 0.4158zm0.221-0.3165c0.093-0.0904 0.2-0.1593 0.323-0.2084l-0.372-0.9285c-0.241 0.0968-0.458 0.2362-0.645 0.4166l0.694 0.7203zm0.334-0.2131c0.117-0.0501 0.245-0.0767 0.389-0.0767v-1c-0.273 0-0.535 0.0515-0.783 0.1576l0.394 0.9191zm0.389-0.0767h1.984v-1h-1.984v1zm1.984 0c0.147 0 0.278 0.0281 0.399 0.0819l0.406-0.9138c-0.254-0.1129-0.524-0.1681-0.805-0.1681v1zm0.41 0.0865c0.127 0.0529 0.23 0.1241 0.316 0.2134l0.72-0.6936c-0.184-0.192-0.404-0.3395-0.652-0.4429l-0.384 0.9231zm0.329 0.2268c0.09 0.086 0.161 0.1896 0.214 0.3165l0.923-0.3846c-0.103-0.2481-0.251-0.4674-0.443-0.6522l-0.694 0.7203zm0.219 0.3273c0.053 0.1209 0.081 0.252 0.081 0.3985h1c0-0.2806-0.055-0.5506-0.168-0.8047l-0.913 0.4062zm0.081 0.3985v6.7812h1v-6.7812h-1zm0.5 6.2812h-1.539v1h1.539v-1zm-1.039 0.5v-6.7812h-1v6.7812h1zm-0.5-7.2812h-3.515v1h3.515v-1zm4.467 3.0546-0.457-0.203-3e-3 0.0061 0.46 0.1969zm0.328-0.4922-0.354-0.3536-6e-3 0.0068 0.36 0.3468zm0.492-0.3281 0.193 0.4617 0.01-0.0048-0.203-0.4569zm4.563-0.125v0.5h0.5v-0.5h-0.5zm0-1.6093h0.5v-0.5h-0.5v0.5zm-5.024 0h-0.5v0.5h0.5v-0.5zm0-1.5391v-0.5h-0.5v0.5h0.5zm5.625 0.125-0.203 0.457 0.011 0.0045 0.192-0.4615zm0.485 0.3281-0.36 0.3468 6e-3 0.0068 7e-3 0.0066 0.347-0.3602zm0.328 0.4844-0.462 0.1923 5e-3 0.0108 0.457-0.2031zm0.125 7.3828v0.5h0.5v-0.5h-0.5zm-1.539 0h-0.5v0.5h0.5v-0.5zm0-1.4062h0.5l-0.999-0.0405 0.499 0.0405zm-0.5 1 0.339 0.3674v-6e-4l-0.339-0.3668zm-4.063 0.289-0.203 0.457 0.011 0.0046 0.192-0.4616zm-0.492-0.3281-0.36 0.3468 6e-3 0.0068 7e-3 0.0065 0.347-0.3601zm-0.328-0.4922-0.462 0.1924 5e-3 0.0107 0.457-0.2031zm1.414-0.6016h-0.5v0.5h0.5v-0.5zm3.969 0v0.5h0.5v-0.5h-0.5zm0-2.0937h0.5v-0.5h-0.5v0.5zm-3.969 0v-0.5h-0.5v0.5h0.5zm-1.031 0c0-0.1511 0.027-0.2814 0.077-0.3968l-0.92-0.3939c-0.106 0.2492-0.157 0.5147-0.157 0.7907h1zm0.074-0.3907c0.061-0.1371 0.138-0.2518 0.231-0.3484l-0.72-0.6937c-0.178 0.1847-0.319 0.398-0.425 0.636l0.914 0.4061zm0.225-0.3417c0.093-0.0934 0.202-0.1666 0.331-0.2201l-0.385-0.9231c-0.247 0.1027-0.466 0.2483-0.653 0.4361l0.707 0.7071zm0.341-0.2248c0.123-0.0544 0.252-0.0819 0.391-0.0819v-1c-0.277 0-0.544 0.0559-0.797 0.1681l0.406 0.9138zm0.391-0.0819h3.969v-1h-3.969v1zm4.469-0.5v-1.6093h-1v1.6093h1zm-0.5-2.1093h-5.024v1h5.024v-1zm-4.524 0.5v-1.5391h-1v1.5391h1zm-0.5-1.0391h5.024v-1h-5.024v1zm5.024 0c0.146 0 0.277 0.0281 0.398 0.0819l0.406-0.9138c-0.254-0.1129-0.524-0.1681-0.804-0.1681v1zm0.409 0.0865c0.127 0.0529 0.231 0.1241 0.317 0.2134l0.72-0.6936c-0.185-0.192-0.404-0.3395-0.652-0.4429l-0.385 0.9231zm0.33 0.2268c0.089 0.086 0.16 0.1896 0.213 0.3165l0.923-0.3846c-0.103-0.2481-0.251-0.4674-0.442-0.6522l-0.694 0.7203zm0.218 0.3273c0.054 0.1209 0.082 0.252 0.082 0.3985h1c0-0.2806-0.055-0.5506-0.168-0.8047l-0.914 0.4062zm0.082 0.3985v6.7812h1v-6.7812h-1zm0.5 6.2812h-1.539v1h1.539v-1zm-1.039 0.5v-1.4062h-1v1.4062h1zm-0.999-1.4467c-0.01 0.127-0.044 0.2452-0.102 0.3583l0.889 0.458c0.119-0.2306 0.189-0.4769 0.21-0.7354l-0.997-0.0809zm-0.102 0.3583c-0.062 0.1207-0.141 0.2249-0.239 0.3153l0.679 0.7337c0.184-0.1701 0.334-0.3679 0.449-0.591l-0.889-0.458zm-0.238 0.3147c-0.091 0.0833-0.196 0.1507-0.32 0.202l0.38 0.9247c0.23-0.0946 0.437-0.2251 0.618-0.3918l-0.678-0.7349zm-0.32 0.202c-0.115 0.0472-0.238 0.0717-0.373 0.0717v1c0.261 0 0.514-0.0484 0.753-0.147l-0.38-0.9247zm-0.373 0.0717h-2.437v1h2.437v-1zm-2.437 0c-0.144 0-0.276-0.0266-0.401-0.0787l-0.385 0.9231c0.25 0.1041 0.513 0.1556 0.786 0.1556v-1zm-0.391-0.0741c-0.137-0.0609-0.252-0.1384-0.348-0.2314l-0.694 0.7203c0.185 0.1779 0.398 0.3192 0.636 0.4249l0.406-0.9138zm-0.335-0.218c-0.093-0.0966-0.17-0.2114-0.231-0.3485l-0.914 0.4062c0.106 0.2379 0.247 0.4513 0.425 0.6359l0.72-0.6936zm-0.227-0.3377c-0.051-0.1235-0.078-0.2583-0.078-0.4093h-1c0 0.2762 0.051 0.5424 0.155 0.7939l0.923-0.3846zm-0.078-0.4093v-2.0937h-1v2.0937h1zm1.031 0.5h3.969v-1h-3.969v1zm4.469-0.5v-2.0937h-1v2.0937h1zm-0.5-2.5937h-3.969v1h3.969v-1zm-4.469 0.5v2.0937h1v-2.0937h-1zm10.435-4.6875h0.5v-0.5h-0.5v0.5zm0 8.3203v0.5h0.5v-0.5h-0.5zm-1.539 0h-0.5v0.5h0.5v-0.5zm0-8.3203v-0.5h-0.5v0.5h0.5zm-0.078-3.2031v-0.5h-0.5v0.5h0.5zm1.695 0h0.5v-0.5h-0.5v0.5zm0 1.6015v0.5h0.5v-0.5h-0.5zm-1.695 0h-0.5v0.5h0.5v-0.5zm1.117 1.6016v8.3203h1v-8.3203h-1zm0.5 7.8203h-1.539v1h1.539v-1zm-1.039 0.5v-8.3203h-1v8.3203h1zm-0.5-7.8203h1.539v-1h-1.539v1zm-0.078-3.2031h1.695v-1h-1.695v1zm1.195-0.5v1.6015h1v-1.6015h-1zm0.5 1.1015h-1.695v1h1.695v-1zm-1.195 0.5v-1.6015h-1v1.6015h1zm5.537-1.6015h0.5v-0.5h-0.5v0.5zm0 11.523v0.5h0.5v-0.5h-0.5zm-1.531 0h-0.5v0.5h0.5v-0.5zm0-11.523v-0.5h-0.5v0.5h0.5zm1.031 0v11.523h1v-11.523h-1zm0.5 11.023h-1.531v1h1.531v-1zm-1.031 0.5v-11.523h-1v11.523h1zm-0.5-11.023h1.531v-1h-1.531v1zm9.933 6.8672-0.498 0.0452 0.041 0.4548h0.457v-0.5zm-0.641-7.0469v-0.5h-0.547l0.049 0.5452 0.498-0.0452zm2.172 0 0.498 0.0452 0.05-0.5452h-0.548v0.5zm-0.641 7.0469v0.5h0.457l0.041-0.4548-0.498-0.0452zm-1.617 1.8203v-0.5h-0.5v0.5h0.5zm2.336 0h0.5v-0.5h-0.5v0.5zm0 2.3359v0.5h0.5v-0.5h-0.5zm-2.336 0h-0.5v0.5h0.5v-0.5zm1.225-4.2015-0.641-7.0469-0.996 0.0905 0.641 7.0469 0.996-0.0905zm-1.139-6.5016h2.172v-1h-2.172v1zm1.674-0.5453-0.64 7.0469 0.995 0.0905 0.641-7.0469-0.996-0.0905zm-0.143 6.5922h-0.89v1h0.89v-1zm-1.617 2.8203h2.336v-1h-2.336v1zm1.836-0.5v2.3359h1v-2.3359h-1zm0.5 1.8359h-2.336v1h2.336v-1zm-1.836 0.5v-2.3359h-1v2.3359h1z" fill="#000"/>
</svg>