<svg width="1066" height="785" viewBox="0 0 1066 785" fill="none" xmlns="http://www.w3.org/2000/svg">
<g opacity="0.6">
<g clip-path="url(#clip0)">
<path d="M218.303 118.385H292.016V186.332H218.303V118.385Z" fill="#F7DF1E"/>
<path d="M237.685 175.166L243.326 172.019C244.414 173.798 245.404 175.303 247.779 175.303C250.055 175.303 251.49 174.482 251.49 171.29V149.579H258.417V171.38C258.417 177.993 254.212 181.004 248.076 181.004C242.534 181.004 239.318 178.358 237.685 175.166L237.685 175.166ZM262.18 174.482L267.82 171.472C269.305 173.707 271.235 175.349 274.649 175.349C277.519 175.349 279.349 174.026 279.349 172.202C279.349 170.012 277.469 169.237 274.302 167.96L272.571 167.275C267.573 165.315 264.258 162.852 264.258 157.652C264.258 152.863 268.216 149.214 274.402 149.214C278.805 149.214 281.972 150.628 284.248 154.322L278.854 157.515C277.666 155.554 276.381 154.779 274.401 154.779C272.372 154.779 271.086 155.965 271.086 157.515C271.086 159.431 272.372 160.207 275.341 161.393L277.073 162.077C282.961 164.403 286.276 166.775 286.276 172.11C286.276 177.858 281.378 181.005 274.797 181.005C268.365 181.005 264.208 178.177 262.18 174.482" fill="black"/>
</g>
<g clip-path="url(#clip1)">
<path d="M135.826 112.426L117.184 117.866L98.5416 112.426L94.2397 61.9185H140.129L135.826 112.426Z" fill="#2062AF"/>
<path d="M117.184 66.0096V113.527L117.226 113.539L132.312 109.137L135.795 66.0096H117.184Z" fill="#3C9CD7"/>
<path d="M106.604 54.498V51.4918H110.651V48.2023H103.568V57.4997H110.651V54.498H106.604ZM117.932 51.4918H120.761V48.2023H113.678V51.4918C114.625 52.5188 115.12 53.0103 116.49 54.4956C115.689 54.4956 113.678 54.4987 113.678 54.4986V57.4997H120.761V54.498L117.932 51.4918ZM127.971 51.4918H130.8V48.2023H123.717V51.4918C124.664 52.5188 125.159 53.0103 126.529 54.4956C125.728 54.4956 123.717 54.4987 123.717 54.4986V57.4997H130.8V54.498L127.971 51.4918Z" fill="black"/>
<path d="M117.167 78.6384L103.825 84.6606L104.267 90.623L117.167 84.6455L130.89 78.2872L131.459 72.1879L117.167 78.6384Z" fill="white"/>
<path d="M103.824 84.6605L104.267 90.6229L117.167 84.6454V78.6384L103.824 84.6605Z" fill="url(#paint0_linear)"/>
<path d="M131.459 72.188L117.167 78.6383V84.6454L130.89 78.2871L131.459 72.188Z" fill="url(#paint1_linear)"/>
<path d="M103.845 84.6606L104.288 90.623L124.081 90.6913L123.639 98.6411L117.125 100.628L110.864 98.915L110.485 93.9807H104.667L105.426 103.507L117.189 107.276L128.888 103.575L130.405 84.6606H103.845Z" fill="url(#paint2_linear)"/>
<path opacity="0.05" d="M117.167 84.6606H103.825L104.267 90.623L117.167 90.6676V84.6606ZM117.167 100.609L117.104 100.628L110.844 98.9152L110.464 93.9808H104.647L105.405 103.507L117.167 107.276V100.609Z" fill="black"/>
<path d="M102.623 72.188H131.459L130.89 78.2873H103.318L102.623 72.188Z" fill="url(#paint3_linear)"/>
<path opacity="0.05" d="M117.167 72.188H102.623L103.318 78.2873H117.167V72.188Z" fill="black"/>
</g>
<g clip-path="url(#clip2)">
<path d="M415.109 99.7795L410.734 146.797L391.067 152.028L371.455 146.805L367.084 99.7795H415.109Z" fill="#E44D26"/>
<path d="M391.096 148.03L406.988 143.803L410.727 103.624H391.096V148.03Z" fill="#F16529"/>
<path d="M382.591 115.16H391.096V109.392H376.021L376.164 110.939L377.642 126.833H391.096V121.066H383.141L382.591 115.16ZM383.946 129.717H377.911L378.753 138.773L391.069 142.052L391.096 142.045V136.044L391.07 136.051L384.374 134.317L383.946 129.717Z" fill="#EBEBEB"/>
<path d="M371.552 87H374.607V89.8957H377.402V87H380.458V95.769H377.403V92.8326H374.608V95.769H371.552V87H371.552ZM384.476 89.908H381.786V87H390.223V89.908H387.531V95.769H384.476V89.908H384.476H384.476ZM391.561 87H394.747L396.707 90.0812L398.665 87H401.852V95.769H398.809V91.4226L396.707 94.5405H396.654L394.551 91.4226V95.769H391.561V87ZM403.372 87H406.429V92.8706H410.725V95.769H403.372V87H403.372Z" fill="black"/>
<path d="M391.076 126.833H398.479L397.781 134.313L391.076 136.049V142.049L403.401 138.773L403.491 137.798L404.904 122.614L405.051 121.066H391.076V126.833ZM391.076 115.145V115.16H405.598L405.719 113.863L405.993 110.939L406.136 109.392H391.076V115.146V115.145Z" fill="white"/>
</g>
<g clip-path="url(#clip3)">
<path d="M355.844 559.469C353.047 559.484 350.625 560.156 348.594 561.156C347.844 559.672 347.094 558.375 346.969 557.406C346.829 556.281 346.657 555.594 346.829 554.25C347 552.906 347.782 551 347.782 550.844C347.766 550.703 347.61 550.016 346 550C344.391 549.984 343 550.312 342.844 550.734C342.688 551.156 342.375 552.125 342.172 553.125C341.891 554.594 338.954 559.797 337.282 562.531C336.735 561.469 336.266 560.531 336.172 559.781C336.032 558.656 335.86 557.968 336.032 556.625C336.204 555.281 336.985 553.375 336.985 553.219C336.969 553.078 336.813 552.391 335.204 552.375C333.594 552.359 332.204 552.687 332.047 553.109C331.891 553.531 331.719 554.531 331.376 555.5C331.047 556.469 327.141 565.156 326.125 567.422C325.61 568.578 325.157 569.5 324.829 570.125C324.5 570.75 324.813 570.172 324.782 570.234C324.5 570.766 324.344 571.062 324.344 571.062V571.078C324.125 571.469 323.891 571.844 323.781 571.844C323.703 571.844 323.547 570.797 323.813 569.359C324.391 566.344 325.797 561.641 325.782 561.469C325.782 561.391 326.047 560.562 324.875 560.141C323.735 559.719 323.329 560.422 323.235 560.422C323.141 560.422 323.063 560.672 323.063 560.672C323.063 560.672 324.328 555.375 320.641 555.375C318.328 555.375 315.141 557.891 313.563 560.188C312.563 560.735 310.438 561.891 308.188 563.125C307.328 563.594 306.438 564.094 305.594 564.547L305.422 564.359C300.954 559.594 292.688 556.219 293.032 549.812C293.157 547.484 293.969 541.344 308.907 533.906C321.141 527.812 330.938 529.484 332.641 533.203C335.063 538.516 327.407 548.391 314.688 549.812C309.844 550.359 307.297 548.484 306.657 547.781C305.985 547.047 305.891 547.016 305.641 547.156C305.235 547.375 305.485 548.031 305.641 548.422C306.016 549.406 307.579 551.156 310.235 552.031C312.563 552.797 318.251 553.219 325.126 550.562C332.829 547.578 338.844 539.297 337.079 532.375C335.282 525.328 323.594 523.016 312.547 526.937C305.969 529.281 298.844 532.937 293.719 537.734C287.625 543.422 286.657 548.391 287.063 550.453C288.485 557.812 298.625 562.609 302.688 566.156C302.485 566.265 302.297 566.375 302.125 566.469C300.094 567.468 292.36 571.516 290.422 575.797C288.235 580.64 290.766 584.125 292.454 584.594C297.672 586.047 303.016 583.437 305.907 579.141C308.781 574.844 308.438 569.266 307.11 566.719L307.063 566.625L308.656 565.687C309.688 565.078 310.704 564.516 311.594 564.031C311.094 565.39 310.735 567 310.547 569.343C310.329 572.094 311.454 575.656 312.938 577.062C313.594 577.671 314.375 577.687 314.86 577.687C316.579 577.687 317.36 576.265 318.219 574.562C319.282 572.484 320.219 570.078 320.219 570.078C320.219 570.078 319.047 576.593 322.25 576.593C323.422 576.593 324.594 575.078 325.125 574.297V574.312C325.125 574.312 325.157 574.265 325.219 574.156C325.285 574.059 325.347 573.96 325.407 573.859V573.828C325.875 573.016 326.922 571.156 328.485 568.078C330.5 564.109 332.438 559.141 332.438 559.141C332.438 559.141 332.625 560.359 333.204 562.359C333.547 563.547 334.297 564.844 334.875 566.109C334.406 566.766 334.125 567.141 334.125 567.141L334.141 567.156C333.766 567.656 333.344 568.188 332.907 568.719C331.313 570.625 329.407 572.797 329.157 573.422C328.86 574.156 328.922 574.703 329.5 575.141C329.922 575.453 330.672 575.516 331.469 575.453C332.907 575.359 333.907 575 334.407 574.781C335.188 574.5 336.079 574.078 336.938 573.453C338.5 572.297 339.454 570.656 339.36 568.469C339.313 567.266 338.922 566.078 338.438 564.953C338.579 564.75 338.719 564.547 338.86 564.328C341.329 560.719 343.235 556.75 343.235 556.75C343.235 556.75 343.422 557.969 344 559.969C344.297 560.985 344.891 562.094 345.422 563.188C343.11 565.078 341.657 567.266 341.157 568.703C340.235 571.36 340.954 572.563 342.313 572.844C342.922 572.969 343.797 572.688 344.453 572.407C345.266 572.141 346.25 571.688 347.157 571.016C348.719 569.86 350.219 568.25 350.141 566.078C350.094 565.078 349.829 564.094 349.469 563.157C351.438 562.344 353.985 561.875 357.219 562.266C364.172 563.078 365.547 567.422 365.282 569.235C365.016 571.047 363.563 572.047 363.079 572.36C362.594 572.657 362.438 572.766 362.485 572.985C362.547 573.313 362.766 573.297 363.188 573.235C363.766 573.141 366.844 571.751 366.969 568.407C367.157 564.109 363.079 559.422 355.844 559.469V559.469ZM302.219 577.547C299.922 580.062 296.688 581.016 295.313 580.203C293.829 579.344 294.406 575.641 297.235 572.969C298.954 571.344 301.188 569.844 302.657 568.922C302.985 568.719 303.485 568.422 304.079 568.062C304.172 568 304.235 567.969 304.235 567.969C304.344 567.906 304.469 567.828 304.594 567.75C305.641 571.562 304.641 574.906 302.219 577.547V577.547ZM319.016 566.125C318.219 568.078 316.532 573.094 315.516 572.812C314.641 572.578 314.11 568.781 315.344 565.031C315.969 563.14 317.297 560.891 318.078 560.015C319.344 558.609 320.719 558.14 321.063 558.718C321.469 559.469 319.516 564.906 319.016 566.125ZM332.875 572.75C332.532 572.922 332.219 573.047 332.079 572.953C331.969 572.891 332.219 572.656 332.219 572.656C332.219 572.656 333.953 570.797 334.641 569.938C335.031 569.438 335.5 568.86 336 568.203V568.391C336 570.641 333.844 572.141 332.875 572.75ZM343.563 570.312C343.313 570.125 343.344 569.547 344.188 567.734C344.516 567.016 345.266 565.812 346.563 564.672C346.719 565.141 346.813 565.593 346.797 566.016C346.782 568.828 344.782 569.875 343.563 570.312Z" fill="#CF649A"/>
</g>
<g clip-path="url(#clip4)">
<path d="M0 704.559C0 708.417 3.05521 711.544 6.82384 711.544H46.0979C49.8672 711.544 52.922 708.416 52.922 704.559V664.355C52.922 660.497 49.8668 657.37 46.0982 657.37H6.82404C3.0548 657.37 0 660.497 0 664.355V704.558V704.559Z" fill="#563D7C"/>
<path d="M21.9457 681.333V673.661H28.5425C29.171 673.661 29.7767 673.715 30.3601 673.822C30.9434 673.929 31.4596 674.12 31.9084 674.396C32.357 674.672 32.7161 675.055 32.9855 675.545C33.2547 676.035 33.3894 676.663 33.3894 677.428C33.3894 678.806 32.9855 679.802 32.1776 680.414C31.3699 681.027 30.3377 681.333 29.081 681.333H21.9457ZM14.8998 668.057V700.857H30.4275C31.8636 700.857 33.2623 700.673 34.6236 700.306C35.9849 699.938 37.1965 699.372 38.2587 698.606C39.3206 697.841 40.1659 696.853 40.7942 695.643C41.4226 694.433 41.7367 693.002 41.7367 691.348C41.7367 689.296 41.2504 687.542 40.2782 686.088C39.3058 684.633 37.8322 683.615 35.8575 683.033C37.2937 682.328 38.3784 681.425 39.1114 680.322C39.8443 679.22 40.2108 677.842 40.2108 676.188C40.2108 674.656 39.964 673.37 39.4703 672.329C38.9766 671.288 38.281 670.453 37.3834 669.825C36.486 669.197 35.409 668.746 34.1523 668.47C32.8958 668.194 31.5045 668.057 29.9787 668.057H14.8998ZM21.9457 695.252V686.248H29.6196C31.1454 686.248 32.3721 686.608 33.2997 687.328C34.2271 688.048 34.691 689.25 34.691 690.934C34.691 691.792 34.5488 692.496 34.2645 693.047C33.9803 693.599 33.5989 694.035 33.1201 694.357C32.6415 694.678 32.0879 694.908 31.4596 695.046C30.8312 695.183 30.1732 695.252 29.485 695.252H21.9457Z" fill="white"/>
</g>
<g clip-path="url(#clip5)">
<path d="M89.1118 583.815C89.1118 591.333 96.0379 598.35 106.957 602.306C104.777 613.94 106.567 623.318 112.544 626.971C118.689 630.727 127.843 628.127 136.531 620.078C145 627.802 153.559 630.842 159.532 627.178C165.671 623.411 167.538 613.398 165.297 601.401C176.67 597.415 183.032 591.432 183.032 583.815C183.032 576.472 176.093 570.119 165.321 566.189C167.733 553.696 165.689 544.546 159.464 540.741C153.462 537.073 144.803 540.27 136.209 548.197C127.269 539.784 118.696 537.215 112.477 541.03C106.48 544.709 104.77 554.257 106.957 566.107C96.4063 570.005 89.1118 576.502 89.1118 583.815Z" fill="white"/>
<path d="M163.04 570.093C162.152 569.77 161.257 569.471 160.355 569.196C160.504 568.552 160.642 567.905 160.769 567.255C162.802 556.798 161.473 548.374 156.935 545.601C152.584 542.942 145.468 545.715 138.28 552.343C137.572 552.998 136.88 553.672 136.204 554.363C135.751 553.903 135.29 553.452 134.822 553.01C127.289 545.922 119.739 542.935 115.206 545.717C110.859 548.384 109.571 556.303 111.401 566.213C111.583 567.195 111.789 568.171 112.018 569.141C110.949 569.463 109.918 569.806 108.93 570.17C100.1 573.433 94.4602 578.547 94.4602 583.852C94.4602 589.331 100.514 594.826 109.712 598.158C110.458 598.427 111.21 598.676 111.968 598.905C111.722 599.95 111.503 601.003 111.313 602.061C109.568 611.799 110.93 619.531 115.266 622.181C119.744 624.918 127.26 622.105 134.578 615.325C135.157 614.789 135.737 614.221 136.319 613.625C137.051 614.374 137.803 615.101 138.573 615.805C145.662 622.27 152.664 624.881 156.995 622.223C161.469 619.478 162.923 611.172 161.035 601.066C160.891 600.294 160.723 599.506 160.535 598.703C161.063 598.538 161.581 598.367 162.086 598.19C171.648 594.832 177.869 589.404 177.869 583.852C177.869 578.528 172.048 573.38 163.04 570.093Z" fill="#53C1DE"/>
<path d="M160.965 594.605C160.509 594.765 160.041 594.92 159.564 595.07C158.509 591.528 157.084 587.761 155.341 583.87C157.004 580.072 158.374 576.354 159.4 572.835C160.253 573.097 161.082 573.373 161.88 573.664C169.598 576.48 174.306 580.644 174.306 583.852C174.306 587.269 169.221 591.706 160.966 594.605H160.965ZM157.54 601.8C158.374 606.268 158.494 610.309 157.941 613.467C157.444 616.305 156.445 618.197 155.21 618.955C152.581 620.567 146.959 618.471 140.897 612.942C140.202 612.309 139.502 611.632 138.8 610.916C141.15 608.191 143.499 605.024 145.791 601.507C149.824 601.127 153.633 600.507 157.088 599.661C157.258 600.389 157.409 601.102 157.54 601.8ZM122.896 618.676C120.328 619.638 118.283 619.665 117.046 618.909C114.415 617.301 113.322 611.093 114.813 602.765C114.991 601.781 115.194 600.802 115.422 599.83C118.839 600.631 122.621 601.207 126.663 601.555C128.97 604.996 131.387 608.16 133.823 610.93C133.305 611.461 132.775 611.978 132.233 612.481C128.997 615.479 125.754 617.606 122.896 618.676H122.896ZM110.865 594.584C106.797 593.111 103.439 591.196 101.136 589.107C99.0677 587.229 98.0231 585.365 98.0231 583.852C98.0231 580.633 102.551 576.527 110.104 573.736C111.051 573.388 112.009 573.068 112.974 572.779C114.018 576.377 115.387 580.139 117.04 583.944C115.366 587.805 113.977 591.627 112.924 595.267C112.232 595.057 111.546 594.83 110.865 594.584ZM114.898 565.488C113.33 556.997 114.371 550.592 116.991 548.985C119.782 547.273 125.952 549.714 132.455 555.834C132.871 556.226 133.288 556.635 133.707 557.059C131.284 559.817 128.889 562.956 126.601 566.378C122.679 566.763 118.923 567.382 115.471 568.211C115.258 567.309 115.067 566.4 114.898 565.488V565.488ZM150.877 574.904C150.061 573.411 149.216 571.937 148.34 570.483C151.002 570.839 153.551 571.312 155.946 571.892C155.227 574.333 154.331 576.887 153.276 579.504C152.505 577.954 151.705 576.42 150.877 574.904ZM136.205 559.758C137.848 561.644 139.494 563.752 141.113 566.038C137.829 565.873 134.539 565.872 131.255 566.035C132.875 563.77 134.535 561.666 136.205 559.758ZM121.438 574.93C120.62 576.434 119.835 577.958 119.084 579.501C118.046 576.893 117.158 574.328 116.433 571.852C118.813 571.287 121.351 570.826 123.995 570.476C123.11 571.939 122.258 573.424 121.438 574.93ZM124.071 597.497C121.34 597.174 118.763 596.736 116.384 596.187C117.121 593.667 118.028 591.047 119.088 588.383C119.842 589.927 120.631 591.452 121.453 592.957C122.291 594.492 123.165 596.006 124.071 597.497ZM136.303 608.213C134.614 606.281 132.93 604.145 131.285 601.847C132.882 601.914 134.51 601.947 136.165 601.947C137.865 601.947 139.546 601.907 141.2 601.829C139.576 604.169 137.935 606.308 136.303 608.213ZM153.31 588.247C154.425 590.94 155.365 593.546 156.111 596.024C153.692 596.609 151.082 597.08 148.33 597.429C149.212 595.948 150.066 594.448 150.891 592.931C151.73 591.389 152.537 589.827 153.31 588.247ZM147.804 591.045C146.541 593.371 145.206 595.653 143.803 597.887C141.328 598.075 138.771 598.171 136.165 598.171C133.569 598.171 131.044 598.086 128.613 597.919C127.173 595.689 125.813 593.403 124.536 591.065C123.266 588.74 122.079 586.364 120.978 583.942C122.076 581.521 123.259 579.143 124.526 576.816V576.817C125.792 574.488 127.141 572.212 128.57 569.993C131.051 569.794 133.594 569.69 136.165 569.69C138.748 569.69 141.294 569.795 143.774 569.995C145.189 572.211 146.529 574.479 147.793 576.796C149.064 579.118 150.263 581.484 151.389 583.889C150.275 586.318 149.079 588.705 147.805 591.045H147.804ZM155.155 548.873C157.948 550.58 159.034 557.465 157.279 566.493C157.164 567.081 157.039 567.667 156.904 568.25C153.444 567.404 149.686 566.774 145.752 566.383C143.46 562.924 141.085 559.779 138.701 557.057C139.326 556.419 139.966 555.797 140.619 555.192C146.777 549.512 152.533 547.27 155.155 548.873Z" fill="white"/>
<path d="M136.165 575.958C140.278 575.958 143.613 579.492 143.613 583.852C143.613 588.212 140.278 591.746 136.165 591.746C132.051 591.746 128.717 588.212 128.717 583.852C128.717 579.492 132.051 575.958 136.165 575.958Z" fill="#53C1DE"/>
</g>
<path d="M281.222 0.0198975C264.762 0.0198975 265.79 7.62748 265.79 7.62748L265.808 15.5092H281.515V17.8755H259.569C259.569 17.8755 249.037 16.6023 249.037 34.3029C249.037 52.0039 258.23 51.3761 258.23 51.3761H263.716V43.1622C263.716 43.1622 263.42 33.3642 272.763 33.3642H288.341C288.341 33.3642 297.094 33.5149 297.094 24.3485V9.19229C297.094 9.19229 298.423 0.0198975 281.222 0.0198975ZM272.561 5.32018C272.932 5.31982 273.299 5.39747 273.642 5.5487C273.985 5.69992 274.297 5.92174 274.56 6.20147C274.822 6.4812 275.03 6.81334 275.172 7.17889C275.314 7.54444 275.387 7.93623 275.386 8.33182C275.387 8.72741 275.314 9.1192 275.172 9.48475C275.03 9.8503 274.822 10.1824 274.56 10.4622C274.297 10.7419 273.985 10.9637 273.642 11.1149C273.299 11.2662 272.932 11.3438 272.561 11.3435C272.19 11.3438 271.822 11.2662 271.479 11.1149C271.136 10.9637 270.824 10.7419 270.562 10.4622C270.299 10.1824 270.091 9.8503 269.949 9.48475C269.808 9.1192 269.735 8.72741 269.735 8.33182C269.735 7.93623 269.808 7.54444 269.949 7.17889C270.091 6.81334 270.299 6.4812 270.562 6.20147C270.824 5.92174 271.136 5.69992 271.479 5.5487C271.822 5.39747 272.19 5.31982 272.561 5.32018V5.32018Z" fill="url(#paint4_linear)"/>
<path d="M281.689 68.7636C298.149 68.7636 297.121 61.156 297.121 61.156L297.103 53.2745H281.395V50.9082H303.341C303.341 50.9082 313.874 52.1814 313.874 34.4803C313.874 16.7795 304.681 17.4072 304.681 17.4072H299.194V25.6209C299.194 25.6209 299.49 35.4189 290.148 35.4189H274.569C274.569 35.4189 265.817 35.2682 265.817 44.435V59.5914C265.817 59.5914 264.488 68.7636 281.689 68.7636H281.689ZM290.35 63.4638C289.979 63.4642 289.611 63.3865 289.268 63.2353C288.925 63.0841 288.614 62.8622 288.351 62.5825C288.089 62.3028 287.881 61.9706 287.739 61.6051C287.597 61.2395 287.524 60.8478 287.524 60.4522C287.524 60.0565 287.597 59.6647 287.739 59.2991C287.881 58.9336 288.089 58.6014 288.351 58.3216C288.614 58.0419 288.925 57.82 289.268 57.6688C289.611 57.5176 289.979 57.4399 290.35 57.4402C290.721 57.4399 291.089 57.5175 291.432 57.6688C291.775 57.82 292.086 58.0418 292.349 58.3215C292.611 58.6013 292.82 58.9334 292.961 59.299C293.103 59.6645 293.176 60.0563 293.176 60.4519C293.176 60.8475 293.103 61.2393 292.961 61.6048C292.82 61.9704 292.611 62.3025 292.349 62.5822C292.086 62.862 291.775 63.0838 291.432 63.235C291.089 63.3862 290.721 63.4639 290.35 63.4635V63.4638Z" fill="url(#paint5_linear)"/>
<g clip-path="url(#clip6)">
<path d="M313.397 738.238C312.848 736.589 311.408 735.441 309.546 735.165C308.668 735.035 307.662 735.091 306.472 735.334C304.398 735.757 302.86 735.919 301.737 735.95C305.975 728.861 309.422 720.777 311.406 713.167C314.614 700.862 312.9 695.256 310.896 692.72C305.594 686.009 297.859 682.404 288.526 682.293C283.548 682.233 279.178 683.207 276.898 683.907C274.775 683.536 272.493 683.329 270.098 683.29C265.609 683.22 261.642 684.189 258.253 686.181C256.377 685.553 253.365 684.667 249.887 684.101C241.708 682.771 235.116 683.808 230.294 687.182C224.455 691.268 221.748 698.367 222.249 708.281C222.408 711.429 224.186 721.007 226.984 730.09C228.593 735.31 230.308 739.646 232.082 742.977C234.599 747.7 237.291 750.481 240.313 751.48C242.008 752.039 245.086 752.431 248.323 749.76C248.733 750.252 249.281 750.741 250.007 751.196C250.93 751.772 252.058 752.243 253.185 752.522C257.246 753.528 261.05 753.277 264.295 751.867C264.316 752.439 264.331 752.985 264.344 753.457C264.365 754.222 264.387 754.972 264.415 755.674C264.607 760.418 264.933 764.107 265.899 766.688C265.952 766.829 266.023 767.046 266.098 767.275C266.58 768.736 267.385 771.182 269.434 773.097C271.556 775.081 274.122 775.689 276.472 775.689C277.651 775.689 278.776 775.536 279.762 775.327C283.279 774.58 287.272 773.443 290.161 769.368C292.893 765.515 294.221 759.713 294.461 750.571C294.492 750.312 294.521 750.065 294.548 749.83L294.605 749.347L295.249 749.403L295.415 749.414C298.996 749.576 303.376 748.823 306.065 747.586C308.19 746.609 315.001 743.047 313.397 738.238Z" fill="black"/>
<path d="M307.273 739.174C296.623 741.35 295.891 737.778 295.891 737.778C307.135 721.25 311.835 700.271 307.779 695.136C296.713 681.13 277.558 687.754 277.238 687.926L277.135 687.944C275.031 687.511 272.677 687.254 270.03 687.211C265.212 687.133 261.557 688.462 258.783 690.546C258.783 690.546 224.611 676.6 226.201 708.085C226.539 714.783 235.892 758.766 247.048 745.481C251.125 740.623 255.065 736.516 255.065 736.516C257.022 737.803 259.364 738.46 261.82 738.224L262.011 738.064C261.951 738.667 261.978 739.257 262.087 739.955C259.213 743.136 260.058 743.694 254.313 744.866C248.499 746.053 251.914 748.166 254.144 748.718C256.847 749.388 263.101 750.336 267.326 744.477L267.158 745.145C268.284 746.039 269.074 750.957 268.942 755.415C268.809 759.873 268.721 762.934 269.608 765.325C270.495 767.716 271.38 773.095 278.932 771.492C285.243 770.153 288.513 766.681 288.968 760.89C289.291 756.773 290.022 757.382 290.067 753.701L290.654 751.958C291.329 746.377 290.761 744.577 294.649 745.414L295.594 745.496C298.455 745.625 302.201 745.04 304.399 744.028C309.132 741.852 311.939 738.219 307.272 739.174H307.273Z" fill="#336791"/>
<path d="M260.783 711.08C259.824 710.948 258.955 711.07 258.515 711.4C258.268 711.586 258.191 711.801 258.17 711.949C258.115 712.341 258.392 712.774 258.563 712.998C259.045 713.63 259.749 714.065 260.446 714.161C260.547 714.175 260.647 714.182 260.747 714.182C261.909 714.182 262.966 713.285 263.059 712.624C263.175 711.795 261.961 711.243 260.783 711.081V711.08ZM292.575 711.107C292.483 710.457 291.317 710.272 290.21 710.424C289.104 710.577 288.032 711.071 288.121 711.722C288.193 712.229 289.116 713.093 290.208 713.093C290.3 713.093 290.393 713.087 290.487 713.074C291.216 712.973 291.751 712.515 292.005 712.251C292.392 711.848 292.616 711.399 292.575 711.107Z" fill="white"/>
<path d="M310.816 738.926C310.41 737.71 309.103 737.319 306.932 737.763C300.485 739.081 298.176 738.168 297.418 737.615C302.429 730.052 306.552 720.91 308.776 712.381C309.829 708.34 310.411 704.588 310.459 701.53C310.511 698.173 309.934 695.706 308.744 694.199C303.945 688.125 296.901 684.866 288.375 684.777C282.514 684.711 277.562 686.197 276.602 686.615C274.58 686.117 272.376 685.811 269.977 685.772C265.576 685.702 261.773 686.745 258.624 688.873C257.256 688.368 253.721 687.166 249.398 686.476C241.924 685.284 235.985 686.187 231.747 689.162C226.69 692.711 224.355 699.056 224.807 708.019C224.959 711.035 226.694 720.311 229.431 729.195C233.034 740.889 236.951 747.508 241.072 748.87C241.554 749.029 242.11 749.141 242.723 749.141C244.227 749.141 246.07 748.469 247.987 746.186C250.326 743.406 252.745 740.694 255.242 738.053C256.862 738.915 258.642 739.396 260.462 739.444C260.466 739.491 260.47 739.538 260.475 739.585C260.161 739.955 259.854 740.331 259.554 740.711C258.293 742.297 258.031 742.627 253.971 743.455C252.816 743.692 249.749 744.318 249.704 746.447C249.656 748.774 253.33 749.752 253.748 749.855C255.207 750.217 256.613 750.396 257.953 750.396C261.213 750.396 264.081 749.334 266.374 747.281C266.303 755.576 266.652 763.751 267.658 766.241C268.481 768.28 270.493 773.263 276.847 773.263C277.78 773.263 278.806 773.155 279.935 772.915C286.567 771.507 289.447 768.603 290.561 762.201C291.157 758.78 292.18 750.61 292.662 746.228C293.677 746.542 294.985 746.686 296.398 746.685C299.346 746.685 302.747 746.065 304.88 745.084C307.276 743.982 311.601 741.277 310.816 738.926ZM295.023 709.314C295.001 710.607 294.821 711.782 294.631 713.008C294.426 714.326 294.214 715.69 294.16 717.344C294.108 718.955 294.311 720.629 294.507 722.248C294.904 725.519 295.311 728.886 293.735 732.208C293.473 731.749 293.24 731.274 293.037 730.786C292.841 730.316 292.415 729.56 291.826 728.515C289.535 724.444 284.169 714.911 286.916 711.021C287.734 709.863 289.811 708.673 295.023 709.314ZM288.705 687.396C296.344 687.563 302.387 690.395 306.665 695.81C309.947 699.965 306.334 718.867 295.873 735.174C295.768 735.041 295.662 734.909 295.556 734.778L295.423 734.614C298.126 730.191 297.598 725.816 297.127 721.937C296.934 720.345 296.751 718.841 296.798 717.428C296.846 715.932 297.046 714.647 297.239 713.406C297.476 711.876 297.718 710.293 297.652 708.427C297.701 708.231 297.721 708 297.695 707.725C297.525 705.935 295.463 700.579 291.259 695.732C288.959 693.08 285.606 690.113 281.027 688.112C282.996 687.707 285.689 687.33 288.705 687.396ZM245.958 744.514C243.845 747.031 242.387 746.548 241.907 746.39C238.781 745.357 235.153 738.812 231.955 728.432C229.188 719.451 227.571 710.421 227.443 707.888C227.039 699.879 228.999 694.298 233.268 691.298C240.216 686.417 251.64 689.339 256.23 690.82C256.164 690.885 256.095 690.945 256.03 691.011C248.497 698.546 248.676 711.422 248.695 712.209C248.694 712.512 248.72 712.942 248.755 713.534C248.885 715.699 249.126 719.73 248.481 724.294C247.883 728.535 249.203 732.687 252.102 735.684C252.399 735.991 252.712 736.283 253.039 736.559C251.749 737.928 248.944 740.956 245.958 744.514ZM254.007 733.875C251.67 731.459 250.609 728.099 251.095 724.656C251.775 719.834 251.524 715.635 251.389 713.379C251.37 713.063 251.354 712.787 251.344 712.568C252.444 711.602 257.544 708.895 261.18 709.721C262.84 710.097 263.851 711.217 264.271 713.142C266.447 723.111 264.559 727.266 263.042 730.605C262.73 731.293 262.434 731.943 262.182 732.615L261.987 733.135C261.492 734.45 261.031 735.672 260.746 736.833C258.262 736.826 255.845 735.774 254.007 733.875V733.875ZM254.389 747.319C253.663 747.14 253.011 746.828 252.628 746.569C252.948 746.42 253.517 746.217 254.504 746.016C259.279 745.042 260.017 744.355 261.628 742.329C261.997 741.864 262.415 741.338 262.995 740.696L262.996 740.696C263.859 739.738 264.254 739.9 264.97 740.195C265.551 740.432 266.116 741.153 266.345 741.946C266.454 742.321 266.576 743.032 266.177 743.585C262.812 748.252 257.91 748.192 254.389 747.319ZM279.382 770.359C273.54 771.599 271.471 768.646 270.108 765.27C269.228 763.091 268.796 753.263 269.103 742.409C269.106 742.265 269.086 742.125 269.046 741.994C269.01 741.735 268.955 741.479 268.882 741.227C268.426 739.648 267.314 738.327 265.98 737.779C265.45 737.562 264.478 737.163 263.309 737.459C263.558 736.442 263.991 735.293 264.459 734.049L264.656 733.526C264.877 732.936 265.155 732.324 265.449 731.677C267.036 728.184 269.21 723.399 266.851 712.59C265.967 708.541 263.015 706.564 258.542 707.023C255.86 707.298 253.406 708.37 252.182 708.985C251.919 709.117 251.678 709.244 251.453 709.368C251.795 705.289 253.085 697.665 257.913 692.842C260.953 689.805 265.001 688.306 269.933 688.386C279.651 688.544 285.883 693.485 289.4 697.602C292.431 701.149 294.072 704.723 294.727 706.651C289.802 706.155 286.452 707.118 284.754 709.523C281.06 714.754 286.775 724.908 289.522 729.788C290.025 730.682 290.46 731.455 290.597 731.783C291.491 733.931 292.649 735.365 293.495 736.411C293.754 736.732 294.006 737.043 294.197 737.315C292.705 737.741 290.025 738.725 290.27 743.645C290.073 746.114 288.672 757.673 287.961 761.757C287.022 767.153 285.017 769.162 279.382 770.359V770.359ZM303.769 742.713C302.244 743.415 299.691 743.941 297.266 744.054C294.587 744.178 293.224 743.757 292.903 743.497C292.753 740.431 293.905 740.111 295.124 739.772C295.315 739.718 295.502 739.666 295.683 739.604C295.795 739.694 295.918 739.784 296.052 739.872C298.205 741.279 302.045 741.431 307.466 740.323L307.525 740.311C306.794 740.988 305.543 741.897 303.769 742.713Z" fill="white"/>
</g>
<g clip-path="url(#clip7)">
<path d="M497.199 683.477C499.571 683.253 501.37 681.383 501.288 679.14C501.206 676.897 499.162 675.102 496.708 675.102H496.545C494.01 675.177 492.047 677.121 492.129 679.439C492.211 680.561 492.701 681.533 493.437 682.206C490.657 687.216 486.405 690.88 480.026 693.946C475.692 696.04 471.194 696.788 466.697 696.264C463.016 695.816 460.154 694.32 458.355 691.852C455.738 688.188 455.493 684.225 457.701 680.262C459.255 677.42 461.708 675.326 463.262 674.279C462.935 673.307 462.444 671.662 462.199 670.466C450.341 678.318 451.568 688.936 455.166 693.946C457.864 697.685 463.344 700.003 469.395 700.003C471.03 700.003 472.666 699.853 474.302 699.48C484.769 697.61 492.701 691.927 497.199 683.477ZM511.592 674.205C505.377 667.549 496.218 663.885 485.75 663.885H484.442C483.706 662.539 482.152 661.642 480.435 661.642H480.271C477.736 661.717 475.774 663.661 475.855 665.979C475.937 668.222 477.982 670.017 480.435 670.017H480.598C482.397 669.942 483.951 668.895 484.605 667.475H486.077C492.293 667.475 498.18 669.12 503.496 672.335C507.585 674.803 510.529 678.018 512.164 681.907C513.554 685.047 513.473 688.113 512.001 690.731C509.711 694.694 505.867 696.862 500.797 696.862C497.526 696.862 494.419 695.965 492.783 695.292C491.884 696.04 490.248 697.236 489.103 697.984C492.62 699.48 496.218 700.302 499.652 700.302C507.503 700.302 513.309 696.339 515.517 692.376C517.889 688.038 517.725 680.561 511.592 674.205ZM470.049 684.748C470.131 686.992 472.175 688.786 474.629 688.786H474.792C477.327 688.711 479.29 686.767 479.208 684.449C479.127 682.206 477.082 680.411 474.629 680.411H474.465C474.302 680.411 474.056 680.411 473.893 680.486C470.54 675.401 469.15 669.868 469.641 663.885C469.967 659.399 471.603 655.51 474.465 652.295C476.837 649.528 481.416 648.182 484.524 648.107C493.192 647.957 496.872 657.828 497.117 661.791C498.18 662.016 499.979 662.539 501.206 662.913C500.225 650.799 492.047 644.518 484.197 644.518C476.837 644.518 470.049 649.379 467.35 656.557C463.589 666.129 466.042 675.326 470.622 682.58C470.213 683.103 469.967 683.926 470.049 684.748V684.748Z" fill="#764ABC"/>
</g>
<g clip-path="url(#clip8)">
<path d="M655.714 784.806C655.346 784.806 655.003 784.708 654.684 784.535L651.421 782.586C650.931 782.315 651.176 782.216 651.323 782.167C651.985 781.945 652.108 781.895 652.795 781.501C652.868 781.451 652.967 781.476 653.04 781.525L655.542 783.03C655.64 783.08 655.763 783.08 655.836 783.03L665.624 777.331C665.722 777.282 665.771 777.183 665.771 777.06V765.686C665.771 765.563 665.722 765.464 665.624 765.415L655.836 759.74C655.738 759.691 655.616 759.691 655.542 759.74L645.755 765.415C645.657 765.464 645.608 765.587 645.608 765.686V777.06C645.608 777.158 645.657 777.282 645.755 777.331L648.429 778.885C649.876 779.625 650.783 778.762 650.783 777.898V766.673C650.783 766.525 650.906 766.377 651.078 766.377H652.329C652.476 766.377 652.623 766.5 652.623 766.673V777.898C652.623 779.847 651.568 780.982 649.729 780.982C649.165 780.982 648.723 780.982 647.472 780.366L644.896 778.885C644.259 778.515 643.866 777.824 643.866 777.084V765.711C643.866 764.971 644.259 764.28 644.896 763.91L654.684 758.211C655.297 757.865 656.131 757.865 656.744 758.211L666.531 763.91C667.169 764.28 667.562 764.971 667.562 765.711V777.084C667.562 777.824 667.169 778.515 666.531 778.885L656.744 784.584C656.425 784.733 656.057 784.806 655.714 784.806H655.714ZM658.731 776.986C654.438 776.986 653.555 775.012 653.555 773.334C653.555 773.186 653.678 773.038 653.85 773.038H655.125C655.272 773.038 655.395 773.137 655.395 773.285C655.591 774.592 656.155 775.234 658.755 775.234C660.816 775.234 661.699 774.765 661.699 773.655C661.699 773.013 661.454 772.545 658.24 772.224C655.567 771.953 653.899 771.361 653.899 769.214C653.899 767.216 655.567 766.031 658.363 766.031C661.503 766.031 663.048 767.117 663.244 769.485C663.244 769.56 663.22 769.633 663.171 769.708C663.122 769.757 663.048 769.806 662.975 769.806H661.699C661.576 769.806 661.454 769.708 661.429 769.584C661.135 768.227 660.374 767.783 658.363 767.783C656.106 767.783 655.836 768.573 655.836 769.165C655.836 769.88 656.155 770.102 659.197 770.497C662.214 770.892 663.637 771.459 663.637 773.581C663.612 775.752 661.846 776.986 658.731 776.986Z" fill="#539E43"/>
<path d="M625.347 740.324C625.347 739.88 625.102 739.46 624.71 739.238L614.309 733.218C614.137 733.119 613.941 733.07 613.745 733.045H613.647C613.451 733.045 613.255 733.119 613.083 733.218L602.682 739.238C602.29 739.46 602.045 739.88 602.045 740.324L602.069 756.508C602.069 756.73 602.192 756.952 602.388 757.051C602.584 757.174 602.829 757.174 603.001 757.051L609.183 753.498C609.575 753.276 609.821 752.857 609.821 752.413V744.839C609.821 744.395 610.066 743.975 610.458 743.753L613.083 742.223C613.279 742.1 613.5 742.05 613.721 742.05C613.941 742.05 614.162 742.1 614.334 742.223L616.958 743.753C617.351 743.975 617.596 744.394 617.596 744.839V752.413C617.596 752.857 617.842 753.276 618.234 753.498L624.415 757.051C624.612 757.174 624.857 757.174 625.053 757.051C625.249 756.952 625.372 756.73 625.372 756.508L625.347 740.324ZM675.338 718.045C675.142 717.946 674.897 717.946 674.725 718.045C674.529 718.169 674.406 718.366 674.406 718.588V734.625C674.406 734.773 674.333 734.92 674.185 735.019C674.038 735.093 673.891 735.093 673.744 735.019L671.144 733.514C670.953 733.405 670.738 733.348 670.518 733.348C670.299 733.348 670.083 733.405 669.893 733.514L659.492 739.559C659.1 739.781 658.854 740.2 658.854 740.644V752.709C658.854 753.153 659.1 753.572 659.492 753.794L669.893 759.839C670.083 759.948 670.299 760.006 670.518 760.006C670.738 760.006 670.953 759.948 671.144 759.839L681.544 753.794C681.937 753.572 682.182 753.153 682.182 752.709V722.634C682.182 722.165 681.937 721.746 681.544 721.524L675.338 718.045H675.338ZM674.382 748.737C674.382 748.86 674.333 748.959 674.234 749.008L670.678 751.08C670.628 751.105 670.573 751.117 670.518 751.117C670.463 751.117 670.408 751.105 670.359 751.08L666.802 749.008C666.704 748.959 666.655 748.835 666.655 748.737V744.592C666.655 744.468 666.704 744.37 666.802 744.32L670.359 742.248C670.408 742.224 670.463 742.211 670.518 742.211C670.573 742.211 670.628 742.224 670.678 742.248L674.234 744.32C674.333 744.37 674.382 744.493 674.382 744.592V748.737ZM709.949 744.493C710.342 744.271 710.562 743.852 710.562 743.407V740.472C710.562 740.028 710.317 739.608 709.949 739.386L699.622 733.366C699.432 733.257 699.216 733.2 698.997 733.2C698.777 733.2 698.562 733.257 698.371 733.366L687.971 739.411C687.578 739.633 687.333 740.052 687.333 740.496V752.561C687.333 753.005 687.578 753.424 687.971 753.646L698.298 759.567C698.69 759.789 699.156 759.789 699.524 759.567L705.779 756.064C705.975 755.966 706.098 755.744 706.098 755.522C706.098 755.3 705.975 755.078 705.779 754.979L695.329 748.934C695.133 748.811 695.011 748.614 695.011 748.392V744.617C695.011 744.395 695.133 744.173 695.329 744.074L698.592 742.199C698.687 742.138 698.798 742.106 698.911 742.106C699.024 742.106 699.134 742.138 699.23 742.199L702.492 744.074C702.688 744.197 702.811 744.395 702.811 744.617V747.577C702.811 747.799 702.934 748.021 703.13 748.12C703.326 748.243 703.571 748.243 703.768 748.12L709.949 744.493Z" fill="#333333"/>
<path d="M698.836 743.926C698.873 743.902 698.915 743.889 698.959 743.889C699.003 743.889 699.045 743.902 699.082 743.926L701.069 745.085C701.142 745.135 701.191 745.209 701.191 745.307V747.627C701.191 747.725 701.142 747.799 701.069 747.849L699.082 749.008C699.045 749.032 699.003 749.045 698.959 749.045C698.915 749.045 698.873 749.032 698.836 749.008L696.849 747.849C696.776 747.799 696.727 747.725 696.727 747.627V745.307C696.727 745.209 696.776 745.135 696.849 745.085L698.836 743.926Z" fill="#539E43"/>
<mask id="mask0" mask-type="alpha" maskUnits="userSpaceOnUse" x="630" y="733" width="24" height="27">
<path d="M642.738 733.416C642.547 733.307 642.332 733.249 642.112 733.249C641.893 733.249 641.678 733.307 641.487 733.416L631.16 739.41C630.768 739.632 630.547 740.052 630.547 740.496V752.511C630.547 752.955 630.792 753.375 631.16 753.597L641.487 759.592C641.678 759.701 641.893 759.758 642.112 759.758C642.332 759.758 642.547 759.701 642.738 759.592L653.065 753.597C653.457 753.375 653.678 752.955 653.678 752.511V740.496C653.678 740.052 653.433 739.633 653.065 739.411L642.738 733.416Z" fill="white"/>
</mask>
<g mask="url(#mask0)">
<path d="M642.738 733.416C642.547 733.307 642.332 733.249 642.112 733.249C641.893 733.249 641.678 733.307 641.487 733.416L631.16 739.41C630.768 739.632 630.547 740.052 630.547 740.496V752.511C630.547 752.955 630.792 753.375 631.16 753.597L641.487 759.592C641.678 759.701 641.893 759.758 642.112 759.758C642.332 759.758 642.547 759.701 642.738 759.592L653.065 753.597C653.457 753.375 653.678 752.955 653.678 752.511V740.496C653.678 740.052 653.433 739.633 653.065 739.411L642.738 733.416Z" fill="url(#paint6_linear)"/>
<path d="M653.09 739.411L642.714 733.416C642.612 733.364 642.505 733.323 642.395 733.293L630.768 753.326C630.864 753.444 630.981 753.545 631.112 753.622L641.488 759.618C641.782 759.79 642.125 759.84 642.444 759.741L653.36 739.658C653.286 739.559 653.188 739.485 653.09 739.411V739.411Z" fill="url(#paint7_linear)"/>
<path fill-rule="evenodd" clip-rule="evenodd" d="M653.114 753.597C653.408 753.424 653.629 753.128 653.727 752.808L642.345 733.268C642.051 733.218 641.732 733.243 641.462 733.416L631.16 739.386L642.272 759.765C642.433 759.738 642.59 759.688 642.738 759.617L653.114 753.597L653.114 753.597Z" fill="url(#paint8_linear)"/>
<path fill-rule="evenodd" clip-rule="evenodd" d="M653.114 753.597L642.762 759.592C642.616 759.667 642.459 759.717 642.296 759.74L642.493 760.11L653.972 753.424V753.276L653.678 752.783C653.629 753.128 653.408 753.424 653.114 753.597Z" fill="url(#paint9_linear)"/>
<path fill-rule="evenodd" clip-rule="evenodd" d="M653.114 753.597L642.762 759.592C642.616 759.667 642.459 759.717 642.296 759.74L642.493 760.11L653.972 753.424V753.276L653.678 752.783C653.629 753.128 653.408 753.424 653.114 753.597Z" fill="url(#paint10_linear)"/>
</g>
</g>
<g clip-path="url(#clip9)">
<path d="M860.694 693.177V715.991L839.295 727.46L839.101 727.62V736.146L839.295 736.311L869.433 720.541V688.752L869.148 688.689L860.651 692.992L860.694 693.177Z" fill="#2F406A"/>
<path d="M817.827 716.178L839.295 727.46V736.311L808.95 720.479V688.814L809.262 688.771L817.734 693.233L817.827 693.489V716.178Z" fill="#2379BD"/>
<path d="M817.827 693.491L808.95 688.816L839.226 672.983L869.433 688.754L860.694 693.179L839.226 682.084L817.827 693.491Z" fill="#03AFEF"/>
<path d="M838.926 713.569L838.694 713.354V704.787L838.926 704.679L838.983 704.467L847.09 700.183L847.338 700.234V709.06L838.926 713.569Z" fill="#2F406A"/>
<path d="M830.374 709.335V700.17L830.609 700.16L838.856 704.507L838.926 704.679V713.569L830.374 709.335Z" fill="#2379BD"/>
<path d="M838.786 695.662L830.374 700.17L838.926 704.679L847.338 700.234L838.786 695.662Z" fill="#03AFEF"/>
<path d="M828.458 719.157L828.226 718.942V710.375L828.458 710.267L828.515 710.056L836.622 705.771L836.87 705.822V714.648L828.458 719.157Z" fill="#2F406A"/>
<path d="M819.906 714.924V705.758L820.141 705.748L828.388 710.096L828.458 710.267V719.157L819.906 714.924Z" fill="#2379BD"/>
<path d="M828.318 701.25L819.906 705.758L828.458 710.267L836.87 705.822L828.318 701.25Z" fill="#03AFEF"/>
<path d="M850.142 719.369L849.91 719.154V710.587L850.142 710.479L850.199 710.267L858.306 705.983L858.554 706.033V714.86L850.142 719.369Z" fill="#2F406A"/>
<path d="M841.59 715.135V705.97L841.825 705.959L850.072 710.307L850.142 710.478V719.369L841.59 715.135Z" fill="#2379BD"/>
<path d="M850.002 701.461L841.59 705.97L850.142 710.478L858.554 706.033L850.002 701.461Z" fill="#03AFEF"/>
<path d="M839.674 724.957L839.442 724.742V716.175L839.674 716.067L839.731 715.855L847.838 711.571L848.086 711.622V720.448L839.674 724.957Z" fill="#2F406A"/>
<path d="M831.122 720.724V711.558L831.357 711.548L839.604 715.895L839.674 716.067V724.957L831.122 720.724Z" fill="#2379BD"/>
<path d="M839.534 707.049L831.122 711.558L839.674 716.067L848.086 711.622L839.534 707.049Z" fill="#03AFEF"/>
<path d="M838.926 701.419L838.694 701.204V692.637L838.926 692.529L838.983 692.317L847.09 688.034L847.338 688.084V696.91L838.926 701.419Z" fill="#2F406A"/>
<path d="M830.374 697.186V688.02L830.609 688.01L838.856 692.357L838.926 692.529V701.419L830.374 697.186Z" fill="#2379BD"/>
<path d="M838.786 683.512L830.374 688.02L838.926 692.529L847.338 688.084L838.786 683.512Z" fill="#03AFEF"/>
<path d="M828.458 707.007L828.226 706.792V698.226L828.458 698.117L828.515 697.906L836.622 693.621L836.87 693.672V702.499L828.458 707.007Z" fill="#2F406A"/>
<path d="M819.906 702.774V693.609L820.141 693.598L828.388 697.946L828.458 698.117V707.007L819.906 702.774Z" fill="#2379BD"/>
<path d="M828.318 689.1L819.906 693.608L828.458 698.117L836.87 693.672L828.318 689.1Z" fill="#03AFEF"/>
<path d="M850.142 707.219L849.91 707.004V698.437L850.142 698.329L850.199 698.117L858.306 693.833L858.554 693.884V702.71L850.142 707.219Z" fill="#2F406A"/>
<path d="M841.59 702.985V693.82L841.825 693.81L850.072 698.157L850.142 698.328V707.219L841.59 702.985Z" fill="#2379BD"/>
<path d="M850.002 689.312L841.59 693.82L850.142 698.329L858.554 693.884L850.002 689.312Z" fill="#03AFEF"/>
<path d="M839.674 712.807L839.442 712.592V704.025L839.674 703.917L839.731 703.706L847.838 699.421L848.086 699.472V708.298L839.674 712.807Z" fill="#2F406A"/>
<path d="M831.122 708.573V699.408L831.357 699.398L839.604 703.745L839.674 703.917V712.807L831.122 708.573Z" fill="#2379BD"/>
<path d="M839.534 694.899L831.122 699.408L839.674 703.917L848.086 699.472L839.534 694.899Z" fill="#03AFEF"/>
</g>
<g clip-path="url(#clip10)">
<path d="M935.495 773.603V758.864H953.748V758.002H935.495V744.556H954.902V743.694H934.64V774.464H955.073V773.603H935.495H935.495ZM971.53 752.313L963.964 762.354L956.569 752.313H955.457L963.451 763.001L954.688 774.464H955.714L963.964 763.647L972.257 774.464H973.325L964.52 763.001L972.556 752.313H971.53L971.53 752.313ZM975.89 782.049V768.259H975.976C976.489 770.27 977.501 771.886 979.011 773.107C980.521 774.328 982.445 774.939 984.782 774.939C986.292 774.939 987.631 774.63 988.8 774.012C989.968 773.395 990.944 772.554 991.728 771.491C992.512 770.428 993.11 769.193 993.523 767.785C993.936 766.377 994.143 764.897 994.143 763.346C994.143 761.68 993.929 760.142 993.502 758.735C993.074 757.327 992.455 756.106 991.643 755.072C990.83 754.037 989.847 753.233 988.693 752.658C987.539 752.084 986.235 751.796 984.782 751.796C983.67 751.796 982.637 751.962 981.683 752.292C980.728 752.622 979.88 753.089 979.139 753.693C978.394 754.301 977.745 755.02 977.216 755.826C976.674 756.645 976.261 757.542 975.976 758.519H975.89V752.313H975.036V782.049H975.89ZM984.782 774.12C982.103 774.12 979.951 773.193 978.327 771.34C976.703 769.487 975.89 766.822 975.89 763.346C975.89 761.909 976.09 760.544 976.489 759.252C976.888 757.959 977.465 756.824 978.22 755.847C978.975 754.87 979.909 754.094 981.02 753.52C982.131 752.945 983.385 752.658 984.782 752.658C986.206 752.658 987.453 752.945 988.522 753.52C989.591 754.094 990.474 754.877 991.172 755.869C991.87 756.86 992.398 757.995 992.754 759.273C993.11 760.552 993.288 761.909 993.288 763.346C993.288 764.639 993.124 765.924 992.797 767.203C992.469 768.481 991.963 769.631 991.279 770.651C990.595 771.67 989.719 772.503 988.65 773.15C987.581 773.796 986.292 774.12 984.782 774.12ZM998.845 774.464V761.924C998.845 760.717 999.016 759.539 999.358 758.39C999.7 757.241 1000.23 756.228 1000.94 755.352C1001.65 754.475 1002.56 753.786 1003.65 753.283C1004.75 752.78 1006.06 752.572 1007.57 752.658V751.796C1006.25 751.768 1005.11 751.911 1004.12 752.227C1003.14 752.543 1002.29 752.974 1001.58 753.52C1000.87 754.066 1000.3 754.705 999.871 755.438C999.444 756.169 999.127 756.961 998.931 757.786H998.845V752.313H997.99V774.465H998.845V774.464ZM1008.63 763.561H1027.02C1027.07 762.038 1026.92 760.573 1026.57 759.165C1026.21 757.758 1025.64 756.508 1024.86 755.416C1024.07 754.324 1023.06 753.448 1021.82 752.787C1020.58 752.126 1019.11 751.796 1017.4 751.796C1016.17 751.796 1014.97 752.055 1013.81 752.572C1012.64 753.089 1011.61 753.843 1010.73 754.834C1009.85 755.825 1009.13 757.039 1008.59 758.476C1008.05 759.912 1007.78 761.55 1007.78 763.389C1007.78 765.026 1007.96 766.556 1008.33 767.978C1008.71 769.401 1009.28 770.636 1010.04 771.685C1010.81 772.733 1011.8 773.545 1013.02 774.12C1014.23 774.694 1015.69 774.967 1017.4 774.938C1019.9 774.938 1022.01 774.227 1023.72 772.805C1025.43 771.383 1026.45 769.379 1026.76 766.793H1025.9C1025.53 769.236 1024.59 771.067 1023.06 772.288C1021.54 773.509 1019.62 774.12 1017.31 774.12C1015.74 774.12 1014.42 773.847 1013.34 773.301C1012.25 772.755 1011.37 772.008 1010.69 771.06C1010 770.112 1009.5 768.998 1009.17 767.72C1008.84 766.442 1008.66 765.055 1008.63 763.561ZM1026.16 762.699H1008.63C1008.72 761.148 1009 759.754 1009.49 758.519C1009.97 757.283 1010.61 756.228 1011.39 755.352C1012.17 754.475 1013.09 753.807 1014.13 753.347C1015.17 752.888 1016.29 752.658 1017.48 752.658C1018.91 752.658 1020.16 752.924 1021.24 753.455C1022.33 753.987 1023.23 754.712 1023.96 755.632C1024.69 756.551 1025.23 757.621 1025.6 758.842C1025.97 760.063 1026.16 761.349 1026.16 762.699ZM1044.76 758.864H1045.61C1045.61 756.393 1044.9 754.597 1043.47 753.477C1042.05 752.356 1040.11 751.796 1037.66 751.796C1036.29 751.796 1035.14 751.969 1034.2 752.313C1033.26 752.658 1032.49 753.103 1031.89 753.649C1031.29 754.195 1030.86 754.798 1030.61 755.459C1030.35 756.12 1030.22 756.752 1030.22 757.355C1030.22 758.562 1030.43 759.525 1030.86 760.243C1031.29 760.961 1031.96 761.521 1032.87 761.924C1033.5 762.211 1034.21 762.469 1035.01 762.7C1035.81 762.929 1036.73 763.173 1037.79 763.432C1038.73 763.662 1039.65 763.892 1040.57 764.121C1041.48 764.351 1042.28 764.66 1042.98 765.048C1043.68 765.436 1044.25 765.931 1044.69 766.535C1045.13 767.138 1045.35 767.928 1045.35 768.905C1045.35 769.853 1045.13 770.658 1044.69 771.318C1044.25 771.976 1043.68 772.528 1043 772.935C1042.32 773.351 1041.56 773.653 1040.72 773.839C1039.87 774.026 1039.06 774.12 1038.26 774.12C1035.66 774.12 1033.68 773.538 1032.29 772.374C1030.91 771.211 1030.22 769.379 1030.22 766.879H1029.37C1029.37 769.666 1030.11 771.706 1031.61 772.999C1033.11 774.292 1035.32 774.938 1038.26 774.938C1039.2 774.938 1040.15 774.831 1041.1 774.615C1042.05 774.4 1042.91 774.048 1043.66 773.559C1044.41 773.078 1045.04 772.429 1045.5 771.663C1045.97 770.887 1046.21 769.939 1046.21 768.819C1046.21 767.756 1046 766.894 1045.59 766.233C1045.18 765.572 1044.63 765.026 1043.96 764.595C1043.29 764.165 1042.54 763.827 1041.7 763.583C1040.85 763.337 1040.01 763.1 1039.16 762.872C1038.11 762.595 1037.06 762.322 1036.01 762.053C1035.12 761.823 1034.28 761.55 1033.51 761.234C1032.77 760.918 1032.18 760.466 1031.74 759.877C1031.3 759.288 1031.08 758.447 1031.08 757.355C1031.08 757.154 1031.13 756.795 1031.25 756.278C1031.36 755.761 1031.63 755.236 1032.06 754.705C1032.49 754.174 1033.14 753.7 1034.03 753.283C1034.91 752.866 1036.12 752.658 1037.66 752.658C1038.71 752.658 1039.68 752.773 1040.54 753.003C1041.41 753.233 1042.16 753.599 1042.79 754.102C1043.42 754.605 1043.9 755.244 1044.24 756.019C1044.58 756.795 1044.76 757.743 1044.76 758.864ZM1064.55 758.864H1065.4C1065.4 756.393 1064.69 754.597 1063.26 753.477C1061.84 752.356 1059.9 751.796 1057.45 751.796C1056.08 751.796 1054.93 751.969 1053.99 752.313C1053.05 752.658 1052.28 753.103 1051.68 753.649C1051.08 754.195 1050.65 754.798 1050.4 755.459C1050.14 756.12 1050.01 756.752 1050.01 757.355C1050.01 758.562 1050.23 759.525 1050.65 760.243C1051.08 760.961 1051.75 761.521 1052.66 761.924C1053.29 762.211 1054 762.469 1054.8 762.7C1055.6 762.929 1056.52 763.173 1057.58 763.432C1058.52 763.662 1059.45 763.892 1060.36 764.121C1061.27 764.351 1062.07 764.66 1062.77 765.048C1063.47 765.436 1064.04 765.931 1064.48 766.535C1064.92 767.138 1065.15 767.928 1065.15 768.905C1065.15 769.853 1064.92 770.658 1064.48 771.318C1064.04 771.976 1063.47 772.528 1062.79 772.935C1062.11 773.351 1061.35 773.653 1060.51 773.839C1059.67 774.026 1058.85 774.12 1058.05 774.12C1055.46 774.12 1053.47 773.538 1052.09 772.374C1050.7 771.211 1050.01 769.379 1050.01 766.879H1049.16C1049.16 769.666 1049.91 771.706 1051.4 772.999C1052.9 774.292 1055.11 774.938 1058.05 774.938C1058.99 774.938 1059.94 774.831 1060.89 774.615C1061.85 774.4 1062.7 774.048 1063.46 773.559C1064.21 773.078 1064.83 772.429 1065.29 771.663C1065.76 770.887 1066 769.939 1066 768.819C1066 767.756 1065.79 766.894 1065.38 766.233C1064.97 765.572 1064.43 765.026 1063.76 764.595C1063.09 764.165 1062.33 763.827 1061.49 763.583C1060.64 763.337 1059.8 763.1 1058.95 762.872C1057.9 762.595 1056.85 762.322 1055.8 762.053C1054.91 761.823 1054.07 761.55 1053.3 761.234C1052.56 760.918 1051.97 760.466 1051.53 759.877C1051.09 759.288 1050.87 758.447 1050.87 757.355C1050.87 757.154 1050.92 756.795 1051.04 756.278C1051.15 755.761 1051.42 755.236 1051.85 754.705C1052.28 754.174 1052.93 753.7 1053.82 753.283C1054.7 752.866 1055.91 752.658 1057.45 752.658C1058.51 752.658 1059.47 752.773 1060.34 753.003C1061.21 753.233 1061.95 753.599 1062.58 754.102C1063.21 754.605 1063.69 755.244 1064.03 756.019C1064.38 756.795 1064.55 757.743 1064.55 758.864H1064.55Z" fill="#222222"/>
</g>
<g clip-path="url(#clip11)">
<path d="M538.568 39.6982C538.592 39.4749 538.61 39.2496 538.623 39.0231C538.639 38.755 521.672 23.4324 521.672 23.4324H521.266C521.266 23.4324 538.464 40.6984 538.568 39.698V39.6982Z" fill="url(#paint11_linear)"/>
<path d="M502.367 34.3827C502.344 34.4298 502.322 34.4769 502.299 34.5237C502.275 34.573 502.25 34.6221 502.225 34.6707C501.685 35.7441 509.798 43.2928 510.45 42.3758C510.48 42.3353 510.51 42.2925 510.539 42.252C510.572 42.2039 510.605 42.1579 510.638 42.1098C511.159 41.3558 502.599 33.8925 502.367 34.3827Z" fill="url(#paint12_linear)"/>
<path d="M513.831 44.9981C513.808 45.0462 513.645 45.3089 513.496 45.4477C513.471 45.4958 521.416 52.9953 521.416 52.9953H522.131C522.132 52.9953 514.673 45.3151 513.831 44.9981Z" fill="url(#paint13_linear)"/>
<path d="M538.634 38.887C538.263 46.7268 531.448 52.9953 523.123 52.9953H521.997L513.683 45.1994C514.367 44.2813 515.002 43.3303 515.568 42.3386H523.123C525.512 42.3386 527.456 40.4891 527.456 38.2141C527.456 35.94 525.512 34.0896 523.123 34.0896H518.652C518.993 32.3759 519.179 30.6088 519.179 28.8009C519.179 26.9655 518.99 25.1733 518.637 23.4322H521.414L538.585 39.5364C538.606 39.3205 538.622 39.1049 538.634 38.887ZM489.32 4.52765H484.803V15.1844H489.32C497.209 15.1844 503.628 21.2924 503.628 28.8009C503.628 30.8437 503.15 32.7828 502.299 34.5238L510.539 42.252C513.245 38.3989 514.827 33.773 514.827 28.8009C514.827 15.4167 503.384 4.52765 489.32 4.52765Z" fill="url(#paint14_linear)"/>
<path d="M523.123 4.52765H504.832C509.299 7.1237 512.999 10.8048 515.519 15.1844H523.123C525.512 15.1844 527.456 17.0339 527.456 19.3089C527.456 21.5833 525.512 23.4328 523.123 23.4328H521.414L538.586 39.5368C538.626 39.1 538.652 38.6604 538.652 38.214C538.652 34.6214 537.297 31.3259 535.048 28.7609C537.297 26.1971 538.652 22.9009 538.652 19.3089C538.652 11.1589 531.686 4.52765 523.123 4.52765Z" fill="url(#paint15_linear)"/>
<path d="M521.997 52.9954H504.963C508.391 50.9799 511.356 48.3192 513.683 45.1994L521.997 52.9954ZM510.539 42.2521L502.3 34.5237C500.023 39.1802 495.062 42.4187 489.32 42.4187H484.803V53.0745H489.32C498.16 53.0745 505.962 48.7712 510.539 42.2521Z" fill="url(#paint16_linear)"/>
</g>
</g>
<defs>
<linearGradient id="paint0_linear" x1="110.496" y1="90.623" x2="110.496" y2="78.6385" gradientUnits="userSpaceOnUse">
<stop offset="0.387" stop-color="#D1D3D4" stop-opacity="0"/>
<stop offset="1" stop-color="#D1D3D4"/>
</linearGradient>
<linearGradient id="paint1_linear" x1="124.313" y1="84.6455" x2="124.313" y2="72.1881" gradientUnits="userSpaceOnUse">
<stop offset="0.387" stop-color="#D1D3D4" stop-opacity="0"/>
<stop offset="1" stop-color="#D1D3D4"/>
</linearGradient>
<linearGradient id="paint2_linear" x1="103.845" y1="95.9683" x2="130.405" y2="95.9683" gradientUnits="userSpaceOnUse">
<stop stop-color="#E8E7E5"/>
<stop offset="1" stop-color="white"/>
</linearGradient>
<linearGradient id="paint3_linear" x1="102.623" y1="75.2376" x2="131.459" y2="75.2376" gradientUnits="userSpaceOnUse">
<stop stop-color="#E8E7E5"/>
<stop offset="1" stop-color="white"/>
</linearGradient>
<linearGradient id="paint4_linear" x1="255.268" y1="6.20301" x2="289.422" y2="37.929" gradientUnits="userSpaceOnUse">
<stop stop-color="#387EB8"/>
<stop offset="1" stop-color="#366994"/>
</linearGradient>
<linearGradient id="paint5_linear" x1="274.99" y1="27.9737" x2="311.56" y2="60.4105" gradientUnits="userSpaceOnUse">
<stop stop-color="#FFE052"/>
<stop offset="1" stop-color="#FFC331"/>
</linearGradient>
<linearGradient id="paint6_linear" x1="646.32" y1="737.885" x2="634.907" y2="755.714" gradientUnits="userSpaceOnUse">
<stop stop-color="#41873F"/>
<stop offset="0.3288" stop-color="#418B3D"/>
<stop offset="0.6352" stop-color="#419637"/>
<stop offset="0.9319" stop-color="#3FA92D"/>
<stop offset="1" stop-color="#3FAE2A"/>
</linearGradient>
<linearGradient id="paint7_linear" x1="640.545" y1="747.912" x2="668.968" y2="732.559" gradientUnits="userSpaceOnUse">
<stop offset="0.1376" stop-color="#41873F"/>
<stop offset="0.4032" stop-color="#54A044"/>
<stop offset="0.7136" stop-color="#66B848"/>
<stop offset="0.9081" stop-color="#6CC04A"/>
</linearGradient>
<linearGradient id="paint8_linear" x1="630.169" y1="746.504" x2="654.065" y2="746.504" gradientUnits="userSpaceOnUse">
<stop offset="0.09192" stop-color="#6CC04A"/>
<stop offset="0.2864" stop-color="#66B848"/>
<stop offset="0.5968" stop-color="#54A044"/>
<stop offset="0.8624" stop-color="#41873F"/>
</linearGradient>
<linearGradient id="paint9_linear" x1="630.17" y1="756.467" x2="654.065" y2="756.467" gradientUnits="userSpaceOnUse">
<stop offset="0.09192" stop-color="#6CC04A"/>
<stop offset="0.2864" stop-color="#66B848"/>
<stop offset="0.5968" stop-color="#54A044"/>
<stop offset="0.8624" stop-color="#41873F"/>
</linearGradient>
<linearGradient id="paint10_linear" x1="657.547" y1="737.317" x2="651.425" y2="769.209" gradientUnits="userSpaceOnUse">
<stop stop-color="#41873F"/>
<stop offset="0.3288" stop-color="#418B3D"/>
<stop offset="0.6352" stop-color="#419637"/>
<stop offset="0.9319" stop-color="#3FA92D"/>
<stop offset="1" stop-color="#3FAE2A"/>
</linearGradient>
<linearGradient id="paint11_linear" x1="506.923" y1="8.29586" x2="537.14" y2="42.6073" gradientUnits="userSpaceOnUse">
<stop stop-color="#F9A03C"/>
<stop offset="1" stop-color="#F7974E"/>
</linearGradient>
<linearGradient id="paint12_linear" x1="480.292" y1="14.2099" x2="509.152" y2="43.6354" gradientUnits="userSpaceOnUse">
<stop stop-color="#F9A03C"/>
<stop offset="1" stop-color="#F7974E"/>
</linearGradient>
<linearGradient id="paint13_linear" x1="494.225" y1="24.0479" x2="519.256" y2="55.0366" gradientUnits="userSpaceOnUse">
<stop stop-color="#F9A03C"/>
<stop offset="1" stop-color="#F7974E"/>
</linearGradient>
<linearGradient id="paint14_linear" x1="490.907" y1="3.64457" x2="524.262" y2="52.546" gradientUnits="userSpaceOnUse">
<stop stop-color="#F26D58"/>
<stop offset="1" stop-color="#F9A03C"/>
</linearGradient>
<linearGradient id="paint15_linear" x1="510.19" y1="5.8783" x2="546.183" y2="28.7252" gradientUnits="userSpaceOnUse">
<stop stop-color="#B84E51"/>
<stop offset="1" stop-color="#F68E48"/>
</linearGradient>
<linearGradient id="paint16_linear" x1="502.278" y1="38.8769" x2="502.732" y2="61.8929" gradientUnits="userSpaceOnUse">
<stop stop-color="#F9A03C"/>
<stop offset="1" stop-color="#F7974E"/>
</linearGradient>
<clipPath id="clip0">
<rect width="73.7128" height="67.947" fill="white" transform="translate(218.303 118.385)"/>
</clipPath>
<clipPath id="clip1">
<rect width="73.7128" height="79.8836" fill="white" transform="translate(80.328 43.0922)"/>
</clipPath>
<clipPath id="clip2">
<rect width="48.1968" height="65.1924" fill="white" transform="translate(367 87)"/>
</clipPath>
<clipPath id="clip3">
<rect width="80" height="60" fill="white" transform="translate(287 525)"/>
</clipPath>
<clipPath id="clip4">
<rect width="52.922" height="54.174" fill="white" transform="translate(0 657.37)"/>
</clipPath>
<clipPath id="clip5">
<rect width="94.5035" height="89.9839" fill="white" transform="translate(88.8334 538.922)"/>
</clipPath>
<clipPath id="clip6">
<rect width="91.6684" height="93.6567" fill="white" transform="translate(222.083 682.161)"/>
</clipPath>
<clipPath id="clip7">
<rect width="64.2624" height="56.0104" fill="white" transform="translate(452.672 644.515)"/>
</clipPath>
<clipPath id="clip8">
<rect width="108.679" height="67.0288" fill="white" transform="translate(601.988 717.971)"/>
</clipPath>
<clipPath id="clip9">
<rect width="60.4823" height="63.356" fill="white" transform="translate(808.95 672.979)"/>
</clipPath>
<clipPath id="clip10">
<rect width="131.36" height="38.5645" fill="white" transform="translate(934.64 743.681)"/>
</clipPath>
<clipPath id="clip11">
<rect width="53.867" height="48.6647" fill="white" transform="translate(484.803 4.52765)"/>
</clipPath>
</defs>
</svg>
